  0
SECTION
  2
HEADER
  9
$ACADVER
  1
AC1015
  9
$ACADMAINTVER
 70
     6
  9
$DWGCODEPAGE
  3
ANSI_1252
  9
$INSBASE
 10
0.0
 20
0.0
 30
0.0
  9
$EXTMIN
 10
-15.0
 20
-9.0
 30
0.0
  9
$EXTMAX
 10
15.0
 20
7.0
 30
0.0
  9
$LIMMIN
 10
0.0
 20
0.0
  9
$LIMMAX
 10
420.0
 20
297.0
  9
$ORTHOMODE
 70
     0
  9
$REGENMODE
 70
     1
  9
$FILLMODE
 70
     1
  9
$QTEXTMODE
 70
     0
  9
$MIRRTEXT
 70
     1
  9
$LTSCALE
 40
1.0
  9
$ATTMODE
 70
     1
  9
$TEXTSIZE
 40
3.5
  9
$TRACEWID
 40
1.0
  9
$TEXTSTYLE
  7
Standard
  9
$CLAYER
  8
0
  9
$CELTYPE
  6
ByLayer
  9
$CECOLOR
 62
   256
  9
$CELTSCALE
 40
1.0
  9
$DISPSILH
 70
     0
  9
$DIMSCALE
 40
1.0
  9
$DIMASZ
 40
3.302
  9
$DIMEXO
 40
1.0
  9
$DIMDLI
 40
3.75
  9
$DIMRND
 40
0.0
  9
$DIMDLE
 40
0.0
  9
$DIMEXE
 40
1.0
  9
$DIMTP
 40
0.0
  9
$DIMTM
 40
0.0
  9
$DIMTXT
 40
3.5
  9
$DIMCEN
 40
2.5
  9
$DIMTSZ
 40
0.0
  9
$DIMTOL
 70
     0
  9
$DIMLIM
 70
     0
  9
$DIMTIH
 70
     1
  9
$DIMTOH
 70
     1
  9
$DIMSE1
 70
     0
  9
$DIMSE2
 70
     0
  9
$DIMTAD
 70
     1
  9
$DIMZIN
 70
     0
  9
$DIMBLK
  1

  9
$DIMASO
 70
     1
  9
$DIMSHO
 70
     1
  9
$DIMPOST
  1

  9
$DIMAPOST
  1

  9
$DIMALT
 70
     0
  9
$DIMALTD
 70
     3
  9
$DIMALTF
 40
0.0393700787
  9
$DIMLFAC
 40
1.0
  9
$DIMTOFL
 70
     1
  9
$DIMTVP
 40
0.0
  9
$DIMTIX
 70
     0
  9
$DIMSOXD
 70
     0
  9
$DIMSAH
 70
     0
  9
$DIMBLK1
  1

  9
$DIMBLK2
  1

  9
$DIMSTYLE
  2
ISO-25
  9
$DIMCLRD
 70
     0
  9
$DIMCLRE
 70
     0
  9
$DIMCLRT
 70
     0
  9
$DIMTFAC
 40
1.0
  9
$DIMGAP
 40
1.524
  9
$DIMJUST
 70
     0
  9
$DIMSD1
 70
     0
  9
$DIMSD2
 70
     0
  9
$DIMTOLJ
 70
     0
  9
$DIMTZIN
 70
     0
  9
$DIMALTZ
 70
     0
  9
$DIMALTTZ
 70
     0
  9
$DIMUPT
 70
     0
  9
$DIMDEC
 70
     2
  9
$DIMTDEC
 70
     2
  9
$DIMALTU
 70
     2
  9
$DIMALTTD
 70
     3
  9
$DIMTXSTY
  7
Standard
  9
$DIMAUNIT
 70
     0
  9
$DIMADEC
 70
     2
  9
$DIMALTRND
 40
0.0
  9
$DIMAZIN
 70
     0
  9
$DIMDSEP
 70
    44
  9
$DIMATFIT
 70
     3
  9
$DIMFRAC
 70
     0
  9
$DIMLDRBLK
  1

  9
$DIMLUNIT
 70
     2
  9
$DIMLWD
 70
    -2
  9
$DIMLWE
 70
    -2
  9
$DIMTMOVE
 70
     0
  9
$LUNITS
 70
     2
  9
$LUPREC
 70
     2
  9
$SKETCHINC
 40
1.0
  9
$FILLETRAD
 40
10.0
  9
$AUNITS
 70
     0
  9
$AUPREC
 70
     2
  9
$MENU
  1
.
  9
$ELEVATION
 40
0.0
  9
$PELEVATION
 40
0.0
  9
$THICKNESS
 40
0.0
  9
$LIMCHECK
 70
     0
  9
$CHAMFERA
 40
0.0
  9
$CHAMFERB
 40
0.0
  9
$CHAMFERC
 40
0.0
  9
$CHAMFERD
 40
0.0
  9
$SKPOLY
 70
     0
  9
$TDCREATE
 40
2458586.665689711
  9
$TDUCREATE
 40
2458586.790689711
  9
$TDUPDATE
 40
2458586.665778136
  9
$TDUUPDATE
 40
2458586.790778136
  9
$TDINDWG
 40
0.0000000116
  9
$TDUSRTIMER
 40
0.0000000116
  9
$USRTIMER
 70
     1
  9
$ANGBASE
 50
0.0
  9
$ANGDIR
 70
     0
  9
$PDMODE
 70
     0
  9
$PDSIZE
 40
-1.0
  9
$PLINEWID
 40
0.0
  9
$SPLFRAME
 70
     0
  9
$SPLINETYPE
 70
     6
  9
$SPLINESEGS
 70
     8
  9
$HANDSEED
  5
12B
  9
$SURFTAB1
 70
     6
  9
$SURFTAB2
 70
     6
  9
$SURFTYPE
 70
     6
  9
$SURFU
 70
     6
  9
$SURFV
 70
     6
  9
$UCSBASE
  2

  9
$UCSNAME
  2

  9
$UCSORG
 10
0.0
 20
0.0
 30
0.0
  9
$UCSXDIR
 10
1.0
 20
0.0
 30
0.0
  9
$UCSYDIR
 10
0.0
 20
1.0
 30
0.0
  9
$UCSORTHOREF
  2

  9
$UCSORTHOVIEW
 70
     0
  9
$UCSORGTOP
 10
0.0
 20
0.0
 30
0.0
  9
$UCSORGBOTTOM
 10
0.0
 20
0.0
 30
0.0
  9
$UCSORGLEFT
 10
0.0
 20
0.0
 30
0.0
  9
$UCSORGRIGHT
 10
0.0
 20
0.0
 30
0.0
  9
$UCSORGFRONT
 10
0.0
 20
0.0
 30
0.0
  9
$UCSORGBACK
 10
0.0
 20
0.0
 30
0.0
  9
$PUCSBASE
  2

  9
$PUCSNAME
  2

  9
$PUCSORG
 10
0.0
 20
0.0
 30
0.0
  9
$PUCSXDIR
 10
1.0
 20
0.0
 30
0.0
  9
$PUCSYDIR
 10
0.0
 20
1.0
 30
0.0
  9
$PUCSORTHOREF
  2

  9
$PUCSORTHOVIEW
 70
     0
  9
$PUCSORGTOP
 10
0.0
 20
0.0
 30
0.0
  9
$PUCSORGBOTTOM
 10
0.0
 20
0.0
 30
0.0
  9
$PUCSORGLEFT
 10
0.0
 20
0.0
 30
0.0
  9
$PUCSORGRIGHT
 10
0.0
 20
0.0
 30
0.0
  9
$PUCSORGFRONT
 10
0.0
 20
0.0
 30
0.0
  9
$PUCSORGBACK
 10
0.0
 20
0.0
 30
0.0
  9
$USERI1
 70
     0
  9
$USERI2
 70
     0
  9
$USERI3
 70
     0
  9
$USERI4
 70
     0
  9
$USERI5
 70
     0
  9
$USERR1
 40
0.0
  9
$USERR2
 40
0.0
  9
$USERR3
 40
0.0
  9
$USERR4
 40
0.0
  9
$USERR5
 40
0.0
  9
$WORLDVIEW
 70
     1
  9
$SHADEDGE
 70
     3
  9
$SHADEDIF
 70
    70
  9
$TILEMODE
 70
     0
  9
$MAXACTVP
 70
    64
  9
$PINSBASE
 10
0.0
 20
0.0
 30
0.0
  9
$PLIMCHECK
 70
     0
  9
$PEXTMIN
 10
-15.0
 20
-9.0
 30
0.0
  9
$PEXTMAX
 10
15.0
 20
7.0
 30
0.0
  9
$PLIMMIN
 10
0.0
 20
0.0
  9
$PLIMMAX
 10
0.0
 20
0.0
  9
$UNITMODE
 70
     0
  9
$VISRETAIN
 70
     1
  9
$PLINEGEN
 70
     0
  9
$PSLTSCALE
 70
     1
  9
$TREEDEPTH
 70
  3020
  9
$CMLSTYLE
  2
Standard
  9
$CMLJUST
 70
     0
  9
$CMLSCALE
 40
20.0
  9
$PROXYGRAPHICS
 70
     1
  9
$MEASUREMENT
 70
     1
  9
$CELWEIGHT
370
    -1
  9
$ENDCAPS
280
     0
  9
$JOINSTYLE
280
     0
  9
$LWDISPLAY
290
     1
  9
$INSUNITS
 70
     4
  9
$HYPERLINKBASE
  1

  9
$STYLESHEET
  1

  9
$XEDIT
290
     1
  9
$CEPSNTYPE
380
     0
  9
$PSTYLEMODE
290
     1
  9
$FINGERPRINTGUID
  2
{9373A3A6-8DB9-42F8-A3C7-92973557A6C4}
  9
$VERSIONGUID
  2
{FAEB1C32-E019-11D5-929B-00C0DF256EC4}
  9
$EXTNAMES
290
     1
  9
$PSVPSCALE
 40
0.0
  9
$OLESTARTUP
290
     0
  0
ENDSEC
  0
SECTION
  2
CLASSES
  0
CLASS
  1
ACDBDICTIONARYWDFLT
  2
AcDbDictionaryWithDefault
  3
ObjectDBX Classes
 90
        0
280
     0
281
     0
  0
CLASS
  1
VISUALSTYLE
  2
AcDbVisualStyle
  3
ObjectDBX Classes
 90
     4095
280
     0
281
     0
  0
CLASS
  1
MATERIAL
  2
AcDbMaterial
  3
ObjectDBX Classes
 90
     1153
280
     0
281
     0
  0
CLASS
  1
SCALE
  2
AcDbScale
  3
ObjectDBX Classes
 90
     1153
280
     0
281
     0
  0
CLASS
  1
TABLESTYLE
  2
AcDbTableStyle
  3
ObjectDBX Classes
 90
     4095
280
     0
281
     0
  0
CLASS
  1
MLEADERSTYLE
  2
AcDbMLeaderStyle
  3
ACDB_MLEADERSTYLE_CLASS
 90
     4095
280
     0
281
     0
  0
CLASS
  1
SUN
  2
AcDbSun
  3
SCENEOE
 90
     1153
280
     0
281
     0
  0
CLASS
  1
ACDBPLACEHOLDER
  2
AcDbPlaceHolder
  3
ObjectDBX Classes
 90
        0
280
     0
281
     0
  0
CLASS
  1
LAYOUT
  2
AcDbLayout
  3
ObjectDBX Classes
 90
        0
280
     0
281
     0
  0
ENDSEC
  0
SECTION
  2
TABLES
  0
TABLE
  2
VPORT
  5
8
330
0
100
AcDbSymbolTable
 70
     1
  0
VPORT
  5
29
330
8
100
AcDbSymbolTableRecord
100
AcDbViewportTableRecord
  2
*Active
 70
     0
 10
0.0
 20
0.0
 11
1.0
 21
1.0
 12
0.0
 22
-1.0
 13
0.0
 23
0.0
 14
10.0
 24
10.0
 15
10.0
 25
10.0
 16
0.0
 26
0.0
 36
1.0
 17
0.0
 27
0.0
 37
0.0
 40
16.32
 41
1.875
 42
50.0
 43
0.0
 44
0.0
 50
0.0
 51
0.0
 71
     0
 72
   100
 73
     1
 74
     3
 75
     0
 76
     0
 77
     0
 78
     0
281
     0
 65
     1
110
0.0
120
0.0
130
0.0
111
1.0
121
0.0
131
0.0
112
0.0
122
1.0
132
0.0
 79
     0
146
0.0
  0
ENDTAB
  0
TABLE
  2
LTYPE
  5
5
330
0
100
AcDbSymbolTable
 70
     6
  0
LTYPE
  5
14
330
5
100
AcDbSymbolTableRecord
100
AcDbLinetypeTableRecord
  2
ByBlock
 70
     0
  3

 72
    65
 73
     0
 40
0.0
  0
LTYPE
  5
15
330
5
100
AcDbSymbolTableRecord
100
AcDbLinetypeTableRecord
  2
ByLayer
 70
     0
  3

 72
    65
 73
     0
 40
0.0
  0
LTYPE
  5
16
330
5
100
AcDbSymbolTableRecord
100
AcDbLinetypeTableRecord
  2
Continuous
 70
     0
  3
Solid line
 72
    65
 73
     0
 40
0.0
  0
LTYPE
  5
6E
330
5
100
AcDbSymbolTableRecord
100
AcDbLinetypeTableRecord
  2
HIDDEN
 70
     0
  3
Hidden __ __ __ __ __ __ __ __ __ __ __ __ __ __
 72
    65
 73
     2
 40
1.905
 49
1.27
 74
     0
 49
-0.635
 74
     0
  0
LTYPE
  5
6F
330
5
100
AcDbSymbolTableRecord
100
AcDbLinetypeTableRecord
  2
PHANTOM
 70
     0
  3
Phantom ______  __  __  ______  __  __  ______
 72
    65
 73
     6
 40
12.7
 49
6.35
 74
     0
 49
-1.27
 74
     0
 49
1.27
 74
     0
 49
-1.27
 74
     0
 49
1.27
 74
     0
 49
-1.27
 74
     0
  0
LTYPE
  5
70
330
5
100
AcDbSymbolTableRecord
100
AcDbLinetypeTableRecord
  2
CENTER
 70
     0
  3
Center ____ _ ____ _ ____ _ ____ _ ____ _ ____
 72
    65
 73
     4
 40
10.16
 49
6.35
 74
     0
 49
-1.27
 74
     0
 49
1.27
 74
     0
 49
-1.27
 74
     0
  0
LTYPE
  5
71
330
5
100
AcDbSymbolTableRecord
100
AcDbLinetypeTableRecord
  2
CENTERX2
 70
     0
  3
Center (2x) ________  __  ________  __  _____
 72
    65
 73
     4
 40
20.32
 49
12.7
 74
     0
 49
-2.54
 74
     0
 49
2.54
 74
     0
 49
-2.54
 74
     0
  0
LTYPE
  5
72
330
5
100
AcDbSymbolTableRecord
100
AcDbLinetypeTableRecord
  2
DOT2
 70
     0
  3
Dot (.5x) ........................................
 72
    65
 73
     2
 40
0.635
 49
0.0
 74
     0
 49
-0.635
 74
     0
  0
ENDTAB
  0
TABLE
  2
LAYER
  5
2
330
0
100
AcDbSymbolTable
 70
     1
  0
LAYER
  5
10
330
2
100
AcDbSymbolTableRecord
100
AcDbLayerTableRecord
  2
0
 70
     0
 62
     7
  6
Continuous
370
    -3
390
F
  0
ENDTAB
  0
TABLE
  2
STYLE
  5
3
330
0
100
AcDbSymbolTable
 70
     1
  0
STYLE
  5
11
330
3
100
AcDbSymbolTableRecord
100
AcDbTextStyleTableRecord
  2
Standard
 70
     0
 40
0.0
 41
1.0
 50
0.0
 71
     0
 42
3.5
  3
txt
  4

  0
ENDTAB
  0
TABLE
  2
VIEW
  5
6
330
0
100
AcDbSymbolTable
 70
     0
  0
ENDTAB
  0
TABLE
  2
UCS
  5
7
330
0
100
AcDbSymbolTable
 70
     0
  0
ENDTAB
  0
TABLE
  2
APPID
  5
9
330
0
100
AcDbSymbolTable
 70
     1
  0
APPID
  5
12
330
9
100
AcDbSymbolTableRecord
100
AcDbRegAppTableRecord
  2
ACAD
 70
     0
  0
ENDTAB
  0
TABLE
  2
DIMSTYLE
  5
A
330
0
100
AcDbSymbolTable
 70
     1
100
AcDbDimStyleTable
  0
DIMSTYLE
105
27
330
A
100
AcDbSymbolTableRecord
100
AcDbDimStyleTableRecord
  2
ISO-25
 70
     0
 41
2.5
 42
0.625
 43
3.75
 44
1.25
 73
     0
 74
     0
 77
     1
 78
     8
140
2.5
141
2.5
143
0.0393700787
147
0.625
171
     3
172
     1
178
     0
271
     2
272
     2
274
     3
278
    44
283
     0
284
     8
340
11
  0
ENDTAB
  0
TABLE
  2
BLOCK_RECORD
  5
1
330
0
100
AcDbSymbolTable
 70
     2
  0
BLOCK_RECORD
  5
1F
330
1
100
AcDbSymbolTableRecord
100
AcDbBlockTableRecord
  2
*Model_Space
340
22
  0
BLOCK_RECORD
  5
D5
330
1
100
AcDbSymbolTableRecord
100
AcDbBlockTableRecord
  2
*Paper_Space
340
D6
  0
BLOCK_RECORD
  5
1B
330
1
100
AcDbSymbolTableRecord
100
AcDbBlockTableRecord
  2
*Paper_Space0
340
1E
  0
BLOCK_RECORD
  5
23
330
1
100
AcDbSymbolTableRecord
100
AcDbBlockTableRecord
  2
*Paper_Space1
340
26
  0
ENDTAB
  0
ENDSEC
  0
SECTION
  2
BLOCKS
  0
BLOCK
  5
20
330
1F
100
AcDbEntity
  8
0
100
AcDbBlockBegin
  2
*Model_Space
 70
     0
 10
0.0
 20
0.0
 30
0.0
  3
*Model_Space
  1

  0
ENDBLK
  5
21
330
1F
100
AcDbEntity
  8
0
100
AcDbBlockEnd
  0
BLOCK
  5
D7
330
D5
100
AcDbEntity
 67
     1
  8
0
100
AcDbBlockBegin
  2
*Paper_Space
 70
     0
 10
0.0
 20
0.0
 30
0.0
  3
*Paper_Space
  1

  0
ENDBLK
  5
D8
330
D5
100
AcDbEntity
 67
     1
  8
0
100
AcDbBlockEnd
  0
BLOCK
  5
1C
330
1B
100
AcDbEntity
  8
0
100
AcDbBlockBegin
  2
*Paper_Space0
 70
     0
 10
0.0
 20
0.0
 30
0.0
  3
*Paper_Space0
  1

  0
CIRCLE
  5
B1
330
1B
100
AcDbEntity
  8
0
  6
Continuous
 62
     7
370
    15
100
AcDbCircle
 10
18.0
 20
-12.0
 30
0.0
 40
1.249999999999996
  0
CIRCLE
  5
B2
330
1B
100
AcDbEntity
  8
0
  6
Continuous
 62
     7
370
    15
100
AcDbCircle
 10
18.0
 20
10.0
 30
0.0
 40
1.249999999999993
  0
LINE
  5
B4
330
1B
100
AcDbEntity
  8
0
  6
Continuous
 62
     7
370
    15
100
AcDbLine
 10
24.0
 20
-15.0
 30
0.0
 11
-2.0
 21
-15.0
 31
0.0
  0
LINE
  5
B5
330
1B
100
AcDbEntity
  8
0
  6
Continuous
 62
     7
370
    15
100
AcDbLine
 10
-2.0
 20
15.0
 30
0.0
 11
-2.0
 21
-15.0
 31
0.0
  0
LINE
  5
B6
330
1B
100
AcDbEntity
  8
0
  6
Continuous
 62
     7
370
    15
100
AcDbLine
 10
-2.0
 20
15.0
 30
0.0
 11
22.5
 21
15.0
 31
0.0
  0
LINE
  5
B7
330
1B
100
AcDbEntity
  8
0
  6
Continuous
 62
     7
370
    15
100
AcDbLine
 10
0.0
 20
15.0
 30
0.0
 11
0.0
 21
-15.0
 31
0.0
  0
LINE
  5
B8
330
1B
100
AcDbEntity
  8
0
  6
Continuous
 62
     7
370
    15
100
AcDbLine
 10
1.0
 20
-15.0
 30
0.0
 11
1.0
 21
15.0
 31
0.0
  0
LINE
  5
B9
330
1B
100
AcDbEntity
  8
0
  6
Continuous
 62
     7
370
    15
100
AcDbLine
 10
23.4142135624
 20
-1.9142135624
 30
0.0
 11
20.4142135624
 21
1.0857864376
 31
0.0
  0
LINE
  5
BA
330
1B
100
AcDbEntity
  8
0
  6
Continuous
 62
     7
370
    15
100
AcDbLine
 10
24.0
 20
-3.3284271247
 30
0.0
 11
24.0
 21
-15.0
 31
0.0
  0
LINE
  5
BB
330
1B
100
AcDbEntity
  8
0
  6
Continuous
 62
     7
370
    15
100
AcDbLine
 10
24.0
 20
13.5
 30
0.0
 11
22.5
 21
15.0
 31
0.0
  0
LINE
  5
BC
330
1B
100
AcDbEntity
  8
0
  6
Continuous
 62
     7
370
    15
100
AcDbLine
 10
24.0
 20
13.5
 30
0.0
 11
24.0
 21
8.3284271247
 31
0.0
  0
LINE
  5
BD
330
1B
100
AcDbEntity
  8
0
  6
Continuous
 62
     7
370
    15
100
AcDbLine
 10
20.4142135624
 20
3.9142135624
 30
0.0
 11
23.4142135624
 21
6.9142135624
 31
0.0
  0
ARC
  5
BE
330
1B
100
AcDbEntity
  8
0
  6
Continuous
 62
     7
370
    15
100
AcDbCircle
 10
21.8284271247
 20
2.5
 30
0.0
 40
1.999999999999999
100
AcDbArc
 50
135.0
 51
225.0
  0
ARC
  5
BF
330
1B
100
AcDbEntity
  8
0
  6
Continuous
 62
     7
370
    15
100
AcDbCircle
 10
22.0
 20
-3.3284271247
 30
0.0
 40
1.999999999999986
100
AcDbArc
 50
0.0
 51
45.0
  0
ARC
  5
C0
330
1B
100
AcDbEntity
  8
0
  6
Continuous
 62
     7
370
    15
100
AcDbCircle
 10
22.0
 20
8.3284271247
 30
0.0
 40
2.000000000000022
100
AcDbArc
 50
315.0
 51
0.0
  0
VIEWPORT
  5
125
330
1B
100
AcDbEntity
  8
0
100
AcDbViewport
 10
0.0
 20
0.0
 30
0.0
 40
205.6
 41
156.0
 68
     1
 69
     1
 12
0.0
 22
-1.0
 13
0.0
 23
0.0
 14
10.0
 24
10.0
 15
10.0
 25
10.0
 16
0.0
 26
0.0
 36
1.0
 17
0.0
 27
0.0
 37
0.0
 42
50.0
 43
0.0
 44
0.0
 45
23.2178988327
 50
0.0
 51
0.0
 72
   100
 90
   557152
  1

281
     0
 71
     1
 74
     0
110
0.0
120
0.0
130
0.0
111
1.0
121
0.0
131
0.0
112
0.0
122
1.0
132
0.0
 79
     0
146
0.0
  0
ENDBLK
  5
1D
330
1B
100
AcDbEntity
  8
0
100
AcDbBlockEnd
  0
BLOCK
  5
24
330
23
100
AcDbEntity
  8
0
100
AcDbBlockBegin
  2
*Paper_Space1
 70
     0
 10
0.0
 20
0.0
 30
0.0
  3
*Paper_Space1
  1

  0
LINE
  5
CB
330
23
100
AcDbEntity
  8
0
  6
Continuous
 62
     7
370
    15
100
AcDbLine
 10
1.0
 20
-7.0
 30
0.0
 11
1.0
 21
-9.0
 31
0.0
  0
LINE
  5
CC
330
23
100
AcDbEntity
  8
0
  6
Continuous
 62
     7
370
    15
100
AcDbLine
 10
24.0
 20
-9.0
 30
0.0
 11
24.0
 21
-7.0
 31
0.0
  0
LINE
  5
CD
330
23
100
AcDbEntity
  8
0
  6
Continuous
 62
     7
370
    15
100
AcDbLine
 10
24.0
 20
-7.0
 30
0.0
 11
1.0
 21
-7.0
 31
0.0
  0
LINE
  5
CE
330
23
100
AcDbEntity
  8
0
  6
Continuous
 62
     7
370
    15
100
AcDbLine
 10
24.0
 20
-9.0
 30
0.0
 11
1.0
 21
-9.0
 31
0.0
  0
LINE
  5
CF
330
23
100
AcDbEntity
  8
0
  6
Continuous
 62
     7
370
    15
100
AcDbLine
 10
0.0
 20
-6.0
 30
0.0
 11
-2.0
 21
-6.0
 31
0.0
  0
LINE
  5
D0
330
23
100
AcDbEntity
  8
0
  6
Continuous
 62
     7
370
    15
100
AcDbLine
 10
-2.0
 20
7.0
 30
0.0
 11
-2.0
 21
-6.0
 31
0.0
  0
LINE
  5
D1
330
23
100
AcDbEntity
  8
0
  6
Continuous
 62
     7
370
    15
100
AcDbLine
 10
-2.0
 20
7.0
 30
0.0
 11
0.0
 21
7.0
 31
0.0
  0
LINE
  5
D2
330
23
100
AcDbEntity
  8
0
  6
Continuous
 62
     7
370
    15
100
AcDbLine
 10
0.0
 20
7.0
 30
0.0
 11
0.0
 21
-6.0
 31
0.0
  0
ARC
  5
D3
330
23
100
AcDbEntity
  8
0
  6
Continuous
 62
     7
370
    15
100
AcDbCircle
 10
1.0
 20
-6.0
 30
0.0
 40
2.999999999999997
100
AcDbArc
 50
180.0
 51
270.0
  0
ARC
  5
D4
330
23
100
AcDbEntity
  8
0
  6
Continuous
 62
     7
370
    15
100
AcDbCircle
 10
1.0
 20
-6.0
 30
0.0
 40
0.9999999999999991
100
AcDbArc
 50
180.0
 51
270.0
  0
VIEWPORT
  5
127
330
23
100
AcDbEntity
  8
0
100
AcDbViewport
 10
0.0
 20
0.0
 30
0.0
 40
205.6
 41
156.0
 68
     1
 69
     1
 12
0.0
 22
-1.0
 13
0.0
 23
0.0
 14
10.0
 24
10.0
 15
10.0
 25
10.0
 16
0.0
 26
0.0
 36
1.0
 17
0.0
 27
0.0
 37
0.0
 42
50.0
 43
0.0
 44
0.0
 45
23.2178988327
 50
0.0
 51
0.0
 72
   100
 90
   557152
  1

281
     0
 71
     1
 74
     0
110
0.0
120
0.0
130
0.0
111
1.0
121
0.0
131
0.0
112
0.0
122
1.0
132
0.0
 79
     0
146
0.0
  0
ENDBLK
  5
25
330
23
100
AcDbEntity
  8
0
100
AcDbBlockEnd
  0
ENDSEC
  0
SECTION
  2
ENTITIES
  0
CIRCLE
  5
8F
330
1F
100
AcDbEntity
  8
0
  6
Continuous
 62
     7
370
    15
100
AcDbCircle
 10
13.0
 20
-1.3
 30
0.0
 40
1.250000000000007
  0
CIRCLE
  5
90
330
1F
100
AcDbEntity
  8
0
  6
Continuous
 62
     7
370
    15
100
AcDbCircle
 10
-9.0
 20
-1.3
 30
0.0
 40
1.249999999999991
  0
LINE
  5
94
330
1F
100
AcDbEntity
  8
0
  6
Continuous
 62
     7
370
    15
100
AcDbLine
 10
-3.3284271247
 20
-9.0
 30
0.0
 11
-3.3284271247
 21
-7.0
 31
0.0
  0
LINE
  5
95
330
1F
100
AcDbEntity
  8
0
  6
Continuous
 62
     7
370
    15
100
AcDbLine
 10
-1.9142135624
 20
-7.0
 30
0.0
 11
-1.9142135624
 21
-9.0
 31
0.0
  0
LINE
  5
96
330
1F
100
AcDbEntity
  8
0
  6
Continuous
 62
     7
370
    15
100
AcDbLine
 10
-15.0
 20
7.0
 30
0.0
 11
-15.0
 21
-9.0
 31
0.0
  0
LINE
  5
97
330
1F
100
AcDbEntity
  8
0
  6
Continuous
 62
     7
370
    15
100
AcDbLine
 10
13.5
 20
-9.0
 30
0.0
 11
13.5
 21
-7.0
 31
0.0
  0
LINE
  5
98
330
1F
100
AcDbEntity
  8
0
  6
Continuous
 62
     7
370
    15
100
AcDbLine
 10
15.0
 20
-9.0
 30
0.0
 11
-15.0
 21
-9.0
 31
0.0
  0
LINE
  5
99
330
1F
100
AcDbEntity
  8
0
  6
Continuous
 62
     7
370
    15
100
AcDbLine
 10
8.3284271247
 20
-7.0
 30
0.0
 11
8.3284271247
 21
-9.0
 31
0.0
  0
LINE
  5
9A
330
1F
100
AcDbEntity
  8
0
  6
Continuous
 62
     7
370
    15
100
AcDbLine
 10
15.0
 20
-7.0
 30
0.0
 11
-15.0
 21
-7.0
 31
0.0
  0
LINE
  5
9B
330
1F
100
AcDbEntity
  8
0
  6
Continuous
 62
     7
370
    15
100
AcDbLine
 10
15.0
 20
-9.0
 30
0.0
 11
15.0
 21
7.0
 31
0.0
  0
LINE
  5
9C
330
1F
100
AcDbEntity
  8
0
  6
Continuous
 62
     7
370
    15
100
AcDbLine
 10
6.9142135624
 20
-9.0
 30
0.0
 11
6.9142135624
 21
-7.0
 31
0.0
  0
LINE
  5
9D
330
1F
100
AcDbEntity
  8
0
  6
Continuous
 62
     7
370
    15
100
AcDbLine
 10
3.9142135624
 20
-9.0
 30
0.0
 11
3.9142135624
 21
-7.0
 31
0.0
  0
LINE
  5
9E
330
1F
100
AcDbEntity
  8
0
  6
Continuous
 62
     7
370
    15
100
AcDbLine
 10
1.0857864376
 20
-9.0
 30
0.0
 11
1.0857864376
 21
-7.0
 31
0.0
  0
LINE
  5
9F
330
1F
100
AcDbEntity
  8
0
  6
Continuous
 62
     7
370
    15
100
AcDbLine
 10
15.0
 20
-6.0
 30
0.0
 11
-15.0
 21
-6.0
 31
0.0
  0
LINE
  5
A0
330
1F
100
AcDbEntity
  8
0
  6
Continuous
 62
     7
370
    15
100
AcDbLine
 10
15.0
 20
7.0
 30
0.0
 11
-15.0
 21
7.0
 31
0.0
  0
LWPOLYLINE
  5
D9
330
D5
100
AcDbEntity
 67
     1
  8
0
  6
Continuous
 62
     7
370
    15
100
AcDbPolyline
 90
       13
 70
   128
 43
0.0
 10
15.2027957955
 20
-13.6057280299
 10
15.2199060728
 20
-13.4550256962
 10
15.2709441429
 20
-13.3069019211
 10
15.3550367305
 20
-13.1638911437
 10
15.4707449879
 20
-13.0284403178
 10
15.6160891149
 20
-12.9028670448
 10
15.7885822331
 20
-12.7893199181
 10
15.9852729375
 20
-12.6897417605
 10
16.2027957955
 20
-12.605836382
 10
16.4374289308
 20
-12.5390394268
 10
16.6851577053
 20
-12.4904938093
 10
16.9417434111
 20
-12.4610301585
 10
17.2027957955
 20
-12.4511526057
  0
LWPOLYLINE
  5
E4
330
D5
100
AcDbEntity
 67
     1
  8
0
  6
Continuous
 62
     7
370
    15
100
AcDbPolyline
 90
       42
 70
   128
 43
0.0
 10
3.3587572106
 20
-17.4516522907
 10
3.2341917704
 20
-17.535522335
 10
3.133263518
 20
-17.629386483
 10
3.0583381262
 20
-17.7310446385
 10
3.0111717827
 20
-17.8381140206
 10
2.9928700266
 20
-17.9480850136
 10
3.0038618355
 20
-18.0583799907
 10
3.0438895707
 20
-18.1664137311
 10
3.1120150161
 20
-18.2696540156
 10
3.2066413689
 20
-18.3656809793
 10
3.3255506677
 20
-18.4522438315
 10
3.4659557792
 20
-18.5273136125
 10
3.6245657267
 20
-18.5891307502
 10
3.7976628274
 20
-18.6362463032
 10
3.981189832
 20
-18.6675559229
 10
4.1708450231
 20
-18.6823257384
 10
4.3621830436
 20
-18.6802095578
 10
4.5507190927
 20
-18.6612569824
 10
4.732034045
 20
-18.6259122447
 10
4.9018780318
 20
-18.5750037952
 10
5.056270054
 20
-18.509724885
 10
5.1915912935
 20
-18.4316055963
 10
5.304669935
 20
-18.342476979
 10
5.3928555111
 20
-18.2444281324
 10
5.4540810266
 20
-18.1397572384
 10
5.4869114073
 20
-18.030917694
 10
5.4905771369
 20
-17.9204606059
 10
5.4649922938
 20
-17.8109749946
 10
5.4107565651
 20
-17.70502711
 10
5.3291411903
 20
-17.6051002808
 10
5.2220591645
 20
-17.513536707
 10
5.0920203997
 20
-17.4324825614
 10
4.9420728944
 20
-17.3638376844
 10
4.775731291
 20
-17.3092110537
 10
4.5968944956
 20
-17.2698830712
 10
4.4097542912
 20
-17.2467755515
 10
4.2186970856
 20
-17.2404301153
 10
4.0282010977
 20
-17.2509954942
 10
3.842731392
 20
-17.2782240448
 10
3.6666352213
 20
-17.3214775528
 10
3.5040401304
 20
-17.3797421926
 10
3.3587572106
 20
-17.4516522907
  0
LWPOLYLINE
  5
E5
330
D5
100
AcDbEntity
 67
     1
  8
0
  6
Continuous
 62
     7
370
    15
100
AcDbPolyline
 90
       42
 70
   128
 43
0.0
 10
18.9151063967
 20
-8.4711630606
 10
18.7905409565
 20
-8.555033105
 10
18.6896127041
 20
-8.648897253
 10
18.6146873124
 20
-8.7505554085
 10
18.5675209688
 20
-8.8576247905
 10
18.5492192127
 20
-8.9675957835
 10
18.5602110216
 20
-9.0778907607
 10
18.6002387568
 20
-9.1859245011
 10
18.6683642022
 20
-9.2891647855
 10
18.762990555
 20
-9.3851917492
 10
18.8818998538
 20
-9.4717546015
 10
19.0223049653
 20
-9.5468243825
 10
19.1809149128
 20
-9.6086415201
 10
19.3540120135
 20
-9.6557570731
 10
19.5375390181
 20
-9.6870666929
 10
19.7271942092
 20
-9.7018365084
 10
19.9185322297
 20
-9.6997203277
 10
20.1070682788
 20
-9.6807677524
 10
20.2883832311
 20
-9.6454230146
 10
20.4582272179
 20
-9.5945145652
 10
20.6126192401
 20
-9.5292356549
 10
20.7479404796
 20
-9.4511163662
 10
20.8610191211
 20
-9.3619877489
 10
20.9492046972
 20
-9.2639389024
 10
21.0104302127
 20
-9.1592680084
 10
21.0432605934
 20
-9.050428464
 10
21.046926323
 20
-8.9399713759
 10
21.0213414799
 20
-8.8304857645
 10
20.9671057512
 20
-8.7245378799
 10
20.8854903764
 20
-8.6246110507
 10
20.7784083506
 20
-8.533047477
 10
20.6483695858
 20
-8.4519933314
 10
20.4984220805
 20
-8.3833484543
 10
20.3320804771
 20
-8.3287218236
 10
20.1532436817
 20
-8.2893938411
 10
19.9661034773
 20
-8.2662863214
 10
19.7750462717
 20
-8.2599408852
 10
19.5845502838
 20
-8.2705062642
 10
19.3990805781
 20
-8.2977348147
 10
19.2229844074
 20
-8.3409883227
 10
19.0603893165
 20
-8.3992529626
 10
18.9151063967
 20
-8.4711630606
  0
LWPOLYLINE
  5
EF
330
D5
100
AcDbEntity
 67
     1
  8
0
  6
Continuous
 62
     7
370
    15
100
AcDbPolyline
 90
       42
 70
   128
 43
0.0
 10
-5.4800775542
 20
-4.2250844888
 10
-5.490436294
 20
-4.0752589989
 10
-5.5212697132
 20
-3.9409052378
 10
-5.5718551027
 20
-3.8251723439
 10
-5.6410067838
 20
-3.7307729981
 10
-5.7271038996
 20
-3.6599198411
 10
-5.8281284069
 20
-3.6142736107
 10
-5.9417123767
 20
-3.594904216
 10
-6.0651934971
 20
-3.6022656591
 10
-6.1956774752
 20
-3.6361853941
 10
-6.3301058773
 20
-3.6958683711
 10
-6.4653278154
 20
-3.7799156718
 10
-6.598173802
 20
-3.8863572985
 10
-6.7255300398
 20
-4.0126983499
 10
-6.8444114065
 20
-4.1559774987
 10
-6.9520314235
 20
-4.3128364032
 10
-7.045867569
 20
-4.4795984235
 10
-7.1237204032
 20
-4.6523547993
 10
-7.1837651216
 20
-4.8270562675
 10
-7.224594327
 20
-4.9996079738
 10
-7.2452510173
 20
-5.1659654524
 10
-7.2452510173
 20
-5.322229425
 10
-7.224594327
 20
-5.4647371967
 10
-7.1837651216
 20
-5.5901485058
 10
-7.1237204032
 20
-5.6955238178
 10
-7.045867569
 20
-5.7783932245
 10
-6.9520314235
 20
-5.8368143374
 10
-6.8444114065
 20
-5.869417815
 10
-6.7255300398
 20
-5.8754394595
 10
-6.598173802
 20
-5.8547381286
 10
-6.4653278154
 20
-5.807799044
 10
-6.3301058773
 20
-5.7357224181
 10
-6.1956774752
 20
-5.6401976657
 10
-6.0651934971
 20
-5.5234638063
 10
-5.9417123767
 20
-5.3882569825
 10
-5.8281284069
 20
-5.2377463277
 10
-5.7271038996
 20
-5.075459684
 10
-5.6410067838
 20
-4.9052009129
 10
-5.5718551027
 20
-4.7309607356
 10
-5.5212697132
 20
-4.5568231942
 10
-5.490436294
 20
-4.386869925
 10
-5.4800775542
 20
-4.2250844888
  0
LWPOLYLINE
  5
F0
330
D5
100
AcDbEntity
 67
     1
  8
0
  6
Continuous
 62
     7
370
    15
100
AcDbPolyline
 90
       42
 70
   128
 43
0.0
 10
10.0762716319
 20
4.7554047413
 10
10.0659128921
 20
4.9052302312
 10
10.0350794729
 20
5.0395839922
 10
9.9844940834
 20
5.1553168861
 10
9.9153424023
 20
5.2497162319
 10
9.8292452865
 20
5.320569389
 10
9.7282207792
 20
5.3662156193
 10
9.6146368094
 20
5.385585014
 10
9.491155689
 20
5.3782235709
 10
9.3606717109
 20
5.3443038359
 10
9.2262433088
 20
5.2846208589
 10
9.0910213707
 20
5.2005735583
 10
8.9581753841
 20
5.0941319315
 10
8.8308191463
 20
4.9677908802
 10
8.7119377796
 20
4.8245117313
 10
8.6043177626
 20
4.6676528269
 10
8.5104816171
 20
4.5008908065
 10
8.4326287829
 20
4.3281344308
 10
8.3725840645
 20
4.1534329626
 10
8.3317548591
 20
3.9808812563
 10
8.3110981688
 20
3.8145237777
 10
8.3110981688
 20
3.658259805
 10
8.3317548591
 20
3.5157520334
 10
8.3725840645
 20
3.3903407242
 10
8.4326287829
 20
3.2849654123
 10
8.5104816171
 20
3.2020960055
 10
8.6043177626
 20
3.1436748926
 10
8.7119377796
 20
3.111071415
 10
8.8308191463
 20
3.1050497705
 10
8.9581753841
 20
3.1257511014
 10
9.0910213707
 20
3.172690186
 10
9.2262433088
 20
3.244766812
 10
9.3606717109
 20
3.3402915643
 10
9.491155689
 20
3.4570254237
 10
9.6146368094
 20
3.5922322475
 10
9.7282207792
 20
3.7427429023
 10
9.8292452865
 20
3.905029546
 10
9.9153424023
 20
4.0752883172
 10
9.9844940834
 20
4.2495284945
 10
10.0350794729
 20
4.4236660359
 10
10.0659128921
 20
4.593619305
 10
10.0762716319
 20
4.7554047413
  0
LWPOLYLINE
  5
FB
330
D5
100
AcDbEntity
 67
     1
  8
0
  6
Continuous
 62
     7
370
    15
100
AcDbPolyline
 90
       13
 70
   128
 43
0.0
 10
15.2027957955
 20
-15.2388096537
 10
15.2199060728
 20
-15.0881073199
 10
15.2709441429
 20
-14.9399835449
 10
15.3550367305
 20
-14.7969727674
 10
15.4707449879
 20
-14.6615219416
 10
15.6160891149
 20
-14.5359486686
 10
15.7885822331
 20
-14.4224015419
 10
15.9852729375
 20
-14.3228233843
 10
16.2027957955
 20
-14.2389180058
 10
16.4374289308
 20
-14.1721210505
 10
16.6851577053
 20
-14.1235754331
 10
16.9417434111
 20
-14.0941117823
 10
17.2027957955
 20
-14.0842342295
  0
LINE
  5
103
330
D5
100
AcDbEntity
 67
     1
  8
0
  6
Continuous
 62
     7
370
    15
100
AcDbLine
 10
15.2027957955
 20
-17.6880339891
 30
0.0
 11
15.2027957955
 21
-13.6057280299
 31
0.0
  0
LINE
  5
104
330
D5
100
AcDbEntity
 67
     1
  8
0
  6
Continuous
 62
     7
370
    15
100
AcDbLine
 10
14.6170093579
 20
-16.8713604772
 30
0.0
 11
6.3639610307
 21
-21.6357438637
 31
0.0
  0
LINE
  5
105
330
D5
100
AcDbEntity
 67
     1
  8
0
  6
Continuous
 62
     7
370
    15
100
AcDbLine
 10
6.3639610307
 20
-21.6357438637
 30
0.0
 11
-9.8994949366
 21
-12.2470505778
 31
0.0
  0
LINE
  5
106
330
D5
100
AcDbEntity
 67
     1
  8
0
  6
Continuous
 62
     7
370
    15
100
AcDbLine
 10
-9.8994949366
 20
-12.2470505778
 30
0.0
 11
11.313708499
 21
-0.0009289004
 31
0.0
  0
LINE
  5
107
330
D5
100
AcDbEntity
 67
     1
  8
0
  6
Continuous
 62
     7
370
    15
100
AcDbLine
 10
11.313708499
 20
-0.0009289004
 30
0.0
 11
26.5165042945
 21
-8.7773161025
 31
0.0
  0
LINE
  5
108
330
D5
100
AcDbEntity
 67
     1
  8
0
  6
Continuous
 62
     7
370
    15
100
AcDbLine
 10
26.5165042945
 20
-11.635009894
 30
0.0
 11
26.5165042945
 21
-8.7773161025
 31
0.0
  0
LINE
  5
109
330
D5
100
AcDbEntity
 67
     1
  8
0
  6
Continuous
 62
     7
370
    15
100
AcDbLine
 10
26.5165042945
 20
-10.0019282703
 30
0.0
 11
22.859650045
 21
-12.1129852934
 31
0.0
  0
LINE
  5
10A
330
D5
100
AcDbEntity
 67
     1
  8
0
  6
Continuous
 62
     7
370
    15
100
AcDbLine
 10
17.2027957955
 20
-12.4511526057
 30
0.0
 11
21.4454364826
 21
-12.4511526057
 31
0.0
  0
LINE
  5
10B
330
D5
100
AcDbEntity
 67
     1
  8
0
  6
Continuous
 62
     7
370
    15
100
AcDbLine
 10
6.3639610307
 20
-23.2688254875
 30
0.0
 11
6.3639610307
 21
-21.6357438637
 31
0.0
  0
LINE
  5
10C
330
D5
100
AcDbEntity
 67
     1
  8
0
  6
Continuous
 62
     7
370
    15
100
AcDbLine
 10
6.3639610307
 20
-23.2688254875
 30
0.0
 11
-9.8994949366
 21
-13.8801322016
 31
0.0
  0
LINE
  5
10D
330
D5
100
AcDbEntity
 67
     1
  8
0
  6
Continuous
 62
     7
370
    15
100
AcDbLine
 10
-9.8994949366
 20
-12.2470505778
 30
0.0
 11
-9.8994949366
 21
-13.8801322016
 31
0.0
  0
LINE
  5
10E
330
D5
100
AcDbEntity
 67
     1
  8
0
  6
Continuous
 62
     7
370
    15
100
AcDbLine
 10
14.6170093579
 20
-18.504442101
 30
0.0
 11
14.6170093579
 21
-16.8713604772
 31
0.0
  0
LINE
  5
10F
330
D5
100
AcDbEntity
 67
     1
  8
0
  6
Continuous
 62
     7
370
    15
100
AcDbLine
 10
14.6170093579
 20
-18.504442101
 30
0.0
 11
6.3639610307
 21
-23.2688254875
 31
0.0
  0
LINE
  5
110
330
D5
100
AcDbEntity
 67
     1
  8
0
  6
Continuous
 62
     7
370
    15
100
AcDbLine
 10
10.6066017178
 20
11.8388465219
 30
0.0
 11
-10.6066017178
 21
-0.4072751555
 31
0.0
  0
LINE
  5
111
330
D5
100
AcDbEntity
 67
     1
  8
0
  6
Continuous
 62
     7
370
    15
100
AcDbLine
 10
10.6066017178
 20
1.2238159674
 30
0.0
 11
10.6066017178
 21
11.8388465219
 31
0.0
  0
LINE
  5
112
330
D5
100
AcDbEntity
 67
     1
  8
0
  6
Continuous
 62
     7
370
    15
100
AcDbLine
 10
10.6066017178
 20
1.2238159674
 30
0.0
 11
-10.6066017178
 21
-11.02230571
 31
0.0
  0
LINE
  5
113
330
D5
100
AcDbEntity
 67
     1
  8
0
  6
Continuous
 62
     7
370
    15
100
AcDbLine
 10
-10.6066017178
 20
-0.4072751555
 30
0.0
 11
-10.6066017178
 21
-11.02230571
 31
0.0
  0
LINE
  5
114
330
D5
100
AcDbEntity
 67
     1
  8
0
  6
Continuous
 62
     7
370
    15
100
AcDbLine
 10
-12.0208152802
 20
0.4091329564
 30
0.0
 11
-10.6066017178
 21
-0.4072751555
 31
0.0
  0
LINE
  5
115
330
D5
100
AcDbEntity
 67
     1
  8
0
  6
Continuous
 62
     7
370
    15
100
AcDbLine
 10
9.1923881554
 20
12.6552546337
 30
0.0
 11
-12.0208152802
 21
0.4091329564
 31
0.0
  0
LINE
  5
116
330
D5
100
AcDbEntity
 67
     1
  8
0
  6
Continuous
 62
     7
370
    15
100
AcDbLine
 10
9.1923881554
 20
12.6552546337
 30
0.0
 11
10.6066017178
 21
11.8388465219
 31
0.0
  0
LINE
  5
117
330
D5
100
AcDbEntity
 67
     1
  8
0
  6
Continuous
 62
     7
370
    15
100
AcDbLine
 10
-12.0208152802
 20
0.4091329564
 30
0.0
 11
-12.0208152802
 21
-10.2058975982
 31
0.0
  0
LINE
  5
118
330
D5
100
AcDbEntity
 67
     1
  8
0
  6
Continuous
 62
     7
370
    15
100
AcDbLine
 10
-10.6066017178
 20
-11.02230571
 30
0.0
 11
-12.0208152802
 21
-10.2058975982
 31
0.0
  0
LINE
  5
119
330
D5
100
AcDbEntity
 67
     1
  8
0
  6
Continuous
 62
     7
370
    15
100
AcDbLine
 10
17.2027957955
 20
-14.0842342295
 30
0.0
 11
17.2027957955
 21
-12.4511526057
 31
0.0
  0
LINE
  5
11A
330
D5
100
AcDbEntity
 67
     1
  8
0
  6
Continuous
 62
     7
370
    15
100
AcDbLine
 10
21.4454364826
 20
-14.0842342295
 30
0.0
 11
21.4454364826
 21
-12.4511526057
 31
0.0
  0
LINE
  5
11B
330
D5
100
AcDbEntity
 67
     1
  8
0
  6
Continuous
 62
     7
370
    15
100
AcDbLine
 10
17.2027957955
 20
-14.0842342295
 30
0.0
 11
21.4454364826
 21
-14.0842342295
 31
0.0
  0
LINE
  5
11C
330
D5
100
AcDbEntity
 67
     1
  8
0
  6
Continuous
 62
     7
370
    15
100
AcDbLine
 10
22.859650045
 20
-12.1129852934
 30
0.0
 11
22.859650045
 21
-13.7460669172
 31
0.0
  0
LINE
  5
11D
330
D5
100
AcDbEntity
 67
     1
  8
0
  6
Continuous
 62
     7
370
    15
100
AcDbLine
 10
26.5165042945
 20
-11.635009894
 30
0.0
 11
22.859650045
 21
-13.7460669172
 31
0.0
  0
ARC
  5
11E
330
D5
100
AcDbEntity
 67
     1
  8
0
  6
Continuous
 62
     7
370
    15
100
AcDbCircle
 10
14.2018816705
 20
-15.9551396116
 30
0.0
 40
1.005878556987551
100
AcDbArc
 50
294.3746582936
 51
354.3052007488
  0
ARC
  5
11F
330
D5
100
AcDbEntity
 67
     1
  8
0
  6
Continuous
 62
     7
370
    15
100
AcDbCircle
 10
21.5030571589
 20
-9.5659221648
 30
0.0
 40
2.885805752203815
100
AcDbArc
 50
268.8559032542
 51
298.0402391154
  0
ARC
  5
120
330
D5
100
AcDbEntity
 67
     1
  8
0
  6
Continuous
 62
     7
370
    15
100
AcDbCircle
 10
14.2018816705
 20
-17.5882212354
 30
0.0
 40
1.005878556987543
100
AcDbArc
 50
294.3746582936
 51
354.3052007488
  0
ARC
  5
121
330
D5
100
AcDbEntity
 67
     1
  8
0
  6
Continuous
 62
     7
370
    15
100
AcDbCircle
 10
21.5030571589
 20
-11.1990037886
 30
0.0
 40
2.88580575220373
100
AcDbArc
 50
268.8559032542
 51
298.0402391154
  0
ARC
  5
122
330
D5
100
AcDbEntity
 67
     1
  8
0
  6
Continuous
 62
     7
370
    15
100
AcDbCircle
 10
-7.4274489586
 20
-10.0034060473
 30
0.0
 40
4.597827420881139
100
AcDbArc
 50
182.5241628152
 51
237.4758373305
  0
ARC
  5
123
330
D5
100
AcDbEntity
 67
     1
  8
0
  6
Continuous
 62
     7
370
    15
100
AcDbCircle
 10
-9.0778787391
 20
-10.9561936639
 30
0.0
 40
1.530151870927378
100
AcDbArc
 50
182.476303705
 51
237.5236964406
  0
ARC
  5
124
330
D5
100
AcDbEntity
 67
     1
  8
0
  6
Continuous
 62
     7
370
    15
100
AcDbCircle
 10
12.1353294177
 20
1.2899307393
 30
0.0
 40
1.530156705534076
100
AcDbArc
 50
182.4763980378
 51
237.5236021078
  0
VIEWPORT
  5
129
330
D5
100
AcDbEntity
 67
     1
  8
0
100
AcDbViewport
 10
0.0
 20
0.0
 30
0.0
 40
205.6
 41
156.0
 68
     1
 69
     1
 12
0.0
 22
-1.0
 13
0.0
 23
0.0
 14
10.0
 24
10.0
 15
10.0
 25
10.0
 16
0.0
 26
0.0
 36
1.0
 17
0.0
 27
0.0
 37
0.0
 42
50.0
 43
0.0
 44
0.0
 45
23.2178988327
 50
0.0
 51
0.0
 72
   100
 90
   557152
  1

281
     0
 71
     1
 74
     0
110
0.0
120
0.0
130
0.0
111
1.0
121
0.0
131
0.0
112
0.0
122
1.0
132
0.0
 79
     0
146
0.0
  0
ENDSEC
  0
SECTION
  2
OBJECTS
  0
DICTIONARY
  5
C
330
0
100
AcDbDictionary
281
     1
  3
ACAD_GROUP
350
D
  3
ACAD_LAYOUT
350
1A
  3
ACAD_MLINESTYLE
350
17
  3
ACAD_PLOTSETTINGS
350
19
  3
ACAD_PLOTSTYLENAME
350
E
  3
ACAD_SCALELIST
350
47
  0
DICTIONARY
  5
D
102
{ACAD_REACTORS
330
C
102
}
330
C
100
AcDbDictionary
281
     1
  0
DICTIONARY
  5
1A
102
{ACAD_REACTORS
330
C
102
}
330
C
100
AcDbDictionary
281
     1
  3
_Frontal
350
26
  3
_Isométrica
350
D6
  3
_Superior
350
1E
  3
Model
350
22
  0
DICTIONARY
  5
17
102
{ACAD_REACTORS
330
C
102
}
330
C
100
AcDbDictionary
281
     1
  3
Standard
350
18
  0
DICTIONARY
  5
19
102
{ACAD_REACTORS
330
C
102
}
330
C
100
AcDbDictionary
281
     1
  0
ACDBDICTIONARYWDFLT
  5
E
102
{ACAD_REACTORS
330
C
102
}
330
C
100
AcDbDictionary
281
     1
  3
Normal
350
F
100
AcDbDictionaryWithDefault
340
F
  0
DICTIONARY
  5
47
102
{ACAD_REACTORS
330
C
102
}
330
C
100
AcDbDictionary
281
     1
  3
A0
350
48
  3
A1
350
49
  3
A2
350
4A
  3
A3
350
4B
  3
A4
350
4C
  3
A5
350
4D
  3
A6
350
4E
  3
A7
350
4F
  3
A8
350
50
  3
A9
350
51
  3
B0
350
52
  3
B1
350
53
  3
B2
350
54
  3
B3
350
55
  3
B4
350
56
  3
B5
350
57
  3
B6
350
58
  3
B7
350
59
  3
B8
350
5A
  3
B9
350
5B
  3
C0
350
5C
  3
C1
350
5D
  3
C2
350
5E
  3
C3
350
5F
  3
C4
350
60
  3
C5
350
61
  3
C6
350
62
  3
C7
350
63
  3
C8
350
64
  3
C9
350
65
  3
D0
350
66
  3
D1
350
67
  3
D2
350
68
  0
LAYOUT
  5
26
102
{ACAD_REACTORS
330
1A
102
}
330
1A
100
AcDbPlotSettings
  1

  2
none_device
  4
ISO_A4_(210.00_x_297.00_MM)
  6

 40
7.5
 41
20.0
 42
7.5
 43
20.0
 44
210.0
 45
297.0
 46
0.0
 47
0.0
 48
0.0
 49
0.0
140
0.0
141
0.0
142
1.0
143
0.1538461538
 70
   688
 72
     1
 73
     1
 74
     1
  7

 75
     0
147
6.5
148
2.0
149
15.0
100
AcDbLayout
  1
_Frontal
 70
     1
 71
     2
 10
0.0
 20
0.0
 11
0.0
 21
0.0
 12
0.0
 22
0.0
 32
0.0
 14
0.0
 24
0.0
 34
0.0
 15
0.0
 25
0.0
 35
0.0
146
0.0
 13
0.0
 23
0.0
 33
0.0
 16
1.0
 26
0.0
 36
0.0
 17
0.0
 27
1.0
 37
0.0
 76
     0
330
23
331
127
  0
LAYOUT
  5
D6
102
{ACAD_REACTORS
330
1A
102
}
330
1A
100
AcDbPlotSettings
  1

  2
none_device
  4
ANSI_A_(11.00_x_8.50_Inches)
  6

 40
6.35
 41
19.05
 42
6.35000508
 43
19.05000254
 44
279.4
 45
215.9
 46
133.34999746
 47
98.12019873
 48
0.0
 49
0.0
140
0.0
141
0.0
142
0.363
143
1.0
 70
  1696
 72
     0
 73
     0
 74
     1
  7

 75
     0
147
0.3499999933
148
381.0
149
228.6
100
AcDbLayout
  1
_Isométrica
 70
     1
 71
     3
 10
0.0
 20
0.0
 11
0.0
 21
0.0
 12
0.0
 22
0.0
 32
0.0
 14
-15.0
 24
-9.0
 34
0.0
 15
15.0
 25
7.0
 35
0.0
146
0.0
 13
0.0
 23
0.0
 33
0.0
 16
1.0
 26
0.0
 36
0.0
 17
0.0
 27
1.0
 37
0.0
 76
     0
330
D5
331
129
  0
LAYOUT
  5
1E
102
{ACAD_REACTORS
330
1A
102
}
330
1A
100
AcDbPlotSettings
  1

  2
none_device
  4
ISO_A4_(210.00_x_297.00_MM)
  6

 40
7.5
 41
20.0
 42
7.5
 43
20.0
 44
210.0
 45
297.0
 46
0.0
 47
0.0
 48
0.0
 49
0.0
140
0.0
141
0.0
142
1.0
143
0.1538461538
 70
   688
 72
     1
 73
     1
 74
     1
  7

 75
     0
147
6.5
148
2.0
149
15.0
100
AcDbLayout
  1
_Superior
 70
     1
 71
     1
 10
-5.0769230769
 20
-16.1538461538
 11
40.6153846154
 21
16.1538461538
 12
0.0
 22
0.0
 32
0.0
 14
1.0000000000E+20
 24
1.0000000000E+20
 34
1.0000000000E+20
 15
-1.0000000000E+20
 25
-1.0000000000E+20
 35
-1.0000000000E+20
146
0.0
 13
0.0
 23
0.0
 33
0.0
 16
1.0
 26
0.0
 36
0.0
 17
0.0
 27
1.0
 37
0.0
 76
     0
330
1B
331
125
  0
LAYOUT
  5
22
102
{ACAD_REACTORS
330
1A
102
}
330
1A
100
AcDbPlotSettings
  1

  2
none_device
  4
Letter_(8.50_x_11.00_Inches)
  6

 40
6.35
 41
6.35
 42
6.35000508
 43
6.35000508
 44
215.9
 45
279.4
 46
0.0
 47
0.0
 48
0.0
 49
0.0
140
0.0
141
0.0
142
1.0
143
1.0
 70
  1712
 72
     1
 73
     0
 74
     0
  7

 75
     0
147
1.0
148
0.0
149
0.0
100
AcDbLayout
  1
Model
 70
     1
 71
     0
 10
0.0
 20
0.0
 11
420.0
 21
297.0
 12
0.0
 22
0.0
 32
0.0
 14
-15.0
 24
-9.0
 34
0.0
 15
15.0
 25
7.0
 35
0.0
146
0.0
 13
0.0
 23
0.0
 33
0.0
 16
1.0
 26
0.0
 36
0.0
 17
0.0
 27
1.0
 37
0.0
 76
     0
330
1F
331
29
  0
MLINESTYLE
  5
18
102
{ACAD_REACTORS
330
17
102
}
330
17
100
AcDbMlineStyle
  2
Standard
 70
     0
  3

 62
   256
 51
90.0
 52
90.0
 71
     2
 49
0.5
 62
   256
  6
BYLAYER
 49
-0.5
 62
   256
  6
BYLAYER
  0
ACDBPLACEHOLDER
  5
F
102
{ACAD_REACTORS
330
E
102
}
330
E
  0
SCALE
  5
48
102
{ACAD_REACTORS
330
47
102
}
330
47
100
AcDbScale
 70
     0
300
1:1
140
1.0
141
1.0
290
     1
  0
SCALE
  5
49
102
{ACAD_REACTORS
330
47
102
}
330
47
100
AcDbScale
 70
     0
300
1:2
140
1.0
141
2.0
290
     0
  0
SCALE
  5
4A
102
{ACAD_REACTORS
330
47
102
}
330
47
100
AcDbScale
 70
     0
300
1:4
140
1.0
141
4.0
290
     0
  0
SCALE
  5
4B
102
{ACAD_REACTORS
330
47
102
}
330
47
100
AcDbScale
 70
     0
300
1:5
140
1.0
141
5.0
290
     0
  0
SCALE
  5
4C
102
{ACAD_REACTORS
330
47
102
}
330
47
100
AcDbScale
 70
     0
300
1:8
140
1.0
141
8.0
290
     0
  0
SCALE
  5
4D
102
{ACAD_REACTORS
330
47
102
}
330
47
100
AcDbScale
 70
     0
300
1:10
140
1.0
141
10.0
290
     0
  0
SCALE
  5
4E
102
{ACAD_REACTORS
330
47
102
}
330
47
100
AcDbScale
 70
     0
300
1:16
140
1.0
141
16.0
290
     0
  0
SCALE
  5
4F
102
{ACAD_REACTORS
330
47
102
}
330
47
100
AcDbScale
 70
     0
300
1:20
140
1.0
141
20.0
290
     0
  0
SCALE
  5
50
102
{ACAD_REACTORS
330
47
102
}
330
47
100
AcDbScale
 70
     0
300
1:30
140
1.0
141
30.0
290
     0
  0
SCALE
  5
51
102
{ACAD_REACTORS
330
47
102
}
330
47
100
AcDbScale
 70
     0
300
1:40
140
1.0
141
40.0
290
     0
  0
SCALE
  5
52
102
{ACAD_REACTORS
330
47
102
}
330
47
100
AcDbScale
 70
     0
300
1:50
140
1.0
141
50.0
290
     0
  0
SCALE
  5
53
102
{ACAD_REACTORS
330
47
102
}
330
47
100
AcDbScale
 70
     0
300
1:100
140
1.0
141
100.0
290
     0
  0
SCALE
  5
54
102
{ACAD_REACTORS
330
47
102
}
330
47
100
AcDbScale
 70
     0
300
2:1
140
2.0
141
1.0
290
     0
  0
SCALE
  5
55
102
{ACAD_REACTORS
330
47
102
}
330
47
100
AcDbScale
 70
     0
300
4:1
140
4.0
141
1.0
290
     0
  0
SCALE
  5
56
102
{ACAD_REACTORS
330
47
102
}
330
47
100
AcDbScale
 70
     0
300
8:1
140
8.0
141
1.0
290
     0
  0
SCALE
  5
57
102
{ACAD_REACTORS
330
47
102
}
330
47
100
AcDbScale
 70
     0
300
10:1
140
10.0
141
1.0
290
     0
  0
SCALE
  5
58
102
{ACAD_REACTORS
330
47
102
}
330
47
100
AcDbScale
 70
     0
300
100:1
140
100.0
141
1.0
290
     0
  0
SCALE
  5
59
102
{ACAD_REACTORS
330
47
102
}
330
47
100
AcDbScale
 70
     0
300
1/128" = 1'-0"
140
0.0078125
141
12.0
290
     0
  0
SCALE
  5
5A
102
{ACAD_REACTORS
330
47
102
}
330
47
100
AcDbScale
 70
     0
300
1/64" = 1'-0"
140
0.015625
141
12.0
290
     0
  0
SCALE
  5
5B
102
{ACAD_REACTORS
330
47
102
}
330
47
100
AcDbScale
 70
     0
300
1/32" = 1'-0"
140
0.03125
141
12.0
290
     0
  0
SCALE
  5
5C
102
{ACAD_REACTORS
330
47
102
}
330
47
100
AcDbScale
 70
     0
300
1/16" = 1'-0"
140
0.0625
141
12.0
290
     0
  0
SCALE
  5
5D
102
{ACAD_REACTORS
330
47
102
}
330
47
100
AcDbScale
 70
     0
300
3/32" = 1'-0"
140
0.09375
141
12.0
290
     0
  0
SCALE
  5
5E
102
{ACAD_REACTORS
330
47
102
}
330
47
100
AcDbScale
 70
     0
300
1/8" = 1'-0"
140
0.125
141
12.0
290
     0
  0
SCALE
  5
5F
102
{ACAD_REACTORS
330
47
102
}
330
47
100
AcDbScale
 70
     0
300
3/16" = 1'-0"
140
0.1875
141
12.0
290
     0
  0
SCALE
  5
60
102
{ACAD_REACTORS
330
47
102
}
330
47
100
AcDbScale
 70
     0
300
1/4" = 1'-0"
140
0.25
141
12.0
290
     0
  0
SCALE
  5
61
102
{ACAD_REACTORS
330
47
102
}
330
47
100
AcDbScale
 70
     0
300
3/8" = 1'-0"
140
0.375
141
12.0
290
     0
  0
SCALE
  5
62
102
{ACAD_REACTORS
330
47
102
}
330
47
100
AcDbScale
 70
     0
300
1/2" = 1'-0"
140
0.5
141
12.0
290
     0
  0
SCALE
  5
63
102
{ACAD_REACTORS
330
47
102
}
330
47
100
AcDbScale
 70
     0
300
3/4" = 1'-0"
140
0.75
141
12.0
290
     0
  0
SCALE
  5
64
102
{ACAD_REACTORS
330
47
102
}
330
47
100
AcDbScale
 70
     0
300
1" = 1'-0"
140
1.0
141
12.0
290
     0
  0
SCALE
  5
65
102
{ACAD_REACTORS
330
47
102
}
330
47
100
AcDbScale
 70
     0
300
1-1/2" = 1'-0"
140
1.5
141
12.0
290
     0
  0
SCALE
  5
66
102
{ACAD_REACTORS
330
47
102
}
330
47
100
AcDbScale
 70
     0
300
3" = 1'-0"
140
3.0
141
12.0
290
     0
  0
SCALE
  5
67
102
{ACAD_REACTORS
330
47
102
}
330
47
100
AcDbScale
 70
     0
300
6" = 1'-0"
140
6.0
141
12.0
290
     0
  0
SCALE
  5
68
102
{ACAD_REACTORS
330
47
102
}
330
47
100
AcDbScale
 70
     0
300
1'-0" = 1'-0"
140
12.0
141
12.0
290
     0
  0
ENDSEC
  0
EOF
