  0
SECTION
  2
HEADER
  9
$ACADVER
  1
AC1015
  9
$ACADMAINTVER
 70
     6
  9
$DWGCODEPAGE
  3
ANSI_1252
  9
$INSBASE
 10
0.0
 20
0.0
 30
0.0
  9
$EXTMIN
 10
-15.0
 20
-9.0
 30
0.0
  9
$EXTMAX
 10
15.0
 20
7.0
 30
0.0
  9
$LIMMIN
 10
0.0
 20
0.0
  9
$LIMMAX
 10
420.0
 20
297.0
  9
$ORTHOMODE
 70
     0
  9
$REGENMODE
 70
     1
  9
$FILLMODE
 70
     1
  9
$QTEXTMODE
 70
     0
  9
$MIRRTEXT
 70
     1
  9
$LTSCALE
 40
1.0
  9
$ATTMODE
 70
     1
  9
$TEXTSIZE
 40
3.5
  9
$TRACEWID
 40
1.0
  9
$TEXTSTYLE
  7
Standard
  9
$CLAYER
  8
0
  9
$CELTYPE
  6
ByLayer
  9
$CECOLOR
 62
   256
  9
$CELTSCALE
 40
1.0
  9
$DISPSILH
 70
     0
  9
$DIMSCALE
 40
1.0
  9
$DIMASZ
 40
3.302
  9
$DIMEXO
 40
1.0
  9
$DIMDLI
 40
3.75
  9
$DIMRND
 40
0.0
  9
$DIMDLE
 40
0.0
  9
$DIMEXE
 40
1.0
  9
$DIMTP
 40
0.0
  9
$DIMTM
 40
0.0
  9
$DIMTXT
 40
3.5
  9
$DIMCEN
 40
2.5
  9
$DIMTSZ
 40
0.0
  9
$DIMTOL
 70
     0
  9
$DIMLIM
 70
     0
  9
$DIMTIH
 70
     1
  9
$DIMTOH
 70
     1
  9
$DIMSE1
 70
     0
  9
$DIMSE2
 70
     0
  9
$DIMTAD
 70
     1
  9
$DIMZIN
 70
     0
  9
$DIMBLK
  1

  9
$DIMASO
 70
     1
  9
$DIMSHO
 70
     1
  9
$DIMPOST
  1

  9
$DIMAPOST
  1

  9
$DIMALT
 70
     0
  9
$DIMALTD
 70
     3
  9
$DIMALTF
 40
0.0393700787
  9
$DIMLFAC
 40
1.0
  9
$DIMTOFL
 70
     1
  9
$DIMTVP
 40
0.0
  9
$DIMTIX
 70
     0
  9
$DIMSOXD
 70
     0
  9
$DIMSAH
 70
     0
  9
$DIMBLK1
  1

  9
$DIMBLK2
  1

  9
$DIMSTYLE
  2
ISO-25
  9
$DIMCLRD
 70
     0
  9
$DIMCLRE
 70
     0
  9
$DIMCLRT
 70
     0
  9
$DIMTFAC
 40
1.0
  9
$DIMGAP
 40
1.524
  9
$DIMJUST
 70
     0
  9
$DIMSD1
 70
     0
  9
$DIMSD2
 70
     0
  9
$DIMTOLJ
 70
     0
  9
$DIMTZIN
 70
     0
  9
$DIMALTZ
 70
     0
  9
$DIMALTTZ
 70
     0
  9
$DIMUPT
 70
     0
  9
$DIMDEC
 70
     2
  9
$DIMTDEC
 70
     2
  9
$DIMALTU
 70
     2
  9
$DIMALTTD
 70
     3
  9
$DIMTXSTY
  7
Standard
  9
$DIMAUNIT
 70
     0
  9
$DIMADEC
 70
     2
  9
$DIMALTRND
 40
0.0
  9
$DIMAZIN
 70
     0
  9
$DIMDSEP
 70
    44
  9
$DIMATFIT
 70
     3
  9
$DIMFRAC
 70
     0
  9
$DIMLDRBLK
  1

  9
$DIMLUNIT
 70
     2
  9
$DIMLWD
 70
    -2
  9
$DIMLWE
 70
    -2
  9
$DIMTMOVE
 70
     0
  9
$LUNITS
 70
     2
  9
$LUPREC
 70
     2
  9
$SKETCHINC
 40
1.0
  9
$FILLETRAD
 40
10.0
  9
$AUNITS
 70
     0
  9
$AUPREC
 70
     2
  9
$MENU
  1
.
  9
$ELEVATION
 40
0.0
  9
$PELEVATION
 40
0.0
  9
$THICKNESS
 40
0.0
  9
$LIMCHECK
 70
     0
  9
$CHAMFERA
 40
0.0
  9
$CHAMFERB
 40
0.0
  9
$CHAMFERC
 40
0.0
  9
$CHAMFERD
 40
0.0
  9
$SKPOLY
 70
     0
  9
$TDCREATE
 40
2458586.660109838
  9
$TDUCREATE
 40
2458586.785109838
  9
$TDUPDATE
 40
2458586.66511559
  9
$TDUUPDATE
 40
2458586.79011559
  9
$TDINDWG
 40
0.0000000116
  9
$TDUSRTIMER
 40
0.0000000116
  9
$USRTIMER
 70
     1
  9
$ANGBASE
 50
0.0
  9
$ANGDIR
 70
     0
  9
$PDMODE
 70
     0
  9
$PDSIZE
 40
-1.0
  9
$PLINEWID
 40
0.0
  9
$SPLFRAME
 70
     0
  9
$SPLINETYPE
 70
     6
  9
$SPLINESEGS
 70
     8
  9
$HANDSEED
  5
134
  9
$SURFTAB1
 70
     6
  9
$SURFTAB2
 70
     6
  9
$SURFTYPE
 70
     6
  9
$SURFU
 70
     6
  9
$SURFV
 70
     6
  9
$UCSBASE
  2

  9
$UCSNAME
  2

  9
$UCSORG
 10
0.0
 20
0.0
 30
0.0
  9
$UCSXDIR
 10
1.0
 20
0.0
 30
0.0
  9
$UCSYDIR
 10
0.0
 20
1.0
 30
0.0
  9
$UCSORTHOREF
  2

  9
$UCSORTHOVIEW
 70
     0
  9
$UCSORGTOP
 10
0.0
 20
0.0
 30
0.0
  9
$UCSORGBOTTOM
 10
0.0
 20
0.0
 30
0.0
  9
$UCSORGLEFT
 10
0.0
 20
0.0
 30
0.0
  9
$UCSORGRIGHT
 10
0.0
 20
0.0
 30
0.0
  9
$UCSORGFRONT
 10
0.0
 20
0.0
 30
0.0
  9
$UCSORGBACK
 10
0.0
 20
0.0
 30
0.0
  9
$PUCSBASE
  2

  9
$PUCSNAME
  2

  9
$PUCSORG
 10
0.0
 20
0.0
 30
0.0
  9
$PUCSXDIR
 10
1.0
 20
0.0
 30
0.0
  9
$PUCSYDIR
 10
0.0
 20
1.0
 30
0.0
  9
$PUCSORTHOREF
  2

  9
$PUCSORTHOVIEW
 70
     0
  9
$PUCSORGTOP
 10
0.0
 20
0.0
 30
0.0
  9
$PUCSORGBOTTOM
 10
0.0
 20
0.0
 30
0.0
  9
$PUCSORGLEFT
 10
0.0
 20
0.0
 30
0.0
  9
$PUCSORGRIGHT
 10
0.0
 20
0.0
 30
0.0
  9
$PUCSORGFRONT
 10
0.0
 20
0.0
 30
0.0
  9
$PUCSORGBACK
 10
0.0
 20
0.0
 30
0.0
  9
$USERI1
 70
     0
  9
$USERI2
 70
     0
  9
$USERI3
 70
     0
  9
$USERI4
 70
     0
  9
$USERI5
 70
     0
  9
$USERR1
 40
0.0
  9
$USERR2
 40
0.0
  9
$USERR3
 40
0.0
  9
$USERR4
 40
0.0
  9
$USERR5
 40
0.0
  9
$WORLDVIEW
 70
     1
  9
$SHADEDGE
 70
     3
  9
$SHADEDIF
 70
    70
  9
$TILEMODE
 70
     0
  9
$MAXACTVP
 70
    64
  9
$PINSBASE
 10
0.0
 20
0.0
 30
0.0
  9
$PLIMCHECK
 70
     0
  9
$PEXTMIN
 10
-15.0
 20
-9.0
 30
0.0
  9
$PEXTMAX
 10
15.0
 20
7.0
 30
0.0
  9
$PLIMMIN
 10
0.0
 20
0.0
  9
$PLIMMAX
 10
0.0
 20
0.0
  9
$UNITMODE
 70
     0
  9
$VISRETAIN
 70
     1
  9
$PLINEGEN
 70
     0
  9
$PSLTSCALE
 70
     1
  9
$TREEDEPTH
 70
  3020
  9
$CMLSTYLE
  2
Standard
  9
$CMLJUST
 70
     0
  9
$CMLSCALE
 40
20.0
  9
$PROXYGRAPHICS
 70
     1
  9
$MEASUREMENT
 70
     1
  9
$CELWEIGHT
370
    -1
  9
$ENDCAPS
280
     0
  9
$JOINSTYLE
280
     0
  9
$LWDISPLAY
290
     1
  9
$INSUNITS
 70
     4
  9
$HYPERLINKBASE
  1

  9
$STYLESHEET
  1

  9
$XEDIT
290
     1
  9
$CEPSNTYPE
380
     0
  9
$PSTYLEMODE
290
     1
  9
$FINGERPRINTGUID
  2
{90B6C215-AC67-4532-BDF2-913F9E6098E6}
  9
$VERSIONGUID
  2
{FAEB1C32-E019-11D5-929B-00C0DF256EC4}
  9
$EXTNAMES
290
     1
  9
$PSVPSCALE
 40
0.0
  9
$OLESTARTUP
290
     0
  0
ENDSEC
  0
SECTION
  2
CLASSES
  0
CLASS
  1
ACDBDICTIONARYWDFLT
  2
AcDbDictionaryWithDefault
  3
ObjectDBX Classes
 90
        0
280
     0
281
     0
  0
CLASS
  1
VISUALSTYLE
  2
AcDbVisualStyle
  3
ObjectDBX Classes
 90
     4095
280
     0
281
     0
  0
CLASS
  1
MATERIAL
  2
AcDbMaterial
  3
ObjectDBX Classes
 90
     1153
280
     0
281
     0
  0
CLASS
  1
SCALE
  2
AcDbScale
  3
ObjectDBX Classes
 90
     1153
280
     0
281
     0
  0
CLASS
  1
TABLESTYLE
  2
AcDbTableStyle
  3
ObjectDBX Classes
 90
     4095
280
     0
281
     0
  0
CLASS
  1
MLEADERSTYLE
  2
AcDbMLeaderStyle
  3
ACDB_MLEADERSTYLE_CLASS
 90
     4095
280
     0
281
     0
  0
CLASS
  1
SUN
  2
AcDbSun
  3
SCENEOE
 90
     1153
280
     0
281
     0
  0
CLASS
  1
ACDBPLACEHOLDER
  2
AcDbPlaceHolder
  3
ObjectDBX Classes
 90
        0
280
     0
281
     0
  0
CLASS
  1
LAYOUT
  2
AcDbLayout
  3
ObjectDBX Classes
 90
        0
280
     0
281
     0
  0
ENDSEC
  0
SECTION
  2
TABLES
  0
TABLE
  2
VPORT
  5
8
330
0
100
AcDbSymbolTable
 70
     1
  0
VPORT
  5
29
330
8
100
AcDbSymbolTableRecord
100
AcDbViewportTableRecord
  2
*Active
 70
     0
 10
0.0
 20
0.0
 11
1.0
 21
1.0
 12
0.0
 22
-1.0
 13
0.0
 23
0.0
 14
10.0
 24
10.0
 15
10.0
 25
10.0
 16
0.0
 26
0.0
 36
1.0
 17
0.0
 27
0.0
 37
0.0
 40
16.32
 41
1.875
 42
50.0
 43
0.0
 44
0.0
 50
0.0
 51
0.0
 71
     0
 72
   100
 73
     1
 74
     3
 75
     0
 76
     0
 77
     0
 78
     0
281
     0
 65
     1
110
0.0
120
0.0
130
0.0
111
1.0
121
0.0
131
0.0
112
0.0
122
1.0
132
0.0
 79
     0
146
0.0
  0
ENDTAB
  0
TABLE
  2
LTYPE
  5
5
330
0
100
AcDbSymbolTable
 70
     6
  0
LTYPE
  5
14
330
5
100
AcDbSymbolTableRecord
100
AcDbLinetypeTableRecord
  2
ByBlock
 70
     0
  3

 72
    65
 73
     0
 40
0.0
  0
LTYPE
  5
15
330
5
100
AcDbSymbolTableRecord
100
AcDbLinetypeTableRecord
  2
ByLayer
 70
     0
  3

 72
    65
 73
     0
 40
0.0
  0
LTYPE
  5
16
330
5
100
AcDbSymbolTableRecord
100
AcDbLinetypeTableRecord
  2
Continuous
 70
     0
  3
Solid line
 72
    65
 73
     0
 40
0.0
  0
LTYPE
  5
6E
330
5
100
AcDbSymbolTableRecord
100
AcDbLinetypeTableRecord
  2
HIDDEN
 70
     0
  3
Hidden __ __ __ __ __ __ __ __ __ __ __ __ __ __
 72
    65
 73
     2
 40
1.905
 49
1.27
 74
     0
 49
-0.635
 74
     0
  0
LTYPE
  5
6F
330
5
100
AcDbSymbolTableRecord
100
AcDbLinetypeTableRecord
  2
PHANTOM
 70
     0
  3
Phantom ______  __  __  ______  __  __  ______
 72
    65
 73
     6
 40
12.7
 49
6.35
 74
     0
 49
-1.27
 74
     0
 49
1.27
 74
     0
 49
-1.27
 74
     0
 49
1.27
 74
     0
 49
-1.27
 74
     0
  0
LTYPE
  5
70
330
5
100
AcDbSymbolTableRecord
100
AcDbLinetypeTableRecord
  2
CENTER
 70
     0
  3
Center ____ _ ____ _ ____ _ ____ _ ____ _ ____
 72
    65
 73
     4
 40
10.16
 49
6.35
 74
     0
 49
-1.27
 74
     0
 49
1.27
 74
     0
 49
-1.27
 74
     0
  0
LTYPE
  5
71
330
5
100
AcDbSymbolTableRecord
100
AcDbLinetypeTableRecord
  2
CENTERX2
 70
     0
  3
Center (2x) ________  __  ________  __  _____
 72
    65
 73
     4
 40
20.32
 49
12.7
 74
     0
 49
-2.54
 74
     0
 49
2.54
 74
     0
 49
-2.54
 74
     0
  0
LTYPE
  5
72
330
5
100
AcDbSymbolTableRecord
100
AcDbLinetypeTableRecord
  2
DOT2
 70
     0
  3
Dot (.5x) ........................................
 72
    65
 73
     2
 40
0.635
 49
0.0
 74
     0
 49
-0.635
 74
     0
  0
ENDTAB
  0
TABLE
  2
LAYER
  5
2
330
0
100
AcDbSymbolTable
 70
     1
  0
LAYER
  5
10
330
2
100
AcDbSymbolTableRecord
100
AcDbLayerTableRecord
  2
0
 70
     0
 62
     7
  6
Continuous
370
    -3
390
F
  0
ENDTAB
  0
TABLE
  2
STYLE
  5
3
330
0
100
AcDbSymbolTable
 70
     1
  0
STYLE
  5
11
330
3
100
AcDbSymbolTableRecord
100
AcDbTextStyleTableRecord
  2
Standard
 70
     0
 40
0.0
 41
1.0
 50
0.0
 71
     0
 42
3.5
  3
txt
  4

  0
ENDTAB
  0
TABLE
  2
VIEW
  5
6
330
0
100
AcDbSymbolTable
 70
     0
  0
ENDTAB
  0
TABLE
  2
UCS
  5
7
330
0
100
AcDbSymbolTable
 70
     0
  0
ENDTAB
  0
TABLE
  2
APPID
  5
9
330
0
100
AcDbSymbolTable
 70
     1
  0
APPID
  5
12
330
9
100
AcDbSymbolTableRecord
100
AcDbRegAppTableRecord
  2
ACAD
 70
     0
  0
ENDTAB
  0
TABLE
  2
DIMSTYLE
  5
A
330
0
100
AcDbSymbolTable
 70
     1
100
AcDbDimStyleTable
  0
DIMSTYLE
105
27
330
A
100
AcDbSymbolTableRecord
100
AcDbDimStyleTableRecord
  2
ISO-25
 70
     0
 41
2.5
 42
0.625
 43
3.75
 44
1.25
 73
     0
 74
     0
 77
     1
 78
     8
140
2.5
141
2.5
143
0.0393700787
147
0.625
171
     3
172
     1
178
     0
271
     2
272
     2
274
     3
278
    44
283
     0
284
     8
340
11
  0
ENDTAB
  0
TABLE
  2
BLOCK_RECORD
  5
1
330
0
100
AcDbSymbolTable
 70
     2
  0
BLOCK_RECORD
  5
1F
330
1
100
AcDbSymbolTableRecord
100
AcDbBlockTableRecord
  2
*Model_Space
340
22
  0
BLOCK_RECORD
  5
D9
330
1
100
AcDbSymbolTableRecord
100
AcDbBlockTableRecord
  2
*Paper_Space
340
DA
  0
BLOCK_RECORD
  5
1B
330
1
100
AcDbSymbolTableRecord
100
AcDbBlockTableRecord
  2
*Paper_Space0
340
1E
  0
BLOCK_RECORD
  5
23
330
1
100
AcDbSymbolTableRecord
100
AcDbBlockTableRecord
  2
*Paper_Space1
340
26
  0
ENDTAB
  0
ENDSEC
  0
SECTION
  2
BLOCKS
  0
BLOCK
  5
20
330
1F
100
AcDbEntity
  8
0
100
AcDbBlockBegin
  2
*Model_Space
 70
     0
 10
0.0
 20
0.0
 30
0.0
  3
*Model_Space
  1

  0
ENDBLK
  5
21
330
1F
100
AcDbEntity
  8
0
100
AcDbBlockEnd
  0
BLOCK
  5
DB
330
D9
100
AcDbEntity
 67
     1
  8
0
100
AcDbBlockBegin
  2
*Paper_Space
 70
     0
 10
0.0
 20
0.0
 30
0.0
  3
*Paper_Space
  1

  0
ENDBLK
  5
DC
330
D9
100
AcDbEntity
 67
     1
  8
0
100
AcDbBlockEnd
  0
BLOCK
  5
1C
330
1B
100
AcDbEntity
  8
0
100
AcDbBlockBegin
  2
*Paper_Space0
 70
     0
 10
0.0
 20
0.0
 30
0.0
  3
*Paper_Space0
  1

  0
CIRCLE
  5
B1
330
1B
100
AcDbEntity
  8
0
  6
Continuous
 62
     7
370
    15
100
AcDbCircle
 10
18.0
 20
-10.0
 30
0.0
 40
1.249999999999989
  0
CIRCLE
  5
B2
330
1B
100
AcDbEntity
  8
0
  6
Continuous
 62
     7
370
    15
100
AcDbCircle
 10
18.0
 20
12.0
 30
0.0
 40
1.249999999999989
  0
LINE
  5
B4
330
1B
100
AcDbEntity
  8
0
  6
Continuous
 62
     7
370
    15
100
AcDbLine
 10
22.5
 20
-15.0
 30
0.0
 11
-2.0
 21
-15.0
 31
0.0
  0
LINE
  5
B5
330
1B
100
AcDbEntity
  8
0
  6
Continuous
 62
     7
370
    15
100
AcDbLine
 10
-2.0
 20
15.0
 30
0.0
 11
-2.0
 21
-15.0
 31
0.0
  0
LINE
  5
B6
330
1B
100
AcDbEntity
  8
0
  6
Continuous
 62
     7
370
    15
100
AcDbLine
 10
-2.0
 20
15.0
 30
0.0
 11
24.0
 21
15.0
 31
0.0
  0
LINE
  5
B7
330
1B
100
AcDbEntity
  8
0
  6
Continuous
 62
     7
370
    15
100
AcDbLine
 10
0.0
 20
15.0
 30
0.0
 11
0.0
 21
-15.0
 31
0.0
  0
LINE
  5
B8
330
1B
100
AcDbEntity
  8
0
  6
Continuous
 62
     7
370
    15
100
AcDbLine
 10
1.0
 20
-15.0
 30
0.0
 11
1.0
 21
15.0
 31
0.0
  0
LINE
  5
B9
330
1B
100
AcDbEntity
  8
0
  6
Continuous
 62
     7
370
    15
100
AcDbLine
 10
23.4142135624
 20
-6.9142135624
 30
0.0
 11
20.4142135624
 21
-3.9142135624
 31
0.0
  0
LINE
  5
BA
330
1B
100
AcDbEntity
  8
0
  6
Continuous
 62
     7
370
    15
100
AcDbLine
 10
24.0
 20
-8.3284271247
 30
0.0
 11
24.0
 21
-13.5
 31
0.0
  0
LINE
  5
BB
330
1B
100
AcDbEntity
  8
0
  6
Continuous
 62
     7
370
    15
100
AcDbLine
 10
22.5
 20
-15.0
 30
0.0
 11
24.0
 21
-13.5
 31
0.0
  0
LINE
  5
BC
330
1B
100
AcDbEntity
  8
0
  6
Continuous
 62
     7
370
    15
100
AcDbLine
 10
24.0
 20
15.0
 30
0.0
 11
24.0
 21
3.3284271247
 31
0.0
  0
LINE
  5
BD
330
1B
100
AcDbEntity
  8
0
  6
Continuous
 62
     7
370
    15
100
AcDbLine
 10
23.4142135624
 20
1.9142135624
 30
0.0
 11
20.4142135624
 21
-1.0857864376
 31
0.0
  0
ARC
  5
BE
330
1B
100
AcDbEntity
  8
0
  6
Continuous
 62
     7
370
    15
100
AcDbCircle
 10
21.8284271247
 20
-2.5
 30
0.0
 40
1.999999999999997
100
AcDbArc
 50
135.0
 51
225.0
  0
ARC
  5
BF
330
1B
100
AcDbEntity
  8
0
  6
Continuous
 62
     7
370
    15
100
AcDbCircle
 10
22.0
 20
-8.3284271247
 30
0.0
 40
2.000000000000018
100
AcDbArc
 50
0.0
 51
45.0
  0
ARC
  5
C0
330
1B
100
AcDbEntity
  8
0
  6
Continuous
 62
     7
370
    15
100
AcDbCircle
 10
22.0
 20
3.3284271247
 30
0.0
 40
2.000000000000037
100
AcDbArc
 50
315.0
 51
0.0
  0
VIEWPORT
  5
12E
330
1B
100
AcDbEntity
  8
0
100
AcDbViewport
 10
0.0
 20
0.0
 30
0.0
 40
205.6
 41
156.0
 68
     1
 69
     1
 12
0.0
 22
-1.0
 13
0.0
 23
0.0
 14
10.0
 24
10.0
 15
10.0
 25
10.0
 16
0.0
 26
0.0
 36
1.0
 17
0.0
 27
0.0
 37
0.0
 42
50.0
 43
0.0
 44
0.0
 45
23.2178988327
 50
0.0
 51
0.0
 72
   100
 90
   557152
  1

281
     0
 71
     1
 74
     0
110
0.0
120
0.0
130
0.0
111
1.0
121
0.0
131
0.0
112
0.0
122
1.0
132
0.0
 79
     0
146
0.0
  0
ENDBLK
  5
1D
330
1B
100
AcDbEntity
  8
0
100
AcDbBlockEnd
  0
BLOCK
  5
24
330
23
100
AcDbEntity
  8
0
100
AcDbBlockBegin
  2
*Paper_Space1
 70
     0
 10
0.0
 20
0.0
 30
0.0
  3
*Paper_Space1
  1

  0
LINE
  5
CE
330
23
100
AcDbEntity
  8
0
  6
Continuous
 62
     7
370
    15
100
AcDbLine
 10
1.0
 20
-7.0
 30
0.0
 11
1.0
 21
-9.0
 31
0.0
  0
LINE
  5
CF
330
23
100
AcDbEntity
  8
0
  6
Continuous
 62
     7
370
    15
100
AcDbLine
 10
22.5
 20
-9.0
 30
0.0
 11
22.5
 21
-7.0
 31
0.0
  0
LINE
  5
D0
330
23
100
AcDbEntity
  8
0
  6
Continuous
 62
     7
370
    15
100
AcDbLine
 10
24.0
 20
-7.0
 30
0.0
 11
1.0
 21
-7.0
 31
0.0
  0
LINE
  5
D1
330
23
100
AcDbEntity
  8
0
  6
Continuous
 62
     7
370
    15
100
AcDbLine
 10
24.0
 20
-9.0
 30
0.0
 11
1.0
 21
-9.0
 31
0.0
  0
LINE
  5
D2
330
23
100
AcDbEntity
  8
0
  6
Continuous
 62
     7
370
    15
100
AcDbLine
 10
24.0
 20
-7.0
 30
0.0
 11
24.0
 21
-9.0
 31
0.0
  0
LINE
  5
D3
330
23
100
AcDbEntity
  8
0
  6
Continuous
 62
     7
370
    15
100
AcDbLine
 10
0.0
 20
-6.0
 30
0.0
 11
-2.0
 21
-6.0
 31
0.0
  0
LINE
  5
D4
330
23
100
AcDbEntity
  8
0
  6
Continuous
 62
     7
370
    15
100
AcDbLine
 10
-2.0
 20
7.0
 30
0.0
 11
0.0
 21
7.0
 31
0.0
  0
LINE
  5
D5
330
23
100
AcDbEntity
  8
0
  6
Continuous
 62
     7
370
    15
100
AcDbLine
 10
0.0
 20
7.0
 30
0.0
 11
0.0
 21
-6.0
 31
0.0
  0
LINE
  5
D6
330
23
100
AcDbEntity
  8
0
  6
Continuous
 62
     7
370
    15
100
AcDbLine
 10
-2.0
 20
7.0
 30
0.0
 11
-2.0
 21
-6.0
 31
0.0
  0
ARC
  5
D7
330
23
100
AcDbEntity
  8
0
  6
Continuous
 62
     7
370
    15
100
AcDbCircle
 10
1.0
 20
-6.0
 30
0.0
 40
2.999999999999997
100
AcDbArc
 50
180.0
 51
270.0
  0
ARC
  5
D8
330
23
100
AcDbEntity
  8
0
  6
Continuous
 62
     7
370
    15
100
AcDbCircle
 10
1.0
 20
-6.0
 30
0.0
 40
0.9999999999999991
100
AcDbArc
 50
180.0
 51
270.0
  0
VIEWPORT
  5
130
330
23
100
AcDbEntity
  8
0
100
AcDbViewport
 10
0.0
 20
0.0
 30
0.0
 40
205.6
 41
156.0
 68
     1
 69
     1
 12
0.0
 22
-1.0
 13
0.0
 23
0.0
 14
10.0
 24
10.0
 15
10.0
 25
10.0
 16
0.0
 26
0.0
 36
1.0
 17
0.0
 27
0.0
 37
0.0
 42
50.0
 43
0.0
 44
0.0
 45
23.2178988327
 50
0.0
 51
0.0
 72
   100
 90
   557152
  1

281
     0
 71
     1
 74
     0
110
0.0
120
0.0
130
0.0
111
1.0
121
0.0
131
0.0
112
0.0
122
1.0
132
0.0
 79
     0
146
0.0
  0
ENDBLK
  5
25
330
23
100
AcDbEntity
  8
0
100
AcDbBlockEnd
  0
ENDSEC
  0
SECTION
  2
ENTITIES
  0
CIRCLE
  5
8F
330
1F
100
AcDbEntity
  8
0
  6
Continuous
 62
     7
370
    15
100
AcDbCircle
 10
9.0
 20
-1.3
 30
0.0
 40
1.250000000000007
  0
CIRCLE
  5
90
330
1F
100
AcDbEntity
  8
0
  6
Continuous
 62
     7
370
    15
100
AcDbCircle
 10
-13.0
 20
-1.3
 30
0.0
 40
1.249999999999993
  0
LINE
  5
94
330
1F
100
AcDbEntity
  8
0
  6
Continuous
 62
     7
370
    15
100
AcDbLine
 10
-8.3284271247
 20
-9.0
 30
0.0
 11
-8.3284271247
 21
-7.0
 31
0.0
  0
LINE
  5
95
330
1F
100
AcDbEntity
  8
0
  6
Continuous
 62
     7
370
    15
100
AcDbLine
 10
-6.9142135624
 20
-7.0
 30
0.0
 11
-6.9142135624
 21
-9.0
 31
0.0
  0
LINE
  5
96
330
1F
100
AcDbEntity
  8
0
  6
Continuous
 62
     7
370
    15
100
AcDbLine
 10
-13.5
 20
-7.0
 30
0.0
 11
-13.5
 21
-9.0
 31
0.0
  0
LINE
  5
97
330
1F
100
AcDbEntity
  8
0
  6
Continuous
 62
     7
370
    15
100
AcDbLine
 10
15.0
 20
-9.0
 30
0.0
 11
15.0
 21
7.0
 31
0.0
  0
LINE
  5
98
330
1F
100
AcDbEntity
  8
0
  6
Continuous
 62
     7
370
    15
100
AcDbLine
 10
15.0
 20
-9.0
 30
0.0
 11
-15.0
 21
-9.0
 31
0.0
  0
LINE
  5
99
330
1F
100
AcDbEntity
  8
0
  6
Continuous
 62
     7
370
    15
100
AcDbLine
 10
3.3284271247
 20
-7.0
 30
0.0
 11
3.3284271247
 21
-9.0
 31
0.0
  0
LINE
  5
9A
330
1F
100
AcDbEntity
  8
0
  6
Continuous
 62
     7
370
    15
100
AcDbLine
 10
15.0
 20
-7.0
 30
0.0
 11
-15.0
 21
-7.0
 31
0.0
  0
LINE
  5
9B
330
1F
100
AcDbEntity
  8
0
  6
Continuous
 62
     7
370
    15
100
AcDbLine
 10
-15.0
 20
7.0
 30
0.0
 11
-15.0
 21
-9.0
 31
0.0
  0
LINE
  5
9C
330
1F
100
AcDbEntity
  8
0
  6
Continuous
 62
     7
370
    15
100
AcDbLine
 10
1.9142135624
 20
-9.0
 30
0.0
 11
1.9142135624
 21
-7.0
 31
0.0
  0
LINE
  5
9D
330
1F
100
AcDbEntity
  8
0
  6
Continuous
 62
     7
370
    15
100
AcDbLine
 10
-1.0857864376
 20
-9.0
 30
0.0
 11
-1.0857864376
 21
-7.0
 31
0.0
  0
LINE
  5
9E
330
1F
100
AcDbEntity
  8
0
  6
Continuous
 62
     7
370
    15
100
AcDbLine
 10
-3.9142135624
 20
-9.0
 30
0.0
 11
-3.9142135624
 21
-7.0
 31
0.0
  0
LINE
  5
9F
330
1F
100
AcDbEntity
  8
0
  6
Continuous
 62
     7
370
    15
100
AcDbLine
 10
15.0
 20
-6.0
 30
0.0
 11
-15.0
 21
-6.0
 31
0.0
  0
LINE
  5
A0
330
1F
100
AcDbEntity
  8
0
  6
Continuous
 62
     7
370
    15
100
AcDbLine
 10
15.0
 20
7.0
 30
0.0
 11
-15.0
 21
7.0
 31
0.0
  0
LWPOLYLINE
  5
DD
330
D9
100
AcDbEntity
 67
     1
  8
0
  6
Continuous
 62
     7
370
    15
100
AcDbPolyline
 90
       13
 70
   128
 43
0.0
 10
11.6672618896
 20
-15.6467483095
 10
11.6843721668
 20
-15.4960459757
 10
11.735410237
 20
-15.3479222007
 10
11.8195028246
 20
-15.2049114232
 10
11.935211082
 20
-15.0694605974
 10
12.080555209
 20
-14.9438873243
 10
12.2530483272
 20
-14.8303401976
 10
12.4497390316
 20
-14.7307620401
 10
12.6672618896
 20
-14.6468566615
 10
12.9018950248
 20
-14.5800597063
 10
13.1496237994
 20
-14.5315140889
 10
13.4062095051
 20
-14.5020504381
 10
13.6672618896
 20
-14.4921728853
  0
LWPOLYLINE
  5
E8
330
D9
100
AcDbEntity
 67
     1
  8
0
  6
Continuous
 62
     7
370
    15
100
AcDbPolyline
 90
       42
 70
   128
 43
0.0
 10
4.772970773
 20
-16.6352441788
 10
4.6484053328
 20
-16.7191142232
 10
4.5474770804
 20
-16.8129783712
 10
4.4725516886
 20
-16.9146365267
 10
4.4253853451
 20
-17.0217059088
 10
4.407083589
 20
-17.1316769018
 10
4.4180753978
 20
-17.2419718789
 10
4.4581031331
 20
-17.3500056193
 10
4.5262285784
 20
-17.4532459038
 10
4.6208549313
 20
-17.5492728674
 10
4.73976423
 20
-17.6358357197
 10
4.8801693416
 20
-17.7109055007
 10
5.0387792891
 20
-17.7727226384
 10
5.2118763898
 20
-17.8198381914
 10
5.3954033944
 20
-17.8511478111
 10
5.5850585855
 20
-17.8659176266
 10
5.776396606
 20
-17.863801446
 10
5.9649326551
 20
-17.8448488706
 10
6.1462476074
 20
-17.8095041328
 10
6.3160915942
 20
-17.7585956834
 10
6.4704836164
 20
-17.6933167731
 10
6.6058048558
 20
-17.6151974844
 10
6.7188834974
 20
-17.5260688672
 10
6.8070690734
 20
-17.4280200206
 10
6.8682945889
 20
-17.3233491266
 10
6.9011249696
 20
-17.2145095822
 10
6.9047906992
 20
-17.1040524941
 10
6.8792058562
 20
-16.9945668828
 10
6.8249701275
 20
-16.8886189982
 10
6.7433547526
 20
-16.7886921689
 10
6.6362727269
 20
-16.6971285952
 10
6.5062339621
 20
-16.6160744496
 10
6.3562864568
 20
-16.5474295726
 10
6.1899448534
 20
-16.4928029418
 10
6.011108058
 20
-16.4534749593
 10
5.8239678536
 20
-16.4303674397
 10
5.632910648
 20
-16.4240220035
 10
5.4424146601
 20
-16.4345873824
 10
5.2569449544
 20
-16.4618159329
 10
5.0808487836
 20
-16.5050694409
 10
4.9182536928
 20
-16.5633340808
 10
4.772970773
 20
-16.6352441788
  0
LWPOLYLINE
  5
E9
330
D9
100
AcDbEntity
 67
     1
  8
0
  6
Continuous
 62
     7
370
    15
100
AcDbPolyline
 90
       42
 70
   128
 43
0.0
 10
20.3293199591
 20
-7.6547549488
 10
20.2047545189
 20
-7.7386249931
 10
20.1038262665
 20
-7.8324891411
 10
20.0289008747
 20
-7.9341472967
 10
19.9817345312
 20
-8.0412166787
 10
19.9634327751
 20
-8.1511876717
 10
19.9744245839
 20
-8.2614826488
 10
20.0144523192
 20
-8.3695163893
 10
20.0825777645
 20
-8.4727566737
 10
20.1772041174
 20
-8.5687836374
 10
20.2961134161
 20
-8.6553464897
 10
20.4365185277
 20
-8.7304162706
 10
20.5951284752
 20
-8.7922334083
 10
20.7682255759
 20
-8.8393489613
 10
20.9517525805
 20
-8.8706585811
 10
21.1414077716
 20
-8.8854283966
 10
21.3327457921
 20
-8.8833122159
 10
21.5212818412
 20
-8.8643596406
 10
21.7025967935
 20
-8.8290149028
 10
21.8724407803
 20
-8.7781064533
 10
22.0268328025
 20
-8.7128275431
 10
22.1621540419
 20
-8.6347082544
 10
22.2752326835
 20
-8.5455796371
 10
22.3634182596
 20
-8.4475307906
 10
22.424643775
 20
-8.3428598966
 10
22.4574741557
 20
-8.2340203522
 10
22.4611398854
 20
-8.123563264
 10
22.4355550423
 20
-8.0140776527
 10
22.3813193136
 20
-7.9081297681
 10
22.2997039387
 20
-7.8082029389
 10
22.192621913
 20
-7.7166393652
 10
22.0625831482
 20
-7.6355852196
 10
21.9126356429
 20
-7.5669403425
 10
21.7462940395
 20
-7.5123137118
 10
21.5674572441
 20
-7.4729857293
 10
21.3803170397
 20
-7.4498782096
 10
21.1892598341
 20
-7.4435327734
 10
20.9987638462
 20
-7.4540981523
 10
20.8132941405
 20
-7.4813267029
 10
20.6371979697
 20
-7.5245802109
 10
20.4746028789
 20
-7.5828448508
 10
20.3293199591
 20
-7.6547549488
  0
LWPOLYLINE
  5
F7
330
D9
100
AcDbEntity
 67
     1
  8
0
  6
Continuous
 62
     7
370
    15
100
AcDbPolyline
 90
       42
 70
   128
 43
0.0
 10
-8.3085046789
 20
-5.8579007124
 10
-8.3188634187
 20
-5.7080752225
 10
-8.3496968379
 20
-5.5737214615
 10
-8.4002822274
 20
-5.4579885676
 10
-8.4694339085
 20
-5.3635892218
 10
-8.5555310244
 20
-5.2927360647
 10
-8.6565555316
 20
-5.2470898344
 10
-8.7701395015
 20
-5.2277204397
 10
-8.8936206218
 20
-5.2350818828
 10
-9.0241046
 20
-5.2690016178
 10
-9.158533002
 20
-5.3286845948
 10
-9.2937549402
 20
-5.4127318954
 10
-9.4266009268
 20
-5.5191735222
 10
-9.5539571646
 20
-5.6455145735
 10
-9.6728385312
 20
-5.7887937224
 10
-9.7804585483
 20
-5.9456526268
 10
-9.8742946938
 20
-6.1124146472
 10
-9.9521475279
 20
-6.2851710229
 10
-10.0121922464
 20
-6.4598724911
 10
-10.0530214517
 20
-6.6324241974
 10
-10.0736781421
 20
-6.798781676
 10
-10.0736781421
 20
-6.9550456487
 10
-10.0530214517
 20
-7.0975534203
 10
-10.0121922464
 20
-7.2229647295
 10
-9.9521475279
 20
-7.3283400414
 10
-9.8742946938
 20
-7.4112094482
 10
-9.7804585483
 20
-7.469630561
 10
-9.6728385312
 20
-7.5022340387
 10
-9.5539571646
 20
-7.5082556832
 10
-9.4266009268
 20
-7.4875543523
 10
-9.2937549402
 20
-7.4406152677
 10
-9.158533002
 20
-7.3685386417
 10
-9.0241046
 20
-7.2730138894
 10
-8.8936206218
 20
-7.15628003
 10
-8.7701395015
 20
-7.0210732062
 10
-8.6565555316
 20
-6.8705625514
 10
-8.5555310244
 20
-6.7082759077
 10
-8.4694339085
 20
-6.5380171365
 10
-8.4002822274
 20
-6.3637769592
 10
-8.3496968379
 20
-6.1896394178
 10
-8.3188634187
 20
-6.0196861487
 10
-8.3085046789
 20
-5.8579007124
  0
LWPOLYLINE
  5
F8
330
D9
100
AcDbEntity
 67
     1
  8
0
  6
Continuous
 62
     7
370
    15
100
AcDbPolyline
 90
       42
 70
   128
 43
0.0
 10
7.2478445072
 20
3.1225885176
 10
7.2374857674
 20
3.2724140075
 10
7.2066523482
 20
3.4067677686
 10
7.1560669587
 20
3.5225006625
 10
7.0869152776
 20
3.6169000083
 10
7.0008181617
 20
3.6877531653
 10
6.8997936545
 20
3.7333993957
 10
6.7862096847
 20
3.7527687904
 10
6.6627285643
 20
3.7454073473
 10
6.5322445861
 20
3.7114876123
 10
6.3978161841
 20
3.6518046353
 10
6.2625942459
 20
3.5677573346
 10
6.1297482593
 20
3.4613157079
 10
6.0023920215
 20
3.3349746565
 10
5.8835106549
 20
3.1916955077
 10
5.7758906378
 20
3.0348366032
 10
5.6820544923
 20
2.8680745829
 10
5.6042016582
 20
2.6953182071
 10
5.5441569398
 20
2.5206167389
 10
5.5033277344
 20
2.3480650326
 10
5.482671044
 20
2.181707554
 10
5.482671044
 20
2.0254435814
 10
5.5033277344
 20
1.8829358098
 10
5.5441569398
 20
1.7575245006
 10
5.6042016582
 20
1.6521491886
 10
5.6820544923
 20
1.5692797819
 10
5.7758906378
 20
1.510858669
 10
5.8835106549
 20
1.4782551914
 10
6.0023920215
 20
1.4722335469
 10
6.1297482593
 20
1.4929348778
 10
6.2625942459
 20
1.5398739624
 10
6.3978161841
 20
1.6119505884
 10
6.5322445861
 20
1.7074753407
 10
6.6627285643
 20
1.8242092001
 10
6.7862096847
 20
1.9594160239
 10
6.8997936545
 20
2.1099266787
 10
7.0008181617
 20
2.2722133224
 10
7.0869152776
 20
2.4424720935
 10
7.1560669587
 20
2.6167122708
 10
7.2066523482
 20
2.7908498122
 10
7.2374857674
 20
2.9608030814
 10
7.2478445072
 20
3.1225885176
  0
LWPOLYLINE
  5
101
330
D9
100
AcDbEntity
 67
     1
  8
0
  6
Continuous
 62
     7
370
    15
100
AcDbPolyline
 90
       13
 70
   128
 43
0.0
 10
11.6672618896
 20
-17.2798299332
 10
11.6843721668
 20
-17.1291275995
 10
11.735410237
 20
-16.9810038245
 10
11.8195028246
 20
-16.837993047
 10
11.935211082
 20
-16.7025422212
 10
12.080555209
 20
-16.5769689481
 10
12.2530483272
 20
-16.4634218214
 10
12.4497390316
 20
-16.3638436639
 10
12.6672618896
 20
-16.2799382853
 10
12.9018950248
 20
-16.2131413301
 10
13.1496237994
 20
-16.1645957126
 10
13.4062095051
 20
-16.1351320619
 10
13.6672618896
 20
-16.1252545091
  0
LINE
  5
109
330
D9
100
AcDbEntity
 67
     1
  8
0
  6
Continuous
 62
     7
370
    15
100
AcDbLine
 10
11.6672618896
 20
-19.7290542687
 30
0.0
 11
11.6672618896
 21
-15.6467483095
 31
0.0
  0
LINE
  5
10A
330
D9
100
AcDbEntity
 67
     1
  8
0
  6
Continuous
 62
     7
370
    15
100
AcDbLine
 10
11.081475452
 20
-18.9123807568
 30
0.0
 11
7.4246212025
 21
-21.0234377799
 31
0.0
  0
LINE
  5
10B
330
D9
100
AcDbEntity
 67
     1
  8
0
  6
Continuous
 62
     7
370
    15
100
AcDbLine
 10
5.3033008589
 20
-21.0234377799
 30
0.0
 11
7.4246212025
 21
-21.0234377799
 31
0.0
  0
LINE
  5
10C
330
D9
100
AcDbEntity
 67
     1
  8
0
  6
Continuous
 62
     7
370
    15
100
AcDbLine
 10
5.3033008589
 20
-21.0234377799
 30
0.0
 11
-9.8994949366
 21
-12.2470505778
 31
0.0
  0
LINE
  5
10D
330
D9
100
AcDbEntity
 67
     1
  8
0
  6
Continuous
 62
     7
370
    15
100
AcDbLine
 10
-9.8994949366
 20
-12.2470505778
 30
0.0
 11
11.313708499
 21
-0.0009289004
 31
0.0
  0
LINE
  5
10E
330
D9
100
AcDbEntity
 67
     1
  8
0
  6
Continuous
 62
     7
370
    15
100
AcDbLine
 10
11.313708499
 20
-0.0009289004
 30
0.0
 11
27.5771644663
 21
-9.3896221864
 31
0.0
  0
LINE
  5
10F
330
D9
100
AcDbEntity
 67
     1
  8
0
  6
Continuous
 62
     7
370
    15
100
AcDbLine
 10
27.5771644663
 20
-9.3896221864
 30
0.0
 11
19.3241161391
 21
-14.1540055729
 31
0.0
  0
LINE
  5
110
330
D9
100
AcDbEntity
 67
     1
  8
0
  6
Continuous
 62
     7
370
    15
100
AcDbLine
 10
17.9099025767
 20
-14.4921728853
 30
0.0
 11
13.6672618896
 21
-14.4921728853
 31
0.0
  0
LINE
  5
111
330
D9
100
AcDbEntity
 67
     1
  8
0
  6
Continuous
 62
     7
370
    15
100
AcDbLine
 10
5.3033008589
 20
-22.6565194036
 30
0.0
 11
5.3033008589
 21
-21.0234377799
 31
0.0
  0
LINE
  5
112
330
D9
100
AcDbEntity
 67
     1
  8
0
  6
Continuous
 62
     7
370
    15
100
AcDbLine
 10
7.4246212025
 20
-21.0234377799
 30
0.0
 11
7.4246212025
 21
-22.6565194036
 31
0.0
  0
LINE
  5
113
330
D9
100
AcDbEntity
 67
     1
  8
0
  6
Continuous
 62
     7
370
    15
100
AcDbLine
 10
7.4246212025
 20
-22.6565194036
 30
0.0
 11
5.3033008589
 21
-22.6565194036
 31
0.0
  0
LINE
  5
114
330
D9
100
AcDbEntity
 67
     1
  8
0
  6
Continuous
 62
     7
370
    15
100
AcDbLine
 10
-9.8994949366
 20
-12.2470505778
 30
0.0
 11
-9.8994949366
 21
-13.8801322016
 31
0.0
  0
LINE
  5
115
330
D9
100
AcDbEntity
 67
     1
  8
0
  6
Continuous
 62
     7
370
    15
100
AcDbLine
 10
5.3033008589
 20
-22.6565194036
 30
0.0
 11
-9.8994949366
 21
-13.8801322016
 31
0.0
  0
LINE
  5
116
330
D9
100
AcDbEntity
 67
     1
  8
0
  6
Continuous
 62
     7
370
    15
100
AcDbLine
 10
11.081475452
 20
-20.5454623805
 30
0.0
 11
11.081475452
 21
-18.9123807568
 31
0.0
  0
LINE
  5
117
330
D9
100
AcDbEntity
 67
     1
  8
0
  6
Continuous
 62
     7
370
    15
100
AcDbLine
 10
11.081475452
 20
-20.5454623805
 30
0.0
 11
7.4246212025
 21
-22.6565194036
 31
0.0
  0
LINE
  5
118
330
D9
100
AcDbEntity
 67
     1
  8
0
  6
Continuous
 62
     7
370
    15
100
AcDbLine
 10
10.6066017178
 20
11.8388465219
 30
0.0
 11
-10.6066017178
 21
-0.4072751555
 31
0.0
  0
LINE
  5
119
330
D9
100
AcDbEntity
 67
     1
  8
0
  6
Continuous
 62
     7
370
    15
100
AcDbLine
 10
10.6066017178
 20
1.2238159674
 30
0.0
 11
10.6066017178
 21
11.8388465219
 31
0.0
  0
LINE
  5
11A
330
D9
100
AcDbEntity
 67
     1
  8
0
  6
Continuous
 62
     7
370
    15
100
AcDbLine
 10
10.6066017178
 20
1.2238159674
 30
0.0
 11
-10.6066017178
 21
-11.02230571
 31
0.0
  0
LINE
  5
11B
330
D9
100
AcDbEntity
 67
     1
  8
0
  6
Continuous
 62
     7
370
    15
100
AcDbLine
 10
-10.6066017178
 20
-0.4072751555
 30
0.0
 11
-10.6066017178
 21
-11.02230571
 31
0.0
  0
LINE
  5
11C
330
D9
100
AcDbEntity
 67
     1
  8
0
  6
Continuous
 62
     7
370
    15
100
AcDbLine
 10
-12.0208152802
 20
0.4091329564
 30
0.0
 11
-10.6066017178
 21
-0.4072751555
 31
0.0
  0
LINE
  5
11D
330
D9
100
AcDbEntity
 67
     1
  8
0
  6
Continuous
 62
     7
370
    15
100
AcDbLine
 10
9.1923881554
 20
12.6552546337
 30
0.0
 11
-12.0208152802
 21
0.4091329564
 31
0.0
  0
LINE
  5
11E
330
D9
100
AcDbEntity
 67
     1
  8
0
  6
Continuous
 62
     7
370
    15
100
AcDbLine
 10
9.1923881554
 20
12.6552546337
 30
0.0
 11
10.6066017178
 21
11.8388465219
 31
0.0
  0
LINE
  5
11F
330
D9
100
AcDbEntity
 67
     1
  8
0
  6
Continuous
 62
     7
370
    15
100
AcDbLine
 10
-12.0208152802
 20
0.4091329564
 30
0.0
 11
-12.0208152802
 21
-10.2058975982
 31
0.0
  0
LINE
  5
120
330
D9
100
AcDbEntity
 67
     1
  8
0
  6
Continuous
 62
     7
370
    15
100
AcDbLine
 10
-10.6066017178
 20
-11.02230571
 30
0.0
 11
-12.0208152802
 21
-10.2058975982
 31
0.0
  0
LINE
  5
121
330
D9
100
AcDbEntity
 67
     1
  8
0
  6
Continuous
 62
     7
370
    15
100
AcDbLine
 10
13.6672618896
 20
-16.1252545091
 30
0.0
 11
13.6672618896
 21
-14.4921728853
 31
0.0
  0
LINE
  5
122
330
D9
100
AcDbEntity
 67
     1
  8
0
  6
Continuous
 62
     7
370
    15
100
AcDbLine
 10
17.9099025767
 20
-16.1252545091
 30
0.0
 11
17.9099025767
 21
-14.4921728853
 31
0.0
  0
LINE
  5
123
330
D9
100
AcDbEntity
 67
     1
  8
0
  6
Continuous
 62
     7
370
    15
100
AcDbLine
 10
17.9099025767
 20
-16.1252545091
 30
0.0
 11
13.6672618896
 21
-16.1252545091
 31
0.0
  0
LINE
  5
124
330
D9
100
AcDbEntity
 67
     1
  8
0
  6
Continuous
 62
     7
370
    15
100
AcDbLine
 10
19.3241161391
 20
-14.1540055729
 30
0.0
 11
19.3241161391
 21
-15.7870871967
 31
0.0
  0
LINE
  5
125
330
D9
100
AcDbEntity
 67
     1
  8
0
  6
Continuous
 62
     7
370
    15
100
AcDbLine
 10
27.5771644663
 20
-11.0227038102
 30
0.0
 11
27.5771644663
 21
-9.3896221864
 31
0.0
  0
LINE
  5
126
330
D9
100
AcDbEntity
 67
     1
  8
0
  6
Continuous
 62
     7
370
    15
100
AcDbLine
 10
27.5771644663
 20
-11.0227038102
 30
0.0
 11
19.3241161391
 21
-15.7870871967
 31
0.0
  0
ARC
  5
127
330
D9
100
AcDbEntity
 67
     1
  8
0
  6
Continuous
 62
     7
370
    15
100
AcDbCircle
 10
10.6663477646
 20
-17.9961598911
 30
0.0
 40
1.005878556987552
100
AcDbArc
 50
294.3746582936
 51
354.3052007488
  0
ARC
  5
128
330
D9
100
AcDbEntity
 67
     1
  8
0
  6
Continuous
 62
     7
370
    15
100
AcDbCircle
 10
17.967523253
 20
-11.6069424444
 30
0.0
 40
2.885805752203763
100
AcDbArc
 50
268.8559032542
 51
298.0402391154
  0
ARC
  5
129
330
D9
100
AcDbEntity
 67
     1
  8
0
  6
Continuous
 62
     7
370
    15
100
AcDbCircle
 10
10.6663477646
 20
-19.6292415149
 30
0.0
 40
1.005878556987549
100
AcDbArc
 50
294.3746582936
 51
354.3052007488
  0
ARC
  5
12A
330
D9
100
AcDbEntity
 67
     1
  8
0
  6
Continuous
 62
     7
370
    15
100
AcDbCircle
 10
17.967523253
 20
-13.2400240682
 30
0.0
 40
2.885805752203692
100
AcDbArc
 50
268.8559032542
 51
298.0402391154
  0
ARC
  5
12B
330
D9
100
AcDbEntity
 67
     1
  8
0
  6
Continuous
 62
     7
370
    15
100
AcDbCircle
 10
12.1353294177
 20
1.2899307393
 30
0.0
 40
1.530156705534076
100
AcDbArc
 50
182.4763980378
 51
237.5236021078
  0
ARC
  5
12C
330
D9
100
AcDbEntity
 67
     1
  8
0
  6
Continuous
 62
     7
370
    15
100
AcDbCircle
 10
-9.0778787391
 20
-10.9561936639
 30
0.0
 40
1.530151870927378
100
AcDbArc
 50
182.476303705
 51
237.5236964406
  0
ARC
  5
12D
330
D9
100
AcDbEntity
 67
     1
  8
0
  6
Continuous
 62
     7
370
    15
100
AcDbCircle
 10
-7.4274489586
 20
-10.0034060473
 30
0.0
 40
4.597827420881139
100
AcDbArc
 50
182.5241628152
 51
237.4758373305
  0
VIEWPORT
  5
132
330
D9
100
AcDbEntity
 67
     1
  8
0
100
AcDbViewport
 10
0.0
 20
0.0
 30
0.0
 40
205.6
 41
156.0
 68
     1
 69
     1
 12
0.0
 22
-1.0
 13
0.0
 23
0.0
 14
10.0
 24
10.0
 15
10.0
 25
10.0
 16
0.0
 26
0.0
 36
1.0
 17
0.0
 27
0.0
 37
0.0
 42
50.0
 43
0.0
 44
0.0
 45
23.2178988327
 50
0.0
 51
0.0
 72
   100
 90
   557152
  1

281
     0
 71
     1
 74
     0
110
0.0
120
0.0
130
0.0
111
1.0
121
0.0
131
0.0
112
0.0
122
1.0
132
0.0
 79
     0
146
0.0
  0
ENDSEC
  0
SECTION
  2
OBJECTS
  0
DICTIONARY
  5
C
330
0
100
AcDbDictionary
281
     1
  3
ACAD_GROUP
350
D
  3
ACAD_LAYOUT
350
1A
  3
ACAD_MLINESTYLE
350
17
  3
ACAD_PLOTSETTINGS
350
19
  3
ACAD_PLOTSTYLENAME
350
E
  3
ACAD_SCALELIST
350
47
  0
DICTIONARY
  5
D
102
{ACAD_REACTORS
330
C
102
}
330
C
100
AcDbDictionary
281
     1
  0
DICTIONARY
  5
1A
102
{ACAD_REACTORS
330
C
102
}
330
C
100
AcDbDictionary
281
     1
  3
_Frontal
350
26
  3
_Isométrica
350
DA
  3
_Superior
350
1E
  3
Model
350
22
  0
DICTIONARY
  5
17
102
{ACAD_REACTORS
330
C
102
}
330
C
100
AcDbDictionary
281
     1
  3
Standard
350
18
  0
DICTIONARY
  5
19
102
{ACAD_REACTORS
330
C
102
}
330
C
100
AcDbDictionary
281
     1
  0
ACDBDICTIONARYWDFLT
  5
E
102
{ACAD_REACTORS
330
C
102
}
330
C
100
AcDbDictionary
281
     1
  3
Normal
350
F
100
AcDbDictionaryWithDefault
340
F
  0
DICTIONARY
  5
47
102
{ACAD_REACTORS
330
C
102
}
330
C
100
AcDbDictionary
281
     1
  3
A0
350
48
  3
A1
350
49
  3
A2
350
4A
  3
A3
350
4B
  3
A4
350
4C
  3
A5
350
4D
  3
A6
350
4E
  3
A7
350
4F
  3
A8
350
50
  3
A9
350
51
  3
B0
350
52
  3
B1
350
53
  3
B2
350
54
  3
B3
350
55
  3
B4
350
56
  3
B5
350
57
  3
B6
350
58
  3
B7
350
59
  3
B8
350
5A
  3
B9
350
5B
  3
C0
350
5C
  3
C1
350
5D
  3
C2
350
5E
  3
C3
350
5F
  3
C4
350
60
  3
C5
350
61
  3
C6
350
62
  3
C7
350
63
  3
C8
350
64
  3
C9
350
65
  3
D0
350
66
  3
D1
350
67
  3
D2
350
68
  0
LAYOUT
  5
26
102
{ACAD_REACTORS
330
1A
102
}
330
1A
100
AcDbPlotSettings
  1

  2
none_device
  4
ISO_A4_(210.00_x_297.00_MM)
  6

 40
7.5
 41
20.0
 42
7.5
 43
20.0
 44
210.0
 45
297.0
 46
0.0
 47
0.0
 48
0.0
 49
0.0
140
0.0
141
0.0
142
1.0
143
0.1538461538
 70
   688
 72
     1
 73
     1
 74
     1
  7

 75
     0
147
6.5
148
2.0
149
15.0
100
AcDbLayout
  1
_Frontal
 70
     1
 71
     2
 10
0.0
 20
0.0
 11
0.0
 21
0.0
 12
0.0
 22
0.0
 32
0.0
 14
0.0
 24
0.0
 34
0.0
 15
0.0
 25
0.0
 35
0.0
146
0.0
 13
0.0
 23
0.0
 33
0.0
 16
1.0
 26
0.0
 36
0.0
 17
0.0
 27
1.0
 37
0.0
 76
     0
330
23
331
130
  0
LAYOUT
  5
DA
102
{ACAD_REACTORS
330
1A
102
}
330
1A
100
AcDbPlotSettings
  1

  2
none_device
  4
ANSI_A_(11.00_x_8.50_Inches)
  6

 40
6.35
 41
19.05
 42
6.35000508
 43
19.05000254
 44
279.4
 45
215.9
 46
133.34999746
 47
98.12019873
 48
0.0
 49
0.0
140
0.0
141
0.0
142
0.363
143
1.0
 70
  1696
 72
     0
 73
     0
 74
     1
  7

 75
     0
147
0.3499999933
148
381.0
149
228.6
100
AcDbLayout
  1
_Isométrica
 70
     1
 71
     3
 10
0.0
 20
0.0
 11
0.0
 21
0.0
 12
0.0
 22
0.0
 32
0.0
 14
-15.0
 24
-9.0
 34
0.0
 15
15.0
 25
7.0
 35
0.0
146
0.0
 13
0.0
 23
0.0
 33
0.0
 16
1.0
 26
0.0
 36
0.0
 17
0.0
 27
1.0
 37
0.0
 76
     0
330
D9
331
132
  0
LAYOUT
  5
1E
102
{ACAD_REACTORS
330
1A
102
}
330
1A
100
AcDbPlotSettings
  1

  2
none_device
  4
ISO_A4_(210.00_x_297.00_MM)
  6

 40
7.5
 41
20.0
 42
7.5
 43
20.0
 44
210.0
 45
297.0
 46
0.0
 47
0.0
 48
0.0
 49
0.0
140
0.0
141
0.0
142
1.0
143
0.1538461538
 70
   688
 72
     1
 73
     1
 74
     1
  7

 75
     0
147
6.5
148
2.0
149
15.0
100
AcDbLayout
  1
_Superior
 70
     1
 71
     1
 10
-5.0769230769
 20
-16.1538461538
 11
40.6153846154
 21
16.1538461538
 12
0.0
 22
0.0
 32
0.0
 14
1.0000000000E+20
 24
1.0000000000E+20
 34
1.0000000000E+20
 15
-1.0000000000E+20
 25
-1.0000000000E+20
 35
-1.0000000000E+20
146
0.0
 13
0.0
 23
0.0
 33
0.0
 16
1.0
 26
0.0
 36
0.0
 17
0.0
 27
1.0
 37
0.0
 76
     0
330
1B
331
12E
  0
LAYOUT
  5
22
102
{ACAD_REACTORS
330
1A
102
}
330
1A
100
AcDbPlotSettings
  1

  2
none_device
  4
Letter_(8.50_x_11.00_Inches)
  6

 40
6.35
 41
6.35
 42
6.35000508
 43
6.35000508
 44
215.9
 45
279.4
 46
0.0
 47
0.0
 48
0.0
 49
0.0
140
0.0
141
0.0
142
1.0
143
1.0
 70
  1712
 72
     1
 73
     0
 74
     0
  7

 75
     0
147
1.0
148
0.0
149
0.0
100
AcDbLayout
  1
Model
 70
     1
 71
     0
 10
0.0
 20
0.0
 11
420.0
 21
297.0
 12
0.0
 22
0.0
 32
0.0
 14
-15.0
 24
-9.0
 34
0.0
 15
15.0
 25
7.0
 35
0.0
146
0.0
 13
0.0
 23
0.0
 33
0.0
 16
1.0
 26
0.0
 36
0.0
 17
0.0
 27
1.0
 37
0.0
 76
     0
330
1F
331
29
  0
MLINESTYLE
  5
18
102
{ACAD_REACTORS
330
17
102
}
330
17
100
AcDbMlineStyle
  2
Standard
 70
     0
  3

 62
   256
 51
90.0
 52
90.0
 71
     2
 49
0.5
 62
   256
  6
BYLAYER
 49
-0.5
 62
   256
  6
BYLAYER
  0
ACDBPLACEHOLDER
  5
F
102
{ACAD_REACTORS
330
E
102
}
330
E
  0
SCALE
  5
48
102
{ACAD_REACTORS
330
47
102
}
330
47
100
AcDbScale
 70
     0
300
1:1
140
1.0
141
1.0
290
     1
  0
SCALE
  5
49
102
{ACAD_REACTORS
330
47
102
}
330
47
100
AcDbScale
 70
     0
300
1:2
140
1.0
141
2.0
290
     0
  0
SCALE
  5
4A
102
{ACAD_REACTORS
330
47
102
}
330
47
100
AcDbScale
 70
     0
300
1:4
140
1.0
141
4.0
290
     0
  0
SCALE
  5
4B
102
{ACAD_REACTORS
330
47
102
}
330
47
100
AcDbScale
 70
     0
300
1:5
140
1.0
141
5.0
290
     0
  0
SCALE
  5
4C
102
{ACAD_REACTORS
330
47
102
}
330
47
100
AcDbScale
 70
     0
300
1:8
140
1.0
141
8.0
290
     0
  0
SCALE
  5
4D
102
{ACAD_REACTORS
330
47
102
}
330
47
100
AcDbScale
 70
     0
300
1:10
140
1.0
141
10.0
290
     0
  0
SCALE
  5
4E
102
{ACAD_REACTORS
330
47
102
}
330
47
100
AcDbScale
 70
     0
300
1:16
140
1.0
141
16.0
290
     0
  0
SCALE
  5
4F
102
{ACAD_REACTORS
330
47
102
}
330
47
100
AcDbScale
 70
     0
300
1:20
140
1.0
141
20.0
290
     0
  0
SCALE
  5
50
102
{ACAD_REACTORS
330
47
102
}
330
47
100
AcDbScale
 70
     0
300
1:30
140
1.0
141
30.0
290
     0
  0
SCALE
  5
51
102
{ACAD_REACTORS
330
47
102
}
330
47
100
AcDbScale
 70
     0
300
1:40
140
1.0
141
40.0
290
     0
  0
SCALE
  5
52
102
{ACAD_REACTORS
330
47
102
}
330
47
100
AcDbScale
 70
     0
300
1:50
140
1.0
141
50.0
290
     0
  0
SCALE
  5
53
102
{ACAD_REACTORS
330
47
102
}
330
47
100
AcDbScale
 70
     0
300
1:100
140
1.0
141
100.0
290
     0
  0
SCALE
  5
54
102
{ACAD_REACTORS
330
47
102
}
330
47
100
AcDbScale
 70
     0
300
2:1
140
2.0
141
1.0
290
     0
  0
SCALE
  5
55
102
{ACAD_REACTORS
330
47
102
}
330
47
100
AcDbScale
 70
     0
300
4:1
140
4.0
141
1.0
290
     0
  0
SCALE
  5
56
102
{ACAD_REACTORS
330
47
102
}
330
47
100
AcDbScale
 70
     0
300
8:1
140
8.0
141
1.0
290
     0
  0
SCALE
  5
57
102
{ACAD_REACTORS
330
47
102
}
330
47
100
AcDbScale
 70
     0
300
10:1
140
10.0
141
1.0
290
     0
  0
SCALE
  5
58
102
{ACAD_REACTORS
330
47
102
}
330
47
100
AcDbScale
 70
     0
300
100:1
140
100.0
141
1.0
290
     0
  0
SCALE
  5
59
102
{ACAD_REACTORS
330
47
102
}
330
47
100
AcDbScale
 70
     0
300
1/128" = 1'-0"
140
0.0078125
141
12.0
290
     0
  0
SCALE
  5
5A
102
{ACAD_REACTORS
330
47
102
}
330
47
100
AcDbScale
 70
     0
300
1/64" = 1'-0"
140
0.015625
141
12.0
290
     0
  0
SCALE
  5
5B
102
{ACAD_REACTORS
330
47
102
}
330
47
100
AcDbScale
 70
     0
300
1/32" = 1'-0"
140
0.03125
141
12.0
290
     0
  0
SCALE
  5
5C
102
{ACAD_REACTORS
330
47
102
}
330
47
100
AcDbScale
 70
     0
300
1/16" = 1'-0"
140
0.0625
141
12.0
290
     0
  0
SCALE
  5
5D
102
{ACAD_REACTORS
330
47
102
}
330
47
100
AcDbScale
 70
     0
300
3/32" = 1'-0"
140
0.09375
141
12.0
290
     0
  0
SCALE
  5
5E
102
{ACAD_REACTORS
330
47
102
}
330
47
100
AcDbScale
 70
     0
300
1/8" = 1'-0"
140
0.125
141
12.0
290
     0
  0
SCALE
  5
5F
102
{ACAD_REACTORS
330
47
102
}
330
47
100
AcDbScale
 70
     0
300
3/16" = 1'-0"
140
0.1875
141
12.0
290
     0
  0
SCALE
  5
60
102
{ACAD_REACTORS
330
47
102
}
330
47
100
AcDbScale
 70
     0
300
1/4" = 1'-0"
140
0.25
141
12.0
290
     0
  0
SCALE
  5
61
102
{ACAD_REACTORS
330
47
102
}
330
47
100
AcDbScale
 70
     0
300
3/8" = 1'-0"
140
0.375
141
12.0
290
     0
  0
SCALE
  5
62
102
{ACAD_REACTORS
330
47
102
}
330
47
100
AcDbScale
 70
     0
300
1/2" = 1'-0"
140
0.5
141
12.0
290
     0
  0
SCALE
  5
63
102
{ACAD_REACTORS
330
47
102
}
330
47
100
AcDbScale
 70
     0
300
3/4" = 1'-0"
140
0.75
141
12.0
290
     0
  0
SCALE
  5
64
102
{ACAD_REACTORS
330
47
102
}
330
47
100
AcDbScale
 70
     0
300
1" = 1'-0"
140
1.0
141
12.0
290
     0
  0
SCALE
  5
65
102
{ACAD_REACTORS
330
47
102
}
330
47
100
AcDbScale
 70
     0
300
1-1/2" = 1'-0"
140
1.5
141
12.0
290
     0
  0
SCALE
  5
66
102
{ACAD_REACTORS
330
47
102
}
330
47
100
AcDbScale
 70
     0
300
3" = 1'-0"
140
3.0
141
12.0
290
     0
  0
SCALE
  5
67
102
{ACAD_REACTORS
330
47
102
}
330
47
100
AcDbScale
 70
     0
300
6" = 1'-0"
140
6.0
141
12.0
290
     0
  0
SCALE
  5
68
102
{ACAD_REACTORS
330
47
102
}
330
47
100
AcDbScale
 70
     0
300
1'-0" = 1'-0"
140
12.0
141
12.0
290
     0
  0
ENDSEC
  0
EOF
