  0
SECTION
  2
HEADER
  9
$ACADVER
  1
AC1015
  9
$ACADMAINTVER
 70
     6
  9
$DWGCODEPAGE
  3
ANSI_1252
  9
$INSBASE
 10
0.0
 20
0.0
 30
0.0
  9
$EXTMIN
 10
-16.3475904833
 20
-15.0313199334
 30
0.0
  9
$EXTMAX
 10
16.3596759685
 20
15.0294822551
 30
0.0
  9
$LIMMIN
 10
0.0
 20
0.0
  9
$LIMMAX
 10
420.0
 20
297.0
  9
$ORTHOMODE
 70
     0
  9
$REGENMODE
 70
     1
  9
$FILLMODE
 70
     1
  9
$QTEXTMODE
 70
     0
  9
$MIRRTEXT
 70
     1
  9
$LTSCALE
 40
1.0
  9
$ATTMODE
 70
     1
  9
$TEXTSIZE
 40
3.5
  9
$TRACEWID
 40
1.0
  9
$TEXTSTYLE
  7
Standard
  9
$CLAYER
  8
0
  9
$CELTYPE
  6
ByLayer
  9
$CECOLOR
 62
   256
  9
$CELTSCALE
 40
1.0
  9
$DISPSILH
 70
     0
  9
$DIMSCALE
 40
1.0
  9
$DIMASZ
 40
3.302
  9
$DIMEXO
 40
1.0
  9
$DIMDLI
 40
3.75
  9
$DIMRND
 40
0.0
  9
$DIMDLE
 40
0.0
  9
$DIMEXE
 40
1.0
  9
$DIMTP
 40
0.0
  9
$DIMTM
 40
0.0
  9
$DIMTXT
 40
3.5
  9
$DIMCEN
 40
2.5
  9
$DIMTSZ
 40
0.0
  9
$DIMTOL
 70
     0
  9
$DIMLIM
 70
     0
  9
$DIMTIH
 70
     1
  9
$DIMTOH
 70
     1
  9
$DIMSE1
 70
     0
  9
$DIMSE2
 70
     0
  9
$DIMTAD
 70
     1
  9
$DIMZIN
 70
     0
  9
$DIMBLK
  1

  9
$DIMASO
 70
     1
  9
$DIMSHO
 70
     1
  9
$DIMPOST
  1

  9
$DIMAPOST
  1

  9
$DIMALT
 70
     0
  9
$DIMALTD
 70
     3
  9
$DIMALTF
 40
0.0393700787
  9
$DIMLFAC
 40
1.0
  9
$DIMTOFL
 70
     1
  9
$DIMTVP
 40
0.0
  9
$DIMTIX
 70
     0
  9
$DIMSOXD
 70
     0
  9
$DIMSAH
 70
     0
  9
$DIMBLK1
  1

  9
$DIMBLK2
  1

  9
$DIMSTYLE
  2
ISO-25
  9
$DIMCLRD
 70
     0
  9
$DIMCLRE
 70
     0
  9
$DIMCLRT
 70
     0
  9
$DIMTFAC
 40
1.0
  9
$DIMGAP
 40
1.524
  9
$DIMJUST
 70
     0
  9
$DIMSD1
 70
     0
  9
$DIMSD2
 70
     0
  9
$DIMTOLJ
 70
     0
  9
$DIMTZIN
 70
     0
  9
$DIMALTZ
 70
     0
  9
$DIMALTTZ
 70
     0
  9
$DIMUPT
 70
     0
  9
$DIMDEC
 70
     2
  9
$DIMTDEC
 70
     2
  9
$DIMALTU
 70
     2
  9
$DIMALTTD
 70
     3
  9
$DIMTXSTY
  7
Standard
  9
$DIMAUNIT
 70
     0
  9
$DIMADEC
 70
     2
  9
$DIMALTRND
 40
0.0
  9
$DIMAZIN
 70
     0
  9
$DIMDSEP
 70
    44
  9
$DIMATFIT
 70
     3
  9
$DIMFRAC
 70
     0
  9
$DIMLDRBLK
  1

  9
$DIMLUNIT
 70
     2
  9
$DIMLWD
 70
    -2
  9
$DIMLWE
 70
    -2
  9
$DIMTMOVE
 70
     0
  9
$LUNITS
 70
     2
  9
$LUPREC
 70
     2
  9
$SKETCHINC
 40
1.0
  9
$FILLETRAD
 40
10.0
  9
$AUNITS
 70
     0
  9
$AUPREC
 70
     2
  9
$MENU
  1
.
  9
$ELEVATION
 40
0.0
  9
$PELEVATION
 40
0.0
  9
$THICKNESS
 40
0.0
  9
$LIMCHECK
 70
     0
  9
$CHAMFERA
 40
0.0
  9
$CHAMFERB
 40
0.0
  9
$CHAMFERC
 40
0.0
  9
$CHAMFERD
 40
0.0
  9
$SKPOLY
 70
     0
  9
$TDCREATE
 40
2458564.629788866
  9
$TDUCREATE
 40
2458564.754788866
  9
$TDUPDATE
 40
2458564.6304286
  9
$TDUUPDATE
 40
2458564.7554286
  9
$TDINDWG
 40
0.0000000116
  9
$TDUSRTIMER
 40
0.0000000116
  9
$USRTIMER
 70
     1
  9
$ANGBASE
 50
0.0
  9
$ANGDIR
 70
     0
  9
$PDMODE
 70
     0
  9
$PDSIZE
 40
-1.0
  9
$PLINEWID
 40
0.0
  9
$SPLFRAME
 70
     0
  9
$SPLINETYPE
 70
     6
  9
$SPLINESEGS
 70
     8
  9
$HANDSEED
  5
9F
  9
$SURFTAB1
 70
     6
  9
$SURFTAB2
 70
     6
  9
$SURFTYPE
 70
     6
  9
$SURFU
 70
     6
  9
$SURFV
 70
     6
  9
$UCSBASE
  2

  9
$UCSNAME
  2

  9
$UCSORG
 10
0.0
 20
0.0
 30
0.0
  9
$UCSXDIR
 10
1.0
 20
0.0
 30
0.0
  9
$UCSYDIR
 10
0.0
 20
1.0
 30
0.0
  9
$UCSORTHOREF
  2

  9
$UCSORTHOVIEW
 70
     0
  9
$UCSORGTOP
 10
0.0
 20
0.0
 30
0.0
  9
$UCSORGBOTTOM
 10
0.0
 20
0.0
 30
0.0
  9
$UCSORGLEFT
 10
0.0
 20
0.0
 30
0.0
  9
$UCSORGRIGHT
 10
0.0
 20
0.0
 30
0.0
  9
$UCSORGFRONT
 10
0.0
 20
0.0
 30
0.0
  9
$UCSORGBACK
 10
0.0
 20
0.0
 30
0.0
  9
$PUCSBASE
  2

  9
$PUCSNAME
  2

  9
$PUCSORG
 10
0.0
 20
0.0
 30
0.0
  9
$PUCSXDIR
 10
1.0
 20
0.0
 30
0.0
  9
$PUCSYDIR
 10
0.0
 20
1.0
 30
0.0
  9
$PUCSORTHOREF
  2

  9
$PUCSORTHOVIEW
 70
     0
  9
$PUCSORGTOP
 10
0.0
 20
0.0
 30
0.0
  9
$PUCSORGBOTTOM
 10
0.0
 20
0.0
 30
0.0
  9
$PUCSORGLEFT
 10
0.0
 20
0.0
 30
0.0
  9
$PUCSORGRIGHT
 10
0.0
 20
0.0
 30
0.0
  9
$PUCSORGFRONT
 10
0.0
 20
0.0
 30
0.0
  9
$PUCSORGBACK
 10
0.0
 20
0.0
 30
0.0
  9
$USERI1
 70
     0
  9
$USERI2
 70
     0
  9
$USERI3
 70
     0
  9
$USERI4
 70
     0
  9
$USERI5
 70
     0
  9
$USERR1
 40
0.0
  9
$USERR2
 40
0.0
  9
$USERR3
 40
0.0
  9
$USERR4
 40
0.0
  9
$USERR5
 40
0.0
  9
$WORLDVIEW
 70
     1
  9
$SHADEDGE
 70
     3
  9
$SHADEDIF
 70
    70
  9
$TILEMODE
 70
     1
  9
$MAXACTVP
 70
    64
  9
$PINSBASE
 10
0.0
 20
0.0
 30
0.0
  9
$PLIMCHECK
 70
     0
  9
$PEXTMIN
 10
-15.0
 20
-15.0
 30
0.0
  9
$PEXTMAX
 10
15.0
 20
15.0
 30
0.0
  9
$PLIMMIN
 10
-18.0769230769
 20
-16.1538461538
  9
$PLIMMAX
 10
27.6153846154
 20
16.1538461538
  9
$UNITMODE
 70
     0
  9
$VISRETAIN
 70
     1
  9
$PLINEGEN
 70
     0
  9
$PSLTSCALE
 70
     1
  9
$TREEDEPTH
 70
  3020
  9
$CMLSTYLE
  2
Standard
  9
$CMLJUST
 70
     0
  9
$CMLSCALE
 40
20.0
  9
$PROXYGRAPHICS
 70
     1
  9
$MEASUREMENT
 70
     1
  9
$CELWEIGHT
370
    -1
  9
$ENDCAPS
280
     0
  9
$JOINSTYLE
280
     0
  9
$LWDISPLAY
290
     1
  9
$INSUNITS
 70
     4
  9
$HYPERLINKBASE
  1

  9
$STYLESHEET
  1

  9
$XEDIT
290
     1
  9
$CEPSNTYPE
380
     0
  9
$PSTYLEMODE
290
     1
  9
$FINGERPRINTGUID
  2
{8F70FE8A-B105-4CF1-AB96-718428F8907C}
  9
$VERSIONGUID
  2
{FAEB1C32-E019-11D5-929B-00C0DF256EC4}
  9
$EXTNAMES
290
     1
  9
$PSVPSCALE
 40
0.0
  9
$OLESTARTUP
290
     0
  0
ENDSEC
  0
SECTION
  2
CLASSES
  0
CLASS
  1
ACDBDICTIONARYWDFLT
  2
AcDbDictionaryWithDefault
  3
ObjectDBX Classes
 90
        0
280
     0
281
     0
  0
CLASS
  1
VISUALSTYLE
  2
AcDbVisualStyle
  3
ObjectDBX Classes
 90
     4095
280
     0
281
     0
  0
CLASS
  1
MATERIAL
  2
AcDbMaterial
  3
ObjectDBX Classes
 90
     1153
280
     0
281
     0
  0
CLASS
  1
SCALE
  2
AcDbScale
  3
ObjectDBX Classes
 90
     1153
280
     0
281
     0
  0
CLASS
  1
TABLESTYLE
  2
AcDbTableStyle
  3
ObjectDBX Classes
 90
     4095
280
     0
281
     0
  0
CLASS
  1
MLEADERSTYLE
  2
AcDbMLeaderStyle
  3
ACDB_MLEADERSTYLE_CLASS
 90
     4095
280
     0
281
     0
  0
CLASS
  1
SUN
  2
AcDbSun
  3
SCENEOE
 90
     1153
280
     0
281
     0
  0
CLASS
  1
ACDBPLACEHOLDER
  2
AcDbPlaceHolder
  3
ObjectDBX Classes
 90
        0
280
     0
281
     0
  0
CLASS
  1
LAYOUT
  2
AcDbLayout
  3
ObjectDBX Classes
 90
        0
280
     0
281
     0
  0
ENDSEC
  0
SECTION
  2
TABLES
  0
TABLE
  2
VPORT
  5
8
330
0
100
AcDbSymbolTable
 70
     1
  0
VPORT
  5
29
330
8
100
AcDbSymbolTableRecord
100
AcDbViewportTableRecord
  2
*Active
 70
     0
 10
0.0
 20
0.0
 11
1.0
 21
1.0
 12
0.0060427426
 22
-0.0009188392
 13
0.0
 23
0.0
 14
10.0
 24
10.0
 15
10.0
 25
10.0
 16
0.0
 26
0.0
 36
1.0
 17
0.0
 27
0.0
 37
0.0
 40
30.6620182322
 41
1.0880370473
 42
50.0
 43
0.0
 44
0.0
 50
0.0
 51
0.0
 71
     0
 72
   100
 73
     1
 74
     3
 75
     0
 76
     0
 77
     0
 78
     0
281
     0
 65
     1
110
0.0
120
0.0
130
0.0
111
1.0
121
0.0
131
0.0
112
0.0
122
1.0
132
0.0
 79
     0
146
0.0
  0
ENDTAB
  0
TABLE
  2
LTYPE
  5
5
330
0
100
AcDbSymbolTable
 70
     6
  0
LTYPE
  5
14
330
5
100
AcDbSymbolTableRecord
100
AcDbLinetypeTableRecord
  2
ByBlock
 70
     0
  3

 72
    65
 73
     0
 40
0.0
  0
LTYPE
  5
15
330
5
100
AcDbSymbolTableRecord
100
AcDbLinetypeTableRecord
  2
ByLayer
 70
     0
  3

 72
    65
 73
     0
 40
0.0
  0
LTYPE
  5
16
330
5
100
AcDbSymbolTableRecord
100
AcDbLinetypeTableRecord
  2
Continuous
 70
     0
  3
Solid line
 72
    65
 73
     0
 40
0.0
  0
LTYPE
  5
6E
330
5
100
AcDbSymbolTableRecord
100
AcDbLinetypeTableRecord
  2
HIDDEN
 70
     0
  3
Hidden __ __ __ __ __ __ __ __ __ __ __ __ __ __
 72
    65
 73
     2
 40
1.905
 49
1.27
 74
     0
 49
-0.635
 74
     0
  0
LTYPE
  5
6F
330
5
100
AcDbSymbolTableRecord
100
AcDbLinetypeTableRecord
  2
PHANTOM
 70
     0
  3
Phantom ______  __  __  ______  __  __  ______
 72
    65
 73
     6
 40
12.7
 49
6.35
 74
     0
 49
-1.27
 74
     0
 49
1.27
 74
     0
 49
-1.27
 74
     0
 49
1.27
 74
     0
 49
-1.27
 74
     0
  0
LTYPE
  5
70
330
5
100
AcDbSymbolTableRecord
100
AcDbLinetypeTableRecord
  2
CENTER
 70
     0
  3
Center ____ _ ____ _ ____ _ ____ _ ____ _ ____
 72
    65
 73
     4
 40
10.16
 49
6.35
 74
     0
 49
-1.27
 74
     0
 49
1.27
 74
     0
 49
-1.27
 74
     0
  0
LTYPE
  5
71
330
5
100
AcDbSymbolTableRecord
100
AcDbLinetypeTableRecord
  2
CENTERX2
 70
     0
  3
Center (2x) ________  __  ________  __  _____
 72
    65
 73
     4
 40
20.32
 49
12.7
 74
     0
 49
-2.54
 74
     0
 49
2.54
 74
     0
 49
-2.54
 74
     0
  0
LTYPE
  5
72
330
5
100
AcDbSymbolTableRecord
100
AcDbLinetypeTableRecord
  2
DOT2
 70
     0
  3
Dot (.5x) ........................................
 72
    65
 73
     2
 40
0.635
 49
0.0
 74
     0
 49
-0.635
 74
     0
  0
ENDTAB
  0
TABLE
  2
LAYER
  5
2
330
0
100
AcDbSymbolTable
 70
     1
  0
LAYER
  5
10
330
2
100
AcDbSymbolTableRecord
100
AcDbLayerTableRecord
  2
0
 70
     0
 62
     7
  6
Continuous
370
    -3
390
F
  0
ENDTAB
  0
TABLE
  2
STYLE
  5
3
330
0
100
AcDbSymbolTable
 70
     1
  0
STYLE
  5
11
330
3
100
AcDbSymbolTableRecord
100
AcDbTextStyleTableRecord
  2
Standard
 70
     0
 40
0.0
 41
1.0
 50
0.0
 71
     0
 42
3.5
  3
txt
  4

  0
ENDTAB
  0
TABLE
  2
VIEW
  5
6
330
0
100
AcDbSymbolTable
 70
     0
  0
ENDTAB
  0
TABLE
  2
UCS
  5
7
330
0
100
AcDbSymbolTable
 70
     0
  0
ENDTAB
  0
TABLE
  2
APPID
  5
9
330
0
100
AcDbSymbolTable
 70
     1
  0
APPID
  5
12
330
9
100
AcDbSymbolTableRecord
100
AcDbRegAppTableRecord
  2
ACAD
 70
     0
  0
ENDTAB
  0
TABLE
  2
DIMSTYLE
  5
A
330
0
100
AcDbSymbolTable
 70
     1
100
AcDbDimStyleTable
  0
DIMSTYLE
105
27
330
A
100
AcDbSymbolTableRecord
100
AcDbDimStyleTableRecord
  2
ISO-25
 70
     0
 41
2.5
 42
0.625
 43
3.75
 44
1.25
 73
     0
 74
     0
 77
     1
 78
     8
140
2.5
141
2.5
143
0.0393700787
147
0.625
171
     3
172
     1
178
     0
271
     2
272
     2
274
     3
278
    44
283
     0
284
     8
340
11
  0
ENDTAB
  0
TABLE
  2
BLOCK_RECORD
  5
1
330
0
100
AcDbSymbolTable
 70
     1
  0
BLOCK_RECORD
  5
1F
330
1
100
AcDbSymbolTableRecord
100
AcDbBlockTableRecord
  2
*Model_Space
340
22
  0
BLOCK_RECORD
  5
1B
330
1
100
AcDbSymbolTableRecord
100
AcDbBlockTableRecord
  2
*Paper_Space
340
1E
  0
BLOCK_RECORD
  5
23
330
1
100
AcDbSymbolTableRecord
100
AcDbBlockTableRecord
  2
*Paper_Space0
340
26
  0
ENDTAB
  0
ENDSEC
  0
SECTION
  2
BLOCKS
  0
BLOCK
  5
20
330
1F
100
AcDbEntity
  8
0
100
AcDbBlockBegin
  2
*Model_Space
 70
     0
 10
0.0
 20
0.0
 30
0.0
  3
*Model_Space
  1

  0
ENDBLK
  5
21
330
1F
100
AcDbEntity
  8
0
100
AcDbBlockEnd
  0
BLOCK
  5
1C
330
1B
100
AcDbEntity
 67
     1
  8
0
100
AcDbBlockBegin
  2
*Paper_Space
 70
     0
 10
0.0
 20
0.0
 30
0.0
  3
*Paper_Space
  1

  0
ENDBLK
  5
1D
330
1B
100
AcDbEntity
 67
     1
  8
0
100
AcDbBlockEnd
  0
BLOCK
  5
24
330
23
100
AcDbEntity
  8
0
100
AcDbBlockBegin
  2
*Paper_Space0
 70
     0
 10
0.0
 20
0.0
 30
0.0
  3
*Paper_Space0
  1

  0
LINE
  5
97
330
23
100
AcDbEntity
  8
0
  6
Continuous
 62
     7
370
    15
100
AcDbLine
 10
7.0
 20
15.0
 30
0.0
 11
-7.0
 21
15.0
 31
0.0
  0
LINE
  5
98
330
23
100
AcDbEntity
  8
0
  6
Continuous
 62
     7
370
    15
100
AcDbLine
 10
-7.0
 20
-15.0
 30
0.0
 11
7.0
 21
-15.0
 31
0.0
  0
LINE
  5
99
330
23
100
AcDbEntity
  8
0
  6
Continuous
 62
     7
370
    15
100
AcDbLine
 10
7.0
 20
-15.0
 30
0.0
 11
7.0
 21
15.0
 31
0.0
  0
LINE
  5
9A
330
23
100
AcDbEntity
  8
0
  6
Continuous
 62
     7
370
    15
100
AcDbLine
 10
-7.0
 20
-15.0
 30
0.0
 11
-7.0
 21
15.0
 31
0.0
  0
VIEWPORT
  5
9D
330
23
100
AcDbEntity
  8
0
100
AcDbViewport
 10
0.0
 20
0.0
 30
0.0
 40
205.6
 41
156.0
 68
     1
 69
     1
 12
0.0060427426
 22
-0.0009188392
 13
0.0
 23
0.0
 14
10.0
 24
10.0
 15
10.0
 25
10.0
 16
0.0
 26
0.0
 36
1.0
 17
0.0
 27
0.0
 37
0.0
 42
50.0
 43
0.0
 44
0.0
 45
30.6620182322
 50
0.0
 51
0.0
 72
   100
 90
   557152
  1

281
     0
 71
     1
 74
     0
110
0.0
120
0.0
130
0.0
111
1.0
121
0.0
131
0.0
112
0.0
122
1.0
132
0.0
 79
     0
146
0.0
  0
ENDBLK
  5
25
330
23
100
AcDbEntity
  8
0
100
AcDbBlockEnd
  0
ENDSEC
  0
SECTION
  2
ENTITIES
  0
LWPOLYLINE
  5
75
330
1F
100
AcDbEntity
  8
0
  6
Continuous
 62
     7
370
    15
100
AcDbPolyline
 90
       41
 70
   128
 43
0.0
 10
-7.965005518
 20
7.9570483752
 10
-7.9738537539
 20
8.1529897457
 10
-8.0120568632
 20
8.345118364
 10
-8.0786741584
 20
8.5287033859
 10
-8.1720653006
 20
8.6992243388
 10
-8.2899306901
 20
8.8524824309
 10
-8.4293680897
 20
8.9847039394
 10
-8.5869440879
 20
9.0926331319
 10
-8.7587786406
 20
9.1736124335
 10
-8.9406406109
 20
9.225647865
 10
-9.1280519535
 20
9.2474581415
 10
-9.3163979792
 20
9.2385062215
 10
-9.5010409837
 20
9.199012531
 10
-9.6774344435
 20
9.1299495358
 10
-9.8412349661
 20
9.0330177959
 10
-9.9884092391
 20
8.9106040926
 10
-10.1153333434
 20
8.7657226574
 10
-10.2188819863
 20
8.6019409522
 10
-10.2965054567
 20
8.4232918261
 10
-10.346292407
 20
8.2341742134
 10
-10.3670169173
 20
8.0392448174
 10
-10.3581686813
 20
7.8433034469
 10
-10.3199655721
 20
7.6511748286
 10
-10.2533482769
 20
7.4675898067
 10
-10.1599571346
 20
7.2970688538
 10
-10.0420917451
 20
7.1438107617
 10
-9.9026543455
 20
7.0115892532
 10
-9.7450783473
 20
6.9036600607
 10
-9.5732437946
 20
6.8226807591
 10
-9.3913818243
 20
6.7706453275
 10
-9.2039704817
 20
6.7488350511
 10
-9.015624456
 20
6.7577869711
 10
-8.8309814515
 20
6.7972806616
 10
-8.6545879918
 20
6.8663436568
 10
-8.4907874692
 20
6.9632753967
 10
-8.3436131962
 20
7.0856891
 10
-8.2166890919
 20
7.2305705352
 10
-8.1131404489
 20
7.3943522404
 10
-8.0355169785
 20
7.5730013665
 10
-7.9857300282
 20
7.7621189792
 10
-7.965005518
 20
7.9570483752
  0
LWPOLYLINE
  5
76
330
1F
100
AcDbEntity
  8
0
  6
Continuous
 62
     7
370
    15
100
AcDbPolyline
 90
       41
 70
   128
 43
0.0
 10
-8.4374115713
 20
-7.5907329366
 10
-8.4462598073
 20
-7.394791566
 10
-8.4844629165
 20
-7.2026629477
 10
-8.5510802117
 20
-7.0190779259
 10
-8.644471354
 20
-6.848556973
 10
-8.7623367435
 20
-6.6952988809
 10
-8.9017741431
 20
-6.5630773724
 10
-9.0593501413
 20
-6.4551481799
 10
-9.231184694
 20
-6.3741688783
 10
-9.4130466643
 20
-6.3221334467
 10
-9.6004580069
 20
-6.3003231702
 10
-9.7888040326
 20
-6.3092750902
 10
-9.9734470371
 20
-6.3487687807
 10
-10.1498404968
 20
-6.417831776
 10
-10.3136410194
 20
-6.5147635158
 10
-10.4608152924
 20
-6.6371772192
 10
-10.5877393967
 20
-6.7820586543
 10
-10.6912880397
 20
-6.9458403596
 10
-10.7689115101
 20
-7.1244894857
 10
-10.8186984604
 20
-7.3136070984
 10
-10.8394229706
 20
-7.5085364943
 10
-10.8305747347
 20
-7.7044778649
 10
-10.7923716254
 20
-7.8966064832
 10
-10.7257543302
 20
-8.080191505
 10
-10.632363188
 20
-8.2507124579
 10
-10.5144977985
 20
-8.40397055
 10
-10.3750603989
 20
-8.5361920585
 10
-10.2174844007
 20
-8.644121251
 10
-10.045649848
 20
-8.7251005527
 10
-9.8637878777
 20
-8.7771359842
 10
-9.6763765351
 20
-8.7989462607
 10
-9.4880305094
 20
-8.7899943407
 10
-9.3033875049
 20
-8.7505006502
 10
-9.1269940451
 20
-8.6814376549
 10
-8.9631935225
 20
-8.5845059151
 10
-8.8160192495
 20
-8.4620922118
 10
-8.6890951452
 20
-8.3172107766
 10
-8.5855465023
 20
-8.1534290714
 10
-8.5079230319
 20
-7.9747799452
 10
-8.4581360816
 20
-7.7856623325
 10
-8.4374115713
 20
-7.5907329366
  0
LWPOLYLINE
  5
77
330
1F
100
AcDbEntity
  8
0
  6
Continuous
 62
     7
370
    15
100
AcDbPolyline
 90
       41
 70
   128
 43
0.0
 10
6.5091996594
 20
-8.1022035597
 10
6.5003514234
 20
-7.9062621891
 10
6.4621483142
 20
-7.7141335708
 10
6.395531019
 20
-7.530548549
 10
6.3021398767
 20
-7.3600275961
 10
6.1842744872
 20
-7.206769504
 10
6.0448370876
 20
-7.0745479955
 10
5.8872610894
 20
-6.966618803
 10
5.7154265367
 20
-6.8856395014
 10
5.5335645664
 20
-6.8336040698
 10
5.3461532238
 20
-6.8117937933
 10
5.1578071981
 20
-6.8207457133
 10
4.9731641936
 20
-6.8602394038
 10
4.7967707339
 20
-6.9293023991
 10
4.6329702113
 20
-7.0262341389
 10
4.4857959383
 20
-7.1486478423
 10
4.358871834
 20
-7.2935292774
 10
4.255323191
 20
-7.4573109826
 10
4.1776997206
 20
-7.6359601088
 10
4.1279127703
 20
-7.8250777215
 10
4.1071882601
 20
-8.0200071174
 10
4.116036496
 20
-8.215948488
 10
4.1542396053
 20
-8.4080771063
 10
4.2208569005
 20
-8.5916621281
 10
4.3142480427
 20
-8.762183081
 10
4.4321134322
 20
-8.9154411731
 10
4.5715508318
 20
-9.0476626816
 10
4.72912683
 20
-9.1555918741
 10
4.9009613827
 20
-9.2365711757
 10
5.082823353
 20
-9.2886066073
 10
5.2702346956
 20
-9.3104168838
 10
5.4585807213
 20
-9.3014649638
 10
5.6432237258
 20
-9.2619712733
 10
5.8196171856
 20
-9.192908278
 10
5.9834177082
 20
-9.0959765382
 10
6.1305919812
 20
-8.9735628348
 10
6.2575160855
 20
-8.8286813997
 10
6.3610647284
 20
-8.6648996945
 10
6.4386881988
 20
-8.4862505683
 10
6.4884751491
 20
-8.2971329556
 10
6.5091996594
 20
-8.1022035597
  0
LWPOLYLINE
  5
78
330
1F
100
AcDbEntity
  8
0
  6
Continuous
 62
     7
370
    15
100
AcDbPolyline
 90
       41
 70
   128
 43
0.0
 10
6.9816057127
 20
7.4455777521
 10
6.9727574768
 20
7.6415191226
 10
6.9345543675
 20
7.8336477409
 10
6.8679370723
 20
8.0172327628
 10
6.7745459301
 20
8.1877537157
 10
6.6566805406
 20
8.3410118078
 10
6.517243141
 20
8.4732333163
 10
6.3596671428
 20
8.5811625088
 10
6.1878325901
 20
8.6621418104
 10
6.0059706198
 20
8.714177242
 10
5.8185592772
 20
8.7359875184
 10
5.6302132515
 20
8.7270355984
 10
5.445570247
 20
8.6875419079
 10
5.2691767872
 20
8.6184789127
 10
5.1053762646
 20
8.5215471728
 10
4.9582019916
 20
8.3991334695
 10
4.8312778873
 20
8.2542520343
 10
4.7277292444
 20
8.0904703291
 10
4.650105774
 20
7.911821203
 10
4.6003188237
 20
7.7227035903
 10
4.5795943134
 20
7.5277741943
 10
4.5884425494
 20
7.3318328238
 10
4.6266456586
 20
7.1397042055
 10
4.6932629538
 20
6.9561191836
 10
4.7866540961
 20
6.7855982307
 10
4.9045194856
 20
6.6323401386
 10
5.0439568852
 20
6.5001186301
 10
5.2015328834
 20
6.3921894376
 10
5.3733674361
 20
6.311210136
 10
5.5552294064
 20
6.2591747045
 10
5.742640749
 20
6.237364428
 10
5.9309867747
 20
6.246316348
 10
6.1156297792
 20
6.2858100385
 10
6.2920232389
 20
6.3548730337
 10
6.4558237615
 20
6.4518047736
 10
6.6029980345
 20
6.5742184769
 10
6.7299221388
 20
6.7190999121
 10
6.8334707818
 20
6.8828816173
 10
6.9110942522
 20
7.0615307434
 10
6.9608812025
 20
7.2506483561
 10
6.9816057127
 20
7.4455777521
  0
LWPOLYLINE
  5
79
330
1F
100
AcDbEntity
  8
0
  6
Continuous
 62
     7
370
    15
100
AcDbPolyline
 90
       96
 70
   128
 43
0.0
 10
4.7967232891
 20
-0.2616294095
 10
4.7960675502
 20
0.2012530725
 10
4.7660052016
 20
0.6631178747
 10
4.7066676983
 20
1.1219453798
 10
4.6183145079
 20
1.575729252
 10
4.5013319767
 20
2.0224852098
 10
4.3562316394
 20
2.4602597031
 10
4.1836479829
 20
2.8871384555
 10
3.9843356716
 20
3.3012548346
 10
3.7591662475
 20
3.7007980151
 10
3.5091243192
 20
4.0840208962
 10
3.2353032565
 20
4.4492477418
 10
2.9389004092
 20
4.7948815077
 10
2.6212118715
 20
5.1194108256
 10
2.2836268146
 20
5.4214166112
 10
1.927621412
 20
5.6995782701
 10
1.5547523848
 20
5.9526794721
 10
1.1666501943
 20
6.1796134701
 10
0.7650119128
 20
6.3793879394
 10
0.3515938021
 20
6.5511293172
 10
-0.0717963654
 20
6.694086622
 10
-0.5033072123
 20
6.807634738
 10
-0.9410518515
 20
6.8912771481
 10
-1.3831161371
 20
6.9446481053
 10
-1.8275670343
 20
6.9675142321
 10
-2.2724610726
 20
6.9597755407
 10
-2.7158528434
 20
6.9214658703
 10
-3.1558035074
 20
6.8527527395
 10
-3.5903892723
 20
6.7539366133
 10
-4.0177098051
 20
6.6254495895
 10
-4.4358965418
 20
6.4678535091
 10
-4.8431208582
 20
6.2818374997
 10
-5.237602066
 20
6.068214962
 10
-5.6176151993
 20
5.8279200129
 10
-5.9814985573
 20
5.5620034012
 10
-6.3276609706
 20
5.2716279125
 10
-6.6545887592
 20
4.9580632849
 10
-6.960852351
 20
4.6226806569
 10
-7.2451125332
 20
4.2669465712
 10
-7.5061263083
 20
3.8924165626
 10
-7.7427523296
 20
3.5007283555
 10
-7.9539558917
 20
3.0935947026
 10
-8.1388134551
 20
2.672795896
 10
-8.2965166847
 20
2.2401719818
 10
-8.4263759844
 20
1.7976147141
 10
-8.5278235126
 20
1.3470592834
 10
-8.600415665
 20
0.8904758539
 10
-8.6438350146
 20
0.4298609488
 10
-8.6578916997
 20
-0.0327712801
 10
-8.6425242539
 20
-0.4953978598
 10
-8.5977998752
 20
-0.9559958421
 10
-8.5239141318
 20
-1.412551149
 10
-8.4211901075
 20
-1.8630673805
 10
-8.2900769881
 20
-2.3055745436
 10
-8.131148098
 20
-2.7381376671
 10
-7.9450983927
 20
-3.1588652626
 10
-7.7327414204
 20
-3.5659175953
 10
-7.495005764
 20
-3.9575147289
 10
-7.232930981
 20
-4.3319443089
 10
-6.9476630579
 20
-4.6875690499
 10
-6.6404493986
 20
-5.0228338954
 10
-6.3126333703
 20
-5.3362728175
 10
-5.965648429
 20
-5.6265152277
 10
-5.6010118518
 20
-5.8922919696
 10
-5.2203181014
 20
-6.1324408693
 10
-4.8252318549
 20
-6.3459118166
 10
-4.4174807239
 20
-6.5317713575
 10
-3.9988477003
 20
-6.6892067754
 10
-3.5711633598
 20
-6.8175296454
 10
-3.1362978572
 20
-6.9161788442
 10
-2.6961527487
 20
-6.9847230038
 10
-2.2526526769
 20
-7.0228623983
 10
-1.8077369547
 20
-7.0304302536
 10
-1.3633510855
 20
-7.0073934776
 10
-0.9214382555
 20
-6.953852804
 10
-0.483930837
 20
-6.8700423528
 10
-0.0527419389
 20
-6.7563286056
 10
0.3702429598
 20
-6.6132088038
 10
0.7831742535
 20
-6.4413087738
 10
1.1842462988
 20
-6.2413801908
 10
1.5717053097
 20
-6.0142972915
 10
1.9438570266
 20
-5.7610530516
 10
2.2990741246
 20
-5.4827548439
 10
2.6358033298
 20
-5.1806195956
 10
2.952572211
 20
-4.8559684672
 10
3.2479956186
 20
-4.5102210755
 10
3.5207817411
 20
-4.1448892858
 10
3.7697377542
 20
-3.7615706013
 10
3.9937750366
 20
-3.3619411768
 10
4.1919139303
 20
-2.9477484903
 10
4.3632880243
 20
-2.520803701
 10
4.5071479433
 20
-2.0829737297
 10
4.6228646245
 20
-1.6361730955
 10
4.7099320683
 20
-1.182355544
 10
4.7679695509
 20
-0.7235055038
 10
4.7967232891
 20
-0.2616294095
  0
LWPOLYLINE
  5
7A
330
1F
100
AcDbEntity
  8
0
  6
Continuous
 62
     7
370
    15
100
AcDbPolyline
 90
      140
 70
   128
 43
0.0
 10
12.4831597669
 20
-0.5246580247
 10
12.4890216082
 20
0.153283127
 10
12.4654284441
 20
0.8308468196
 10
12.4124284742
 20
1.5066488292
 10
12.3301299743
 20
2.179308531
 10
12.2187010756
 20
2.8474517197
 10
12.078369421
 20
3.5097134173
 10
11.9094216999
 20
4.1647406608
 10
11.7122030628
 20
4.8111952673
 10
11.4871164163
 20
5.447756567
 10
11.2346215993
 20
6.0731241016
 10
10.9552344443
 20
6.6860202811
 10
10.6495257233
 20
7.2851929938
 10
10.3181199816
 20
7.869418164
 10
9.9616942623
 20
8.4375022534
 10
9.5809767225
 20
8.9882846985
 10
9.1767451465
 20
9.5206402824
 10
8.7498253562
 20
10.0334814333
 10
8.3010895243
 20
10.5257604459
 10
7.8314543923
 20
10.9964716226
 10
7.341879398
 20
11.4446533272
 10
6.8333647149
 20
11.8693899504
 10
6.3069492094
 20
12.2698137794
 10
5.7637083183
 20
12.6451067714
 10
5.2047518516
 20
12.9945022242
 10
4.6312217253
 20
13.3172863431
 10
4.0442896285
 20
13.6127996985
 10
3.44515463
 20
13.8804385736
 10
2.8350407282
 20
14.1196561974
 10
2.2151943508
 20
14.3299638622
 10
1.5868818084
 20
14.5109319213
 10
0.9513867077
 20
14.6621906675
 10
0.3100073286
 20
14.7834310877
 10
-0.3359460274
 20
14.8744054947
 10
-0.9851537148
 20
14.9349280331
 10
-1.6362894394
 20
14.9648750587
 10
-2.2880229683
 20
14.9641853915
 10
-2.9390228471
 20
14.9328604405
 10
-3.5879591205
 20
14.8709642006
 10
-4.2335060487
 20
14.7786231225
 10
-4.8743448165
 20
14.6560258536
 10
-5.509166227
 20
14.5034228531
 10
-6.1366733763
 20
14.3211258802
 10
-6.7555843033
 20
14.1095073572
 10
-7.3646346085
 20
13.8689996086
 10
-7.962580037
 20
13.6000939779
 10
-8.5481990205
 20
13.303339824
 10
-9.1202951731
 20
12.9793433985
 10
-9.677699735
 20
12.6287666077
 10
-10.2192739607
 20
12.2523256597
 10
-10.743911445
 20
11.850789602
 10
-11.2505403837
 20
11.4249787495
 10
-11.7381257629
 20
10.9757630096
 10
-12.2056714735
 20
10.5040601042
 10
-12.6522223465
 20
10.0108336954
 10
-13.076866104
 20
9.4970914164
 10
-13.4787352232
 20
8.9638828132
 10
-13.8570087084
 20
8.4122972005
 10
-14.2109137687
 20
7.8434614362
 10
-14.5397273962
 20
7.258537619
 10
-14.8427778436
 20
6.6587207148
 10
-15.1194459961
 20
6.0452361152
 10
-15.3691666366
 20
5.419337134
 10
-15.5914296001
 20
4.7823024471
 10
-15.7857808162
 20
4.1354334797
 10
-15.9518232364
 20
3.4800517481
 10
-16.0892176455
 20
2.8174961597
 10
-16.1976833547
 20
2.1491202775
 10
-16.2769987748
 20
1.4762895552
 10
-16.3270018688
 20
0.8003785474
 10
-16.3475904833
 20
0.1227681015
 10
-16.338722557
 20
-0.5551574632
 10
-16.3004162066
 20
-1.2320131835
 10
-16.2327496896
 20
-1.906416282
 10
-16.135861245
 20
-2.5769889919
 10
-16.0099488102
 20
-3.2423613715
 10
-15.8552696172
 20
-3.9011741031
 10
-15.6721396667
 20
-4.5520812701
 10
-15.4609330826
 20
-5.1937531065
 10
-15.222081348
 20
-5.8248787134
 10
-14.9560724232
 20
-6.4441687374
 10
-14.6634497492
 20
-7.0503580045
 10
-14.3448111375
 20
-7.6422081047
 10
-14.0008075483
 20
-8.2185099223
 10
-13.6321417613
 20
-8.7780861055
 10
-13.2395669397
 20
-9.3197934723
 10
-12.8238850912
 20
-9.8425253457
 10
-12.3859454301
 20
-10.3452138143
 10
-11.926642642
 20
-10.8268319144
 10
-11.4469150562
 20
-11.2863957279
 10
-10.9477427286
 20
-11.7229663921
 10
-10.4301454398
 20
-12.1356520183
 10
-9.8951806113
 20
-12.5236095133
 10
-9.3439411455
 20
-12.8860463023
 10
-8.7775531933
 20
-13.2222219475
 10
-8.1971738526
 20
-13.5314496616
 10
-7.6039888052
 20
-13.8130977098
 10
-6.9992098942
 20
-14.0665907015
 10
-6.3840726483
 20
-14.291410765
 10
-5.7598337575
 20
-14.4870986057
 10
-5.1277685062
 20
-14.6532544446
 10
-4.4891681675
 20
-14.7895388349
 10
-3.8453373653
 20
-14.8956733553
 10
-3.1975914089
 20
-14.9714411792
 10
-2.5472536064
 20
-15.0166875171
 10
-1.8956525604
 20
-15.0313199334
 10
-1.2441194547
 20
-15.015308535
 10
-0.5939853341
 20
-14.9686860321
 10
0.0534216147
 20
-14.891547672
 10
0.6967787765
 20
-14.7840510438
 10
1.3347718093
 20
-14.646415757
 10
1.96609733
 20
-14.4789229925
 10
2.5894655767
 20
-14.2819149287
 10
3.2036030438
 20
-14.0557940415
 10
3.8072550837
 20
-13.801022283
 10
4.3991884697
 20
-13.5181201374
 10
4.978193916
 20
-13.2076655574
 10
5.5430885476
 20
-12.8702927841
 10
6.0927183171
 20
-12.5066910507
 10
6.6259603624
 20
-12.1176031746
 10
7.1417253005
 20
-11.7038240401
 10
7.6389594533
 20
-11.2661989743
 10
8.1166469998
 20
-10.8056220201
 10
8.5738120517
 20
-10.3230341098
 10
9.0095206471
 20
-9.8194211429
 10
9.4228826583
 20
-9.2958119718
 10
9.8130536104
 20
-8.7532763
 10
10.1792364064
 20
-8.1929224969
 10
10.5206829558
 20
-7.6158953331
 10
10.8366957031
 20
-7.0233736421
 10
11.1266290522
 20
-6.4165679117
 10
11.3898906858
 20
-5.7967178114
 10
11.6259427757
 20
-5.1650896592
 10
11.8343030808
 20
-4.5229738354
 10
12.014545933
 20
-3.8716821457
 10
12.1663031065
 20
-3.2125451418
 10
12.2892645701
 20
-2.5469094028
 10
12.3831791205
 20
-1.8761347844
 10
12.4478548958
 20
-1.2015916407
 10
12.4831597669
 20
-0.5246580247
  0
LWPOLYLINE
  5
7B
330
1F
100
AcDbEntity
  8
0
  6
Continuous
 62
     7
370
    15
100
AcDbPolyline
 90
       41
 70
   128
 43
0.0
 10
-0.3938614055
 20
10.9213640057
 10
-0.4027096414
 20
11.1173053762
 10
-0.4409127507
 20
11.3094339945
 10
-0.5075300459
 20
11.4930190164
 10
-0.6009211882
 20
11.6635399693
 10
-0.7187865776
 20
11.8167980614
 10
-0.8582239772
 20
11.9490195699
 10
-1.0157999754
 20
12.0569487624
 10
-1.1876345282
 20
12.137928064
 10
-1.3694964985
 20
12.1899634956
 10
-1.5569078411
 20
12.211773772
 10
-1.7452538667
 20
12.202821852
 10
-1.9298968712
 20
12.1633281616
 10
-2.106290331
 20
12.0942651663
 10
-2.2700908536
 20
11.9973334265
 10
-2.4172651266
 20
11.8749197231
 10
-2.5441892309
 20
11.730038288
 10
-2.6477378739
 20
11.5662565827
 10
-2.7253613442
 20
11.3876074566
 10
-2.7751482945
 20
11.1984898439
 10
-2.7958728048
 20
11.003560448
 10
-2.7870245688
 20
10.8076190774
 10
-2.7488214596
 20
10.6154904591
 10
-2.6822041644
 20
10.4319054372
 10
-2.5888130221
 20
10.2613844844
 10
-2.4709476326
 20
10.1081263922
 10
-2.331510233
 20
9.9759048837
 10
-2.1739342349
 20
9.8679756912
 10
-2.0020996821
 20
9.7869963896
 10
-1.8202377118
 20
9.7349609581
 10
-1.6328263692
 20
9.7131506816
 10
-1.4444803435
 20
9.7221026016
 10
-1.2598373391
 20
9.7615962921
 10
-1.0834438793
 20
9.8306592873
 10
-0.9196433567
 20
9.9275910272
 10
-0.7724690837
 20
10.0500047305
 10
-0.6455449794
 20
10.1948861657
 10
-0.5419963364
 20
10.3586678709
 10
-0.4643728661
 20
10.5373169971
 10
-0.4145859158
 20
10.7264346097
 10
-0.3938614055
 20
10.9213640057
  0
LWPOLYLINE
  5
7C
330
1F
100
AcDbEntity
  8
0
  6
Continuous
 62
     7
370
    15
100
AcDbPolyline
 90
       41
 70
   128
 43
0.0
 10
9.8409472277
 20
-0.4342419382
 10
9.8320989917
 20
-0.2383005677
 10
9.7938958825
 20
-0.0461719494
 10
9.7272785873
 20
0.1374130725
 10
9.633887445
 20
0.3079340254
 10
9.5160220555
 20
0.4611921175
 10
9.3765846559
 20
0.593413626
 10
9.2190086578
 20
0.7013428185
 10
9.047174105
 20
0.7823221201
 10
8.8653121347
 20
0.8343575517
 10
8.6779007921
 20
0.8561678281
 10
8.4895547664
 20
0.8472159081
 10
8.3049117619
 20
0.8077222176
 10
8.1285183022
 20
0.7386592224
 10
7.9647177796
 20
0.6417274825
 10
7.8175435066
 20
0.5193137792
 10
7.6906194023
 20
0.374432344
 10
7.5870707593
 20
0.2106506388
 10
7.509447289
 20
0.0320015127
 10
7.4596603387
 20
-0.1571161
 10
7.4389358284
 20
-0.352045496
 10
7.4477840643
 20
-0.5479868665
 10
7.4859871736
 20
-0.7401154848
 10
7.5526044688
 20
-0.9237005067
 10
7.6459956111
 20
-1.0942214596
 10
7.7638610005
 20
-1.2474795517
 10
7.9032984001
 20
-1.3797010602
 10
8.0608743983
 20
-1.4876302527
 10
8.2327089511
 20
-1.5686095543
 10
8.4145709214
 20
-1.6206449858
 10
8.601982264
 20
-1.6424552623
 10
8.7903282896
 20
-1.6335033423
 10
8.9749712941
 20
-1.5940096518
 10
9.1513647539
 20
-1.5249466566
 10
9.3151652765
 20
-1.4280149167
 10
9.4623395495
 20
-1.3056012134
 10
9.5892636538
 20
-1.1607197782
 10
9.6928122968
 20
-0.996938073
 10
9.7704357671
 20
-0.8182889468
 10
9.8202227174
 20
-0.6291713342
 10
9.8409472277
 20
-0.4342419382
  0
LWPOLYLINE
  5
7D
330
1F
100
AcDbEntity
  8
0
  6
Continuous
 62
     7
370
    15
100
AcDbPolyline
 90
       41
 70
   128
 43
0.0
 10
-1.0619444531
 20
-11.0665191902
 10
-1.0707926891
 20
-10.8705778197
 10
-1.1089957983
 20
-10.6784492013
 10
-1.1756130935
 20
-10.4948641795
 10
-1.2690042358
 20
-10.3243432266
 10
-1.3868696253
 20
-10.1710851345
 10
-1.5263070249
 20
-10.038863626
 10
-1.683883023
 20
-9.9309344335
 10
-1.8557175758
 20
-9.8499551319
 10
-2.0375795461
 20
-9.7979197003
 10
-2.2249908887
 20
-9.7761094239
 10
-2.4133369144
 20
-9.7850613439
 10
-2.5979799188
 20
-9.8245550343
 10
-2.7743733786
 20
-9.8936180296
 10
-2.9381739012
 20
-9.9905497694
 10
-3.0853481742
 20
-10.1129634728
 10
-3.2122722785
 20
-10.2578449079
 10
-3.3158209215
 20
-10.4216266132
 10
-3.3934443918
 20
-10.6002757393
 10
-3.4432313421
 20
-10.789393352
 10
-3.4639558524
 20
-10.9843227479
 10
-3.4551076165
 20
-11.1802641185
 10
-3.4169045072
 20
-11.3723927368
 10
-3.350287212
 20
-11.5559777587
 10
-3.2568960697
 20
-11.7264987115
 10
-3.1390306803
 20
-11.8797568037
 10
-2.9995932807
 20
-12.0119783121
 10
-2.8420172825
 20
-12.1199075047
 10
-2.6701827297
 20
-12.2008868063
 10
-2.4883207594
 20
-12.2529222378
 10
-2.3009094168
 20
-12.2747325143
 10
-2.1125633912
 20
-12.2657805943
 10
-1.9279203867
 20
-12.2262869038
 10
-1.7515269269
 20
-12.1572239086
 10
-1.5877264043
 20
-12.0602921687
 10
-1.4405521313
 20
-11.9378784654
 10
-1.313628027
 20
-11.7929970302
 10
-1.210079384
 20
-11.629215325
 10
-1.1324559137
 20
-11.4505661988
 10
-1.0826689634
 20
-11.2614485861
 10
-1.0619444531
 20
-11.0665191902
  0
LWPOLYLINE
  5
7E
330
1F
100
AcDbEntity
  8
0
  6
Continuous
 62
     7
370
    15
100
AcDbPolyline
 90
       41
 70
   128
 43
0.0
 10
-11.2967530863
 20
0.2890867537
 10
-11.3056013222
 20
0.4850281243
 10
-11.3438044315
 20
0.6771567426
 10
-11.4104217267
 20
0.8607417644
 10
-11.503812869
 20
1.0312627173
 10
-11.6216782584
 20
1.1845208094
 10
-11.761115658
 20
1.3167423179
 10
-11.9186916562
 20
1.4246715104
 10
-12.090526209
 20
1.505650812
 10
-12.2723881793
 20
1.5576862436
 10
-12.4597995219
 20
1.5794965201
 10
-12.6481455475
 20
1.5705446001
 10
-12.832788552
 20
1.5310509096
 10
-13.0091820118
 20
1.4619879143
 10
-13.1729825344
 20
1.3650561745
 10
-13.3201568074
 20
1.2426424711
 10
-13.4470809117
 20
1.097761036
 10
-13.5506295547
 20
0.9339793307
 10
-13.628253025
 20
0.7553302046
 10
-13.6780399753
 20
0.5662125919
 10
-13.6987644856
 20
0.371283196
 10
-13.6899162496
 20
0.1753418254
 10
-13.6517131404
 20
-0.0167867929
 10
-13.5850958452
 20
-0.2003718147
 10
-13.4917047029
 20
-0.3708927676
 10
-13.3738393134
 20
-0.5241508597
 10
-13.2344019138
 20
-0.6563723682
 10
-13.0768259157
 20
-0.7643015607
 10
-12.9049913629
 20
-0.8452808624
 10
-12.7231293926
 20
-0.8973162939
 10
-12.53571805
 20
-0.9191265704
 10
-12.3473720243
 20
-0.9101746504
 10
-12.1627290198
 20
-0.8706809599
 10
-11.9863355601
 20
-0.8016179646
 10
-11.8225350375
 20
-0.7046862248
 10
-11.6753607645
 20
-0.5822725215
 10
-11.5484366602
 20
-0.4373910863
 10
-11.4448880172
 20
-0.2736093811
 10
-11.3672645469
 20
-0.0949602549
 10
-11.3174775966
 20
0.0941573578
 10
-11.2967530863
 20
0.2890867537
  0
LINE
  5
82
330
1F
100
AcDbEntity
  8
0
  6
Continuous
 62
     7
370
    15
100
AcDbLine
 10
1.6841444696
 20
15.0294822551
 30
0.0
 11
-2.1736727883
 21
14.9665235128
 31
0.0
  0
LINE
  5
83
330
1F
100
AcDbEntity
  8
0
  6
Continuous
 62
     7
370
    15
100
AcDbLine
 10
-1.6841444696
 20
-15.0294822551
 30
0.0
 11
2.1736727883
 21
-14.9665235128
 31
0.0
  0
ARC
  5
84
330
1F
100
AcDbEntity
  8
0
  6
Continuous
 62
     7
370
    15
100
AcDbCircle
 10
1.6107596124
 20
0.2807484673
 30
0.0
 40
14.74891635606435
100
AcDbArc
 50
357.1145602865
 51
89.7149173643
  0
ARC
  5
85
330
1F
100
AcDbEntity
  8
0
  6
Continuous
 62
     7
370
    15
100
AcDbCircle
 10
1.6598223742
 20
-0.2933989433
 30
0.0
 40
14.68211929112049
100
AcDbArc
 50
272.005669152
 51
359.343207195
  0
ARC
  5
86
330
1F
100
AcDbEntity
  8
0
  6
Continuous
 62
     7
370
    15
100
AcDbCircle
 10
2.2457914978
 20
0.0366508309
 30
0.0
 40
7.07229365555406
100
AcDbArc
 50
109.4522193183
 51
252.4177241118
  0
CIRCLE
  5
87
330
1B
100
AcDbEntity
 67
     1
  8
0
  6
Continuous
 62
     7
370
    15
100
AcDbCircle
 10
7.7781745931
 20
7.7781745931
 30
0.0
 40
1.250000000000131
  0
CIRCLE
  5
88
330
1B
100
AcDbEntity
 67
     1
  8
0
  6
Continuous
 62
     7
370
    15
100
AcDbCircle
 10
11.0
 20
0.0
 30
0.0
 40
1.250000000000112
  0
CIRCLE
  5
89
330
1B
100
AcDbEntity
 67
     1
  8
0
  6
Continuous
 62
     7
370
    15
100
AcDbCircle
 10
7.7781745931
 20
-7.7781745931
 30
0.0
 40
1.250000000000093
  0
CIRCLE
  5
8A
330
1B
100
AcDbEntity
 67
     1
  8
0
  6
Continuous
 62
     7
370
    15
100
AcDbCircle
 10
0.0
 20
-11.0
 30
0.0
 40
1.250000000000068
  0
CIRCLE
  5
8B
330
1B
100
AcDbEntity
 67
     1
  8
0
  6
Continuous
 62
     7
370
    15
100
AcDbCircle
 10
-7.7781745931
 20
-7.7781745931
 30
0.0
 40
1.250000000000053
  0
CIRCLE
  5
8C
330
1B
100
AcDbEntity
 67
     1
  8
0
  6
Continuous
 62
     7
370
    15
100
AcDbCircle
 10
-7.7781745931
 20
7.7781745931
 30
0.0
 40
1.25000000000002
  0
CIRCLE
  5
8D
330
1B
100
AcDbEntity
 67
     1
  8
0
  6
Continuous
 62
     7
370
    15
100
AcDbCircle
 10
0.0
 20
11.0
 30
0.0
 40
1.249999999999999
  0
CIRCLE
  5
8E
330
1B
100
AcDbEntity
 67
     1
  8
0
  6
Continuous
 62
     7
370
    15
100
AcDbCircle
 10
0.0
 20
0.0
 30
0.0
 40
7.000000000000001
  0
CIRCLE
  5
8F
330
1B
100
AcDbEntity
 67
     1
  8
0
  6
Continuous
 62
     7
370
    15
100
AcDbCircle
 10
0.0
 20
0.0
 30
0.0
 40
15.00000000000002
  0
CIRCLE
  5
90
330
1B
100
AcDbEntity
 67
     1
  8
0
  6
Continuous
 62
     7
370
    15
100
AcDbCircle
 10
-11.0
 20
0.0
 30
0.0
 40
1.250000000000037
  0
VIEWPORT
  5
9B
330
1B
100
AcDbEntity
 67
     1
  8
0
100
AcDbViewport
 10
0.0
 20
0.0
 30
0.0
 40
205.6
 41
156.0
 68
     1
 69
     1
 12
0.0060427426
 22
-0.0009188392
 13
0.0
 23
0.0
 14
10.0
 24
10.0
 15
10.0
 25
10.0
 16
0.0
 26
0.0
 36
1.0
 17
0.0
 27
0.0
 37
0.0
 42
50.0
 43
0.0
 44
0.0
 45
30.6620182322
 50
0.0
 51
0.0
 72
   100
 90
   557152
  1

281
     0
 71
     1
 74
     0
110
0.0
120
0.0
130
0.0
111
1.0
121
0.0
131
0.0
112
0.0
122
1.0
132
0.0
 79
     0
146
0.0
  0
ENDSEC
  0
SECTION
  2
OBJECTS
  0
DICTIONARY
  5
C
330
0
100
AcDbDictionary
281
     1
  3
ACAD_GROUP
350
D
  3
ACAD_LAYOUT
350
1A
  3
ACAD_MLINESTYLE
350
17
  3
ACAD_PLOTSETTINGS
350
19
  3
ACAD_PLOTSTYLENAME
350
E
  3
ACAD_SCALELIST
350
47
  0
DICTIONARY
  5
D
102
{ACAD_REACTORS
330
C
102
}
330
C
100
AcDbDictionary
281
     1
  0
DICTIONARY
  5
1A
102
{ACAD_REACTORS
330
C
102
}
330
C
100
AcDbDictionary
281
     1
  3
_Direita
350
26
  3
_Posterior
350
1E
  3
Model
350
22
  0
DICTIONARY
  5
17
102
{ACAD_REACTORS
330
C
102
}
330
C
100
AcDbDictionary
281
     1
  3
Standard
350
18
  0
DICTIONARY
  5
19
102
{ACAD_REACTORS
330
C
102
}
330
C
100
AcDbDictionary
281
     1
  0
ACDBDICTIONARYWDFLT
  5
E
102
{ACAD_REACTORS
330
C
102
}
330
C
100
AcDbDictionary
281
     1
  3
Normal
350
F
100
AcDbDictionaryWithDefault
340
F
  0
DICTIONARY
  5
47
102
{ACAD_REACTORS
330
C
102
}
330
C
100
AcDbDictionary
281
     1
  3
A0
350
48
  3
A1
350
49
  3
A2
350
4A
  3
A3
350
4B
  3
A4
350
4C
  3
A5
350
4D
  3
A6
350
4E
  3
A7
350
4F
  3
A8
350
50
  3
A9
350
51
  3
B0
350
52
  3
B1
350
53
  3
B2
350
54
  3
B3
350
55
  3
B4
350
56
  3
B5
350
57
  3
B6
350
58
  3
B7
350
59
  3
B8
350
5A
  3
B9
350
5B
  3
C0
350
5C
  3
C1
350
5D
  3
C2
350
5E
  3
C3
350
5F
  3
C4
350
60
  3
C5
350
61
  3
C6
350
62
  3
C7
350
63
  3
C8
350
64
  3
C9
350
65
  3
D0
350
66
  3
D1
350
67
  3
D2
350
68
  0
LAYOUT
  5
26
102
{ACAD_REACTORS
330
1A
102
}
330
1A
100
AcDbPlotSettings
  1

  2
none_device
  4
ISO_A4_(210.00_x_297.00_MM)
  6

 40
7.5
 41
20.0
 42
7.5
 43
20.0
 44
210.0
 45
297.0
 46
0.0
 47
0.0
 48
0.0
 49
0.0
140
0.0
141
0.0
142
1.0
143
0.1538461538
 70
   688
 72
     1
 73
     1
 74
     1
  7

 75
     0
147
6.5
148
15.0
149
15.0
100
AcDbLayout
  1
_Direita
 70
     1
 71
     2
 10
0.0
 20
0.0
 11
0.0
 21
0.0
 12
0.0
 22
0.0
 32
0.0
 14
0.0
 24
0.0
 34
0.0
 15
0.0
 25
0.0
 35
0.0
146
0.0
 13
0.0
 23
0.0
 33
0.0
 16
1.0
 26
0.0
 36
0.0
 17
0.0
 27
1.0
 37
0.0
 76
     0
330
23
331
9D
  0
LAYOUT
  5
1E
102
{ACAD_REACTORS
330
1A
102
}
330
1A
100
AcDbPlotSettings
  1

  2
none_device
  4
ISO_A4_(210.00_x_297.00_MM)
  6

 40
7.5
 41
20.0
 42
7.5
 43
20.0
 44
210.0
 45
297.0
 46
0.0
 47
0.0
 48
0.0
 49
0.0
140
0.0
141
0.0
142
1.0
143
0.1538461538
 70
   688
 72
     1
 73
     1
 74
     1
  7

 75
     0
147
6.5
148
15.0
149
15.0
100
AcDbLayout
  1
_Posterior
 70
     1
 71
     1
 10
-18.0769230769
 20
-16.1538461538
 11
27.6153846154
 21
16.1538461538
 12
0.0
 22
0.0
 32
0.0
 14
-15.0
 24
-15.0
 34
0.0
 15
15.0
 25
15.0
 35
0.0
146
0.0
 13
0.0
 23
0.0
 33
0.0
 16
1.0
 26
0.0
 36
0.0
 17
0.0
 27
1.0
 37
0.0
 76
     0
330
1B
331
9B
  0
LAYOUT
  5
22
102
{ACAD_REACTORS
330
1A
102
}
330
1A
100
AcDbPlotSettings
  1

  2
none_device
  4
ANSI_A_(11.00_x_8.50_Inches)
  6

 40
6.35
 41
19.05
 42
6.35000508
 43
19.05000254
 44
279.4
 45
215.9
 46
133.3070318121
 47
88.9065319424
 48
0.0
 49
0.0
140
0.0
141
0.0
142
0.2799326494
143
1.0
 70
  1696
 72
     0
 73
     0
 74
     0
  7

 75
     0
147
0.0179189148
148
-1300.4909072572
149
0.0
100
AcDbLayout
  1
Model
 70
     1
 71
     0
 10
0.0
 20
0.0
 11
420.0
 21
297.0
 12
0.0
 22
0.0
 32
0.0
 14
-16.3475904833
 24
-15.0313199334
 34
0.0
 15
16.3596759685
 25
15.0294822551
 35
0.0
146
0.0
 13
0.0
 23
0.0
 33
0.0
 16
1.0
 26
0.0
 36
0.0
 17
0.0
 27
1.0
 37
0.0
 76
     0
330
1F
331
29
  0
MLINESTYLE
  5
18
102
{ACAD_REACTORS
330
17
102
}
330
17
100
AcDbMlineStyle
  2
Standard
 70
     0
  3

 62
   256
 51
90.0
 52
90.0
 71
     2
 49
0.5
 62
   256
  6
BYLAYER
 49
-0.5
 62
   256
  6
BYLAYER
  0
ACDBPLACEHOLDER
  5
F
102
{ACAD_REACTORS
330
E
102
}
330
E
  0
SCALE
  5
48
102
{ACAD_REACTORS
330
47
102
}
330
47
100
AcDbScale
 70
     0
300
1:1
140
1.0
141
1.0
290
     1
  0
SCALE
  5
49
102
{ACAD_REACTORS
330
47
102
}
330
47
100
AcDbScale
 70
     0
300
1:2
140
1.0
141
2.0
290
     0
  0
SCALE
  5
4A
102
{ACAD_REACTORS
330
47
102
}
330
47
100
AcDbScale
 70
     0
300
1:4
140
1.0
141
4.0
290
     0
  0
SCALE
  5
4B
102
{ACAD_REACTORS
330
47
102
}
330
47
100
AcDbScale
 70
     0
300
1:5
140
1.0
141
5.0
290
     0
  0
SCALE
  5
4C
102
{ACAD_REACTORS
330
47
102
}
330
47
100
AcDbScale
 70
     0
300
1:8
140
1.0
141
8.0
290
     0
  0
SCALE
  5
4D
102
{ACAD_REACTORS
330
47
102
}
330
47
100
AcDbScale
 70
     0
300
1:10
140
1.0
141
10.0
290
     0
  0
SCALE
  5
4E
102
{ACAD_REACTORS
330
47
102
}
330
47
100
AcDbScale
 70
     0
300
1:16
140
1.0
141
16.0
290
     0
  0
SCALE
  5
4F
102
{ACAD_REACTORS
330
47
102
}
330
47
100
AcDbScale
 70
     0
300
1:20
140
1.0
141
20.0
290
     0
  0
SCALE
  5
50
102
{ACAD_REACTORS
330
47
102
}
330
47
100
AcDbScale
 70
     0
300
1:30
140
1.0
141
30.0
290
     0
  0
SCALE
  5
51
102
{ACAD_REACTORS
330
47
102
}
330
47
100
AcDbScale
 70
     0
300
1:40
140
1.0
141
40.0
290
     0
  0
SCALE
  5
52
102
{ACAD_REACTORS
330
47
102
}
330
47
100
AcDbScale
 70
     0
300
1:50
140
1.0
141
50.0
290
     0
  0
SCALE
  5
53
102
{ACAD_REACTORS
330
47
102
}
330
47
100
AcDbScale
 70
     0
300
1:100
140
1.0
141
100.0
290
     0
  0
SCALE
  5
54
102
{ACAD_REACTORS
330
47
102
}
330
47
100
AcDbScale
 70
     0
300
2:1
140
2.0
141
1.0
290
     0
  0
SCALE
  5
55
102
{ACAD_REACTORS
330
47
102
}
330
47
100
AcDbScale
 70
     0
300
4:1
140
4.0
141
1.0
290
     0
  0
SCALE
  5
56
102
{ACAD_REACTORS
330
47
102
}
330
47
100
AcDbScale
 70
     0
300
8:1
140
8.0
141
1.0
290
     0
  0
SCALE
  5
57
102
{ACAD_REACTORS
330
47
102
}
330
47
100
AcDbScale
 70
     0
300
10:1
140
10.0
141
1.0
290
     0
  0
SCALE
  5
58
102
{ACAD_REACTORS
330
47
102
}
330
47
100
AcDbScale
 70
     0
300
100:1
140
100.0
141
1.0
290
     0
  0
SCALE
  5
59
102
{ACAD_REACTORS
330
47
102
}
330
47
100
AcDbScale
 70
     0
300
1/128" = 1'-0"
140
0.0078125
141
12.0
290
     0
  0
SCALE
  5
5A
102
{ACAD_REACTORS
330
47
102
}
330
47
100
AcDbScale
 70
     0
300
1/64" = 1'-0"
140
0.015625
141
12.0
290
     0
  0
SCALE
  5
5B
102
{ACAD_REACTORS
330
47
102
}
330
47
100
AcDbScale
 70
     0
300
1/32" = 1'-0"
140
0.03125
141
12.0
290
     0
  0
SCALE
  5
5C
102
{ACAD_REACTORS
330
47
102
}
330
47
100
AcDbScale
 70
     0
300
1/16" = 1'-0"
140
0.0625
141
12.0
290
     0
  0
SCALE
  5
5D
102
{ACAD_REACTORS
330
47
102
}
330
47
100
AcDbScale
 70
     0
300
3/32" = 1'-0"
140
0.09375
141
12.0
290
     0
  0
SCALE
  5
5E
102
{ACAD_REACTORS
330
47
102
}
330
47
100
AcDbScale
 70
     0
300
1/8" = 1'-0"
140
0.125
141
12.0
290
     0
  0
SCALE
  5
5F
102
{ACAD_REACTORS
330
47
102
}
330
47
100
AcDbScale
 70
     0
300
3/16" = 1'-0"
140
0.1875
141
12.0
290
     0
  0
SCALE
  5
60
102
{ACAD_REACTORS
330
47
102
}
330
47
100
AcDbScale
 70
     0
300
1/4" = 1'-0"
140
0.25
141
12.0
290
     0
  0
SCALE
  5
61
102
{ACAD_REACTORS
330
47
102
}
330
47
100
AcDbScale
 70
     0
300
3/8" = 1'-0"
140
0.375
141
12.0
290
     0
  0
SCALE
  5
62
102
{ACAD_REACTORS
330
47
102
}
330
47
100
AcDbScale
 70
     0
300
1/2" = 1'-0"
140
0.5
141
12.0
290
     0
  0
SCALE
  5
63
102
{ACAD_REACTORS
330
47
102
}
330
47
100
AcDbScale
 70
     0
300
3/4" = 1'-0"
140
0.75
141
12.0
290
     0
  0
SCALE
  5
64
102
{ACAD_REACTORS
330
47
102
}
330
47
100
AcDbScale
 70
     0
300
1" = 1'-0"
140
1.0
141
12.0
290
     0
  0
SCALE
  5
65
102
{ACAD_REACTORS
330
47
102
}
330
47
100
AcDbScale
 70
     0
300
1-1/2" = 1'-0"
140
1.5
141
12.0
290
     0
  0
SCALE
  5
66
102
{ACAD_REACTORS
330
47
102
}
330
47
100
AcDbScale
 70
     0
300
3" = 1'-0"
140
3.0
141
12.0
290
     0
  0
SCALE
  5
67
102
{ACAD_REACTORS
330
47
102
}
330
47
100
AcDbScale
 70
     0
300
6" = 1'-0"
140
6.0
141
12.0
290
     0
  0
SCALE
  5
68
102
{ACAD_REACTORS
330
47
102
}
330
47
100
AcDbScale
 70
     0
300
1'-0" = 1'-0"
140
12.0
141
12.0
290
     0
  0
ENDSEC
  0
EOF
