  0
SECTION
  2
HEADER
  9
$ACADVER
  1
AC1015
  9
$ACADMAINTVER
 70
     6
  9
$DWGCODEPAGE
  3
ANSI_1252
  9
$INSBASE
 10
0.0
 20
0.0
 30
0.0
  9
$EXTMIN
 10
-17.0
 20
-17.0
 30
0.0
  9
$EXTMAX
 10
17.0
 20
17.0
 30
0.0
  9
$LIMMIN
 10
0.0
 20
0.0
  9
$LIMMAX
 10
420.0
 20
297.0
  9
$ORTHOMODE
 70
     0
  9
$REGENMODE
 70
     1
  9
$FILLMODE
 70
     1
  9
$QTEXTMODE
 70
     0
  9
$MIRRTEXT
 70
     1
  9
$LTSCALE
 40
1.0
  9
$ATTMODE
 70
     1
  9
$TEXTSIZE
 40
3.5
  9
$TRACEWID
 40
1.0
  9
$TEXTSTYLE
  7
Standard
  9
$CLAYER
  8
0
  9
$CELTYPE
  6
ByLayer
  9
$CECOLOR
 62
   256
  9
$CELTSCALE
 40
1.0
  9
$DISPSILH
 70
     0
  9
$DIMSCALE
 40
1.0
  9
$DIMASZ
 40
3.302
  9
$DIMEXO
 40
1.0
  9
$DIMDLI
 40
3.75
  9
$DIMRND
 40
0.0
  9
$DIMDLE
 40
0.0
  9
$DIMEXE
 40
1.0
  9
$DIMTP
 40
0.0
  9
$DIMTM
 40
0.0
  9
$DIMTXT
 40
3.5
  9
$DIMCEN
 40
2.5
  9
$DIMTSZ
 40
0.0
  9
$DIMTOL
 70
     0
  9
$DIMLIM
 70
     0
  9
$DIMTIH
 70
     1
  9
$DIMTOH
 70
     1
  9
$DIMSE1
 70
     0
  9
$DIMSE2
 70
     0
  9
$DIMTAD
 70
     1
  9
$DIMZIN
 70
     0
  9
$DIMBLK
  1

  9
$DIMASO
 70
     1
  9
$DIMSHO
 70
     1
  9
$DIMPOST
  1

  9
$DIMAPOST
  1

  9
$DIMALT
 70
     0
  9
$DIMALTD
 70
     3
  9
$DIMALTF
 40
0.0393700787
  9
$DIMLFAC
 40
1.0
  9
$DIMTOFL
 70
     1
  9
$DIMTVP
 40
0.0
  9
$DIMTIX
 70
     0
  9
$DIMSOXD
 70
     0
  9
$DIMSAH
 70
     0
  9
$DIMBLK1
  1

  9
$DIMBLK2
  1

  9
$DIMSTYLE
  2
ISO-25
  9
$DIMCLRD
 70
     0
  9
$DIMCLRE
 70
     0
  9
$DIMCLRT
 70
     0
  9
$DIMTFAC
 40
1.0
  9
$DIMGAP
 40
1.524
  9
$DIMJUST
 70
     0
  9
$DIMSD1
 70
     0
  9
$DIMSD2
 70
     0
  9
$DIMTOLJ
 70
     0
  9
$DIMTZIN
 70
     0
  9
$DIMALTZ
 70
     0
  9
$DIMALTTZ
 70
     0
  9
$DIMUPT
 70
     0
  9
$DIMDEC
 70
     2
  9
$DIMTDEC
 70
     2
  9
$DIMALTU
 70
     2
  9
$DIMALTTD
 70
     3
  9
$DIMTXSTY
  7
Standard
  9
$DIMAUNIT
 70
     0
  9
$DIMADEC
 70
     2
  9
$DIMALTRND
 40
0.0
  9
$DIMAZIN
 70
     0
  9
$DIMDSEP
 70
    44
  9
$DIMATFIT
 70
     3
  9
$DIMFRAC
 70
     0
  9
$DIMLDRBLK
  1

  9
$DIMLUNIT
 70
     2
  9
$DIMLWD
 70
    -2
  9
$DIMLWE
 70
    -2
  9
$DIMTMOVE
 70
     0
  9
$LUNITS
 70
     2
  9
$LUPREC
 70
     2
  9
$SKETCHINC
 40
1.0
  9
$FILLETRAD
 40
10.0
  9
$AUNITS
 70
     0
  9
$AUPREC
 70
     2
  9
$MENU
  1
.
  9
$ELEVATION
 40
0.0
  9
$PELEVATION
 40
0.0
  9
$THICKNESS
 40
0.0
  9
$LIMCHECK
 70
     0
  9
$CHAMFERA
 40
0.0
  9
$CHAMFERB
 40
0.0
  9
$CHAMFERC
 40
0.0
  9
$CHAMFERD
 40
0.0
  9
$SKPOLY
 70
     0
  9
$TDCREATE
 40
2458564.636696898
  9
$TDUCREATE
 40
2458564.761696898
  9
$TDUPDATE
 40
2458564.636805648
  9
$TDUUPDATE
 40
2458564.761805648
  9
$TDINDWG
 40
0.0000000116
  9
$TDUSRTIMER
 40
0.0000000116
  9
$USRTIMER
 70
     1
  9
$ANGBASE
 50
0.0
  9
$ANGDIR
 70
     0
  9
$PDMODE
 70
     0
  9
$PDSIZE
 40
-1.0
  9
$PLINEWID
 40
0.0
  9
$SPLFRAME
 70
     0
  9
$SPLINETYPE
 70
     6
  9
$SPLINESEGS
 70
     8
  9
$HANDSEED
  5
AB
  9
$SURFTAB1
 70
     6
  9
$SURFTAB2
 70
     6
  9
$SURFTYPE
 70
     6
  9
$SURFU
 70
     6
  9
$SURFV
 70
     6
  9
$UCSBASE
  2

  9
$UCSNAME
  2

  9
$UCSORG
 10
0.0
 20
0.0
 30
0.0
  9
$UCSXDIR
 10
1.0
 20
0.0
 30
0.0
  9
$UCSYDIR
 10
0.0
 20
1.0
 30
0.0
  9
$UCSORTHOREF
  2

  9
$UCSORTHOVIEW
 70
     0
  9
$UCSORGTOP
 10
0.0
 20
0.0
 30
0.0
  9
$UCSORGBOTTOM
 10
0.0
 20
0.0
 30
0.0
  9
$UCSORGLEFT
 10
0.0
 20
0.0
 30
0.0
  9
$UCSORGRIGHT
 10
0.0
 20
0.0
 30
0.0
  9
$UCSORGFRONT
 10
0.0
 20
0.0
 30
0.0
  9
$UCSORGBACK
 10
0.0
 20
0.0
 30
0.0
  9
$PUCSBASE
  2

  9
$PUCSNAME
  2

  9
$PUCSORG
 10
0.0
 20
0.0
 30
0.0
  9
$PUCSXDIR
 10
1.0
 20
0.0
 30
0.0
  9
$PUCSYDIR
 10
0.0
 20
1.0
 30
0.0
  9
$PUCSORTHOREF
  2

  9
$PUCSORTHOVIEW
 70
     0
  9
$PUCSORGTOP
 10
0.0
 20
0.0
 30
0.0
  9
$PUCSORGBOTTOM
 10
0.0
 20
0.0
 30
0.0
  9
$PUCSORGLEFT
 10
0.0
 20
0.0
 30
0.0
  9
$PUCSORGRIGHT
 10
0.0
 20
0.0
 30
0.0
  9
$PUCSORGFRONT
 10
0.0
 20
0.0
 30
0.0
  9
$PUCSORGBACK
 10
0.0
 20
0.0
 30
0.0
  9
$USERI1
 70
     0
  9
$USERI2
 70
     0
  9
$USERI3
 70
     0
  9
$USERI4
 70
     0
  9
$USERI5
 70
     0
  9
$USERR1
 40
0.0
  9
$USERR2
 40
0.0
  9
$USERR3
 40
0.0
  9
$USERR4
 40
0.0
  9
$USERR5
 40
0.0
  9
$WORLDVIEW
 70
     1
  9
$SHADEDGE
 70
     3
  9
$SHADEDIF
 70
    70
  9
$TILEMODE
 70
     0
  9
$MAXACTVP
 70
    64
  9
$PINSBASE
 10
0.0
 20
0.0
 30
0.0
  9
$PLIMCHECK
 70
     0
  9
$PEXTMIN
 10
-17.0
 20
-17.0
 30
0.0
  9
$PEXTMAX
 10
17.0
 20
17.0
 30
0.0
  9
$PLIMMIN
 10
0.0
 20
0.0
  9
$PLIMMAX
 10
0.0
 20
0.0
  9
$UNITMODE
 70
     0
  9
$VISRETAIN
 70
     1
  9
$PLINEGEN
 70
     0
  9
$PSLTSCALE
 70
     1
  9
$TREEDEPTH
 70
  3020
  9
$CMLSTYLE
  2
Standard
  9
$CMLJUST
 70
     0
  9
$CMLSCALE
 40
20.0
  9
$PROXYGRAPHICS
 70
     1
  9
$MEASUREMENT
 70
     1
  9
$CELWEIGHT
370
    -1
  9
$ENDCAPS
280
     0
  9
$JOINSTYLE
280
     0
  9
$LWDISPLAY
290
     1
  9
$INSUNITS
 70
     4
  9
$HYPERLINKBASE
  1

  9
$STYLESHEET
  1

  9
$XEDIT
290
     1
  9
$CEPSNTYPE
380
     0
  9
$PSTYLEMODE
290
     1
  9
$FINGERPRINTGUID
  2
{D6EF566F-033D-4CDE-A95E-F0FB04CB835A}
  9
$VERSIONGUID
  2
{FAEB1C32-E019-11D5-929B-00C0DF256EC4}
  9
$EXTNAMES
290
     1
  9
$PSVPSCALE
 40
0.0
  9
$OLESTARTUP
290
     0
  0
ENDSEC
  0
SECTION
  2
CLASSES
  0
CLASS
  1
ACDBDICTIONARYWDFLT
  2
AcDbDictionaryWithDefault
  3
ObjectDBX Classes
 90
        0
280
     0
281
     0
  0
CLASS
  1
VISUALSTYLE
  2
AcDbVisualStyle
  3
ObjectDBX Classes
 90
     4095
280
     0
281
     0
  0
CLASS
  1
MATERIAL
  2
AcDbMaterial
  3
ObjectDBX Classes
 90
     1153
280
     0
281
     0
  0
CLASS
  1
SCALE
  2
AcDbScale
  3
ObjectDBX Classes
 90
     1153
280
     0
281
     0
  0
CLASS
  1
TABLESTYLE
  2
AcDbTableStyle
  3
ObjectDBX Classes
 90
     4095
280
     0
281
     0
  0
CLASS
  1
MLEADERSTYLE
  2
AcDbMLeaderStyle
  3
ACDB_MLEADERSTYLE_CLASS
 90
     4095
280
     0
281
     0
  0
CLASS
  1
SUN
  2
AcDbSun
  3
SCENEOE
 90
     1153
280
     0
281
     0
  0
CLASS
  1
ACDBPLACEHOLDER
  2
AcDbPlaceHolder
  3
ObjectDBX Classes
 90
        0
280
     0
281
     0
  0
CLASS
  1
LAYOUT
  2
AcDbLayout
  3
ObjectDBX Classes
 90
        0
280
     0
281
     0
  0
ENDSEC
  0
SECTION
  2
TABLES
  0
TABLE
  2
VPORT
  5
8
330
0
100
AcDbSymbolTable
 70
     1
  0
VPORT
  5
29
330
8
100
AcDbSymbolTableRecord
100
AcDbViewportTableRecord
  2
*Active
 70
     0
 10
0.0
 20
0.0
 11
1.0
 21
1.0
 12
0.0
 22
0.0
 13
0.0
 23
0.0
 14
10.0
 24
10.0
 15
10.0
 25
10.0
 16
0.0
 26
0.0
 36
1.0
 17
0.0
 27
0.0
 37
0.0
 40
34.68
 41
1.0
 42
50.0
 43
0.0
 44
0.0
 50
0.0
 51
0.0
 71
     0
 72
   100
 73
     1
 74
     3
 75
     0
 76
     0
 77
     0
 78
     0
281
     0
 65
     1
110
0.0
120
0.0
130
0.0
111
1.0
121
0.0
131
0.0
112
0.0
122
1.0
132
0.0
 79
     0
146
0.0
  0
ENDTAB
  0
TABLE
  2
LTYPE
  5
5
330
0
100
AcDbSymbolTable
 70
     6
  0
LTYPE
  5
14
330
5
100
AcDbSymbolTableRecord
100
AcDbLinetypeTableRecord
  2
ByBlock
 70
     0
  3

 72
    65
 73
     0
 40
0.0
  0
LTYPE
  5
15
330
5
100
AcDbSymbolTableRecord
100
AcDbLinetypeTableRecord
  2
ByLayer
 70
     0
  3

 72
    65
 73
     0
 40
0.0
  0
LTYPE
  5
16
330
5
100
AcDbSymbolTableRecord
100
AcDbLinetypeTableRecord
  2
Continuous
 70
     0
  3
Solid line
 72
    65
 73
     0
 40
0.0
  0
LTYPE
  5
6E
330
5
100
AcDbSymbolTableRecord
100
AcDbLinetypeTableRecord
  2
HIDDEN
 70
     0
  3
Hidden __ __ __ __ __ __ __ __ __ __ __ __ __ __
 72
    65
 73
     2
 40
1.905
 49
1.27
 74
     0
 49
-0.635
 74
     0
  0
LTYPE
  5
6F
330
5
100
AcDbSymbolTableRecord
100
AcDbLinetypeTableRecord
  2
PHANTOM
 70
     0
  3
Phantom ______  __  __  ______  __  __  ______
 72
    65
 73
     6
 40
12.7
 49
6.35
 74
     0
 49
-1.27
 74
     0
 49
1.27
 74
     0
 49
-1.27
 74
     0
 49
1.27
 74
     0
 49
-1.27
 74
     0
  0
LTYPE
  5
70
330
5
100
AcDbSymbolTableRecord
100
AcDbLinetypeTableRecord
  2
CENTER
 70
     0
  3
Center ____ _ ____ _ ____ _ ____ _ ____ _ ____
 72
    65
 73
     4
 40
10.16
 49
6.35
 74
     0
 49
-1.27
 74
     0
 49
1.27
 74
     0
 49
-1.27
 74
     0
  0
LTYPE
  5
71
330
5
100
AcDbSymbolTableRecord
100
AcDbLinetypeTableRecord
  2
CENTERX2
 70
     0
  3
Center (2x) ________  __  ________  __  _____
 72
    65
 73
     4
 40
20.32
 49
12.7
 74
     0
 49
-2.54
 74
     0
 49
2.54
 74
     0
 49
-2.54
 74
     0
  0
LTYPE
  5
72
330
5
100
AcDbSymbolTableRecord
100
AcDbLinetypeTableRecord
  2
DOT2
 70
     0
  3
Dot (.5x) ........................................
 72
    65
 73
     2
 40
0.635
 49
0.0
 74
     0
 49
-0.635
 74
     0
  0
ENDTAB
  0
TABLE
  2
LAYER
  5
2
330
0
100
AcDbSymbolTable
 70
     1
  0
LAYER
  5
10
330
2
100
AcDbSymbolTableRecord
100
AcDbLayerTableRecord
  2
0
 70
     0
 62
     7
  6
Continuous
370
    -3
390
F
  0
ENDTAB
  0
TABLE
  2
STYLE
  5
3
330
0
100
AcDbSymbolTable
 70
     1
  0
STYLE
  5
11
330
3
100
AcDbSymbolTableRecord
100
AcDbTextStyleTableRecord
  2
Standard
 70
     0
 40
0.0
 41
1.0
 50
0.0
 71
     0
 42
3.5
  3
txt
  4

  0
ENDTAB
  0
TABLE
  2
VIEW
  5
6
330
0
100
AcDbSymbolTable
 70
     0
  0
ENDTAB
  0
TABLE
  2
UCS
  5
7
330
0
100
AcDbSymbolTable
 70
     0
  0
ENDTAB
  0
TABLE
  2
APPID
  5
9
330
0
100
AcDbSymbolTable
 70
     1
  0
APPID
  5
12
330
9
100
AcDbSymbolTableRecord
100
AcDbRegAppTableRecord
  2
ACAD
 70
     0
  0
ENDTAB
  0
TABLE
  2
DIMSTYLE
  5
A
330
0
100
AcDbSymbolTable
 70
     1
100
AcDbDimStyleTable
  0
DIMSTYLE
105
27
330
A
100
AcDbSymbolTableRecord
100
AcDbDimStyleTableRecord
  2
ISO-25
 70
     0
 41
2.5
 42
0.625
 43
3.75
 44
1.25
 73
     0
 74
     0
 77
     1
 78
     8
140
2.5
141
2.5
143
0.0393700787
147
0.625
171
     3
172
     1
178
     0
271
     2
272
     2
274
     3
278
    44
283
     0
284
     8
340
11
  0
ENDTAB
  0
TABLE
  2
BLOCK_RECORD
  5
1
330
0
100
AcDbSymbolTable
 70
     1
  0
BLOCK_RECORD
  5
1F
330
1
100
AcDbSymbolTableRecord
100
AcDbBlockTableRecord
  2
*Model_Space
340
22
  0
BLOCK_RECORD
  5
23
330
1
100
AcDbSymbolTableRecord
100
AcDbBlockTableRecord
  2
*Paper_Space
340
26
  0
BLOCK_RECORD
  5
1B
330
1
100
AcDbSymbolTableRecord
100
AcDbBlockTableRecord
  2
*Paper_Space0
340
1E
  0
ENDTAB
  0
ENDSEC
  0
SECTION
  2
BLOCKS
  0
BLOCK
  5
20
330
1F
100
AcDbEntity
  8
0
100
AcDbBlockBegin
  2
*Model_Space
 70
     0
 10
0.0
 20
0.0
 30
0.0
  3
*Model_Space
  1

  0
ENDBLK
  5
21
330
1F
100
AcDbEntity
  8
0
100
AcDbBlockEnd
  0
BLOCK
  5
24
330
23
100
AcDbEntity
 67
     1
  8
0
100
AcDbBlockBegin
  2
*Paper_Space
 70
     0
 10
0.0
 20
0.0
 30
0.0
  3
*Paper_Space
  1

  0
ENDBLK
  5
25
330
23
100
AcDbEntity
 67
     1
  8
0
100
AcDbBlockEnd
  0
BLOCK
  5
1C
330
1B
100
AcDbEntity
  8
0
100
AcDbBlockBegin
  2
*Paper_Space0
 70
     0
 10
0.0
 20
0.0
 30
0.0
  3
*Paper_Space0
  1

  0
CIRCLE
  5
80
330
1B
100
AcDbEntity
  8
0
  6
Continuous
 62
     7
370
    15
100
AcDbCircle
 10
0.0
 20
11.0
 30
0.0
 40
1.000000000000003
  0
CIRCLE
  5
81
330
1B
100
AcDbEntity
  8
0
  6
Continuous
 62
     7
370
    15
100
AcDbCircle
 10
0.0
 20
-11.0
 30
0.0
 40
1.000000000000002
  0
LINE
  5
84
330
1B
100
AcDbEntity
  8
0
  6
Continuous
 62
     7
370
    15
100
AcDbLine
 10
-2.5
 20
17.0
 30
0.0
 11
2.5
 21
17.0
 31
0.0
  0
LINE
  5
85
330
1B
100
AcDbEntity
  8
0
  6
Continuous
 62
     7
370
    15
100
AcDbLine
 10
2.5
 20
-17.0
 30
0.0
 11
2.5
 21
17.0
 31
0.0
  0
LINE
  5
86
330
1B
100
AcDbEntity
  8
0
  6
Continuous
 62
     7
370
    15
100
AcDbLine
 10
-2.5
 20
-17.0
 30
0.0
 11
2.5
 21
-17.0
 31
0.0
  0
LINE
  5
87
330
1B
100
AcDbEntity
  8
0
  6
Continuous
 62
     7
370
    15
100
AcDbLine
 10
-2.5
 20
-17.0
 30
0.0
 11
-2.5
 21
17.0
 31
0.0
  0
VIEWPORT
  5
A7
330
1B
100
AcDbEntity
  8
0
100
AcDbViewport
 10
0.0
 20
0.0
 30
0.0
 40
205.6
 41
156.0
 68
     1
 69
     1
 12
0.0
 22
0.0
 13
0.0
 23
0.0
 14
10.0
 24
10.0
 15
10.0
 25
10.0
 16
0.0
 26
0.0
 36
1.0
 17
0.0
 27
0.0
 37
0.0
 42
50.0
 43
0.0
 44
0.0
 45
34.68
 50
0.0
 51
0.0
 72
   100
 90
   557152
  1

281
     0
 71
     1
 74
     0
110
0.0
120
0.0
130
0.0
111
1.0
121
0.0
131
0.0
112
0.0
122
1.0
132
0.0
 79
     0
146
0.0
  0
ENDBLK
  5
1D
330
1B
100
AcDbEntity
  8
0
100
AcDbBlockEnd
  0
ENDSEC
  0
SECTION
  2
ENTITIES
  0
CIRCLE
  5
73
330
1F
100
AcDbEntity
  8
0
  6
Continuous
 62
     7
370
    15
100
AcDbCircle
 10
0.0
 20
0.0
 30
0.0
 40
7.500000000000004
  0
CIRCLE
  5
78
330
1F
100
AcDbEntity
  8
0
  6
Continuous
 62
     7
370
    15
100
AcDbCircle
 10
0.0
 20
0.0
 30
0.0
 40
3.999999999999998
  0
CIRCLE
  5
79
330
1F
100
AcDbEntity
  8
0
  6
Continuous
 62
     7
370
    15
100
AcDbCircle
 10
0.0
 20
0.0
 30
0.0
 40
1.250000000000001
  0
LINE
  5
7A
330
1F
100
AcDbEntity
  8
0
  6
Continuous
 62
     7
370
    15
100
AcDbLine
 10
17.0
 20
17.0
 30
0.0
 11
-17.0
 21
17.0
 31
0.0
  0
LINE
  5
7B
330
1F
100
AcDbEntity
  8
0
  6
Continuous
 62
     7
370
    15
100
AcDbLine
 10
17.0
 20
-17.0
 30
0.0
 11
17.0
 21
17.0
 31
0.0
  0
LINE
  5
7C
330
1F
100
AcDbEntity
  8
0
  6
Continuous
 62
     7
370
    15
100
AcDbLine
 10
-17.0
 20
-17.0
 30
0.0
 11
17.0
 21
-17.0
 31
0.0
  0
LINE
  5
7D
330
1F
100
AcDbEntity
  8
0
  6
Continuous
 62
     7
370
    15
100
AcDbLine
 10
-17.0
 20
17.0
 30
0.0
 11
-17.0
 21
-17.0
 31
0.0
  0
LWPOLYLINE
  5
8E
330
23
100
AcDbEntity
 67
     1
  8
0
  6
Continuous
 62
     7
370
    15
100
AcDbPolyline
 90
       95
 70
   128
 43
0.0
 10
3.5355339059
 20
-4.0820405591
 10
3.5236909914
 20
-3.6661619547
 10
3.4882151412
 20
-3.238467227
 10
3.429264799
 20
-2.8008665646
 10
3.3471032515
 20
-2.3553143982
 10
3.2420974519
 20
-1.9038006719
 10
3.1147163818
 20
-1.4483419557
 10
2.9655289558
 20
-0.9909724387
 10
2.7952014813
 20
-0.5337348443
 10
2.6044946821
 20
-0.0786713066
 10
2.394260301
 20
0.3721857503
 10
2.1654372959
 20
0.8168226893
 10
1.9190476458
 20
1.2532536539
 10
1.6561917867
 20
1.6795294374
 10
1.3780436967
 20
2.0937461886
 10
1.0858456527
 20
2.4940539152
 10
0.7809026821
 20
2.8786647454
 10
0.4645767342
 20
3.2458609142
 10
0.1382805974
 20
3.5940024341
 10
-0.1965284104
 20
3.9215344206
 10
-0.5383549509
 20
4.2269940365
 10
-0.8856723439
 20
4.5090170248
 10
-1.2369293856
 20
4.7663438025
 10
-1.5905572767
 20
4.9978250858
 10
-1.9449766292
 20
5.2024270229
 10
-2.2986045203
 20
5.379235812
 10
-2.649861562
 20
5.5274617822
 10
-2.997178955
 20
5.6464429202
 10
-3.3390054955
 20
5.7356478274
 10
-3.6738145034
 20
5.794678093
 10
-4.0001106401
 20
5.8232700736
 10
-4.316436588
 20
5.8212960704
 10
-4.6213795587
 20
5.7887648998
 10
-4.9135776027
 20
5.7258218539
 10
-5.1917256927
 20
5.6327480516
 10
-5.4545815518
 20
5.5099591831
 10
-5.7009712019
 20
5.3580036533
 10
-5.929794207
 20
5.1775601326
 10
-6.140028588
 20
4.9694345253
 10
-6.3307353873
 20
4.7345563712
 10
-6.5010628618
 20
4.4739746929
 10
-6.6502502877
 20
4.1888533115
 10
-6.7776313579
 20
3.8804656484
 10
-6.8826371574
 20
3.5501890377
 10
-6.964798705
 20
3.1994985749
 10
-7.0237490471
 20
2.8299605288
 10
-7.0592248973
 20
2.4432253459
 10
-7.0710678119
 20
2.0410202796
 10
-7.0592248973
 20
1.6251416751
 10
-7.0237490471
 20
1.1974469475
 10
-6.964798705
 20
0.759846285
 10
-6.8826371574
 20
0.3142941186
 10
-6.7776313579
 20
-0.1372196077
 10
-6.6502502877
 20
-0.5926783239
 10
-6.5010628618
 20
-1.0500478408
 10
-6.3307353873
 20
-1.5072854352
 10
-6.140028588
 20
-1.962348973
 10
-5.929794207
 20
-2.4132060299
 10
-5.7009712019
 20
-2.8578429689
 10
-5.4545815518
 20
-3.2942739334
 10
-5.1917256927
 20
-3.7205497169
 10
-4.9135776027
 20
-4.1347664682
 10
-4.6213795587
 20
-4.5350741947
 10
-4.316436588
 20
-4.919685025
 10
-4.0001106401
 20
-5.2868811937
 10
-3.6738145034
 20
-5.6350227136
 10
-3.3390054955
 20
-5.9625547002
 10
-2.997178955
 20
-6.268014316
 10
-2.649861562
 20
-6.5500373044
 10
-2.2986045203
 20
-6.8073640821
 10
-1.9449766292
 20
-7.0388453653
 10
-1.5905572767
 20
-7.2434473025
 10
-1.2369293856
 20
-7.4202560916
 10
-0.8856723439
 20
-7.5684820617
 10
-0.5383549509
 20
-7.6874631997
 10
-0.1965284104
 20
-7.7766681069
 10
0.1382805974
 20
-7.8356983726
 10
0.4645767342
 20
-7.8642903532
 10
0.7809026821
 20
-7.86231635
 10
1.0858456527
 20
-7.8297851794
 10
1.3780436967
 20
-7.7668421334
 10
1.6561917867
 20
-7.6737683311
 10
1.9190476458
 20
-7.5509794627
 10
2.1654372959
 20
-7.3990239329
 10
2.394260301
 20
-7.2185804121
 10
2.6044946821
 20
-7.0104548049
 10
2.7952014813
 20
-6.7755766507
 10
2.9655289558
 20
-6.5149949724
 10
3.1147163818
 20
-6.2298735911
 10
3.2420974519
 20
-5.921485928
 10
3.3471032515
 20
-5.5912093173
 10
3.429264799
 20
-5.2405188545
 10
3.4882151412
 20
-4.8709808083
 10
3.5236909914
 20
-4.4842456255
 10
3.5355339059
 20
-4.0820405591
  0
LWPOLYLINE
  5
94
330
23
100
AcDbEntity
 67
     1
  8
0
  6
Continuous
 62
     7
370
    15
100
AcDbPolyline
 90
       35
 70
   128
 43
0.0
 10
11.313708499
 20
1.6342759243
 10
11.3257483357
 20
1.7912653546
 10
11.3614578435
 20
1.9568095976
 10
11.419620978
 20
2.1252712427
 10
11.4982570634
 20
2.2909135307
 10
11.5946882422
 20
2.4480957121
 10
11.7056306662
 20
2.5914651362
 10
11.8273063241
 20
2.7161395293
 10
11.9555716975
 20
2.8178732544
 10
12.0860588628
 20
2.8932018915
 10
12.2143242362
 20
2.9395602143
 10
12.3359998942
 20
2.9553695456
 10
12.4469423181
 20
2.9400915177
 10
12.5433734969
 20
2.8942464054
 10
12.6220095823
 20
2.8193954091
 10
12.6801727169
 20
2.7180874897
 10
12.7158822247
 20
2.5937725669
 10
12.7279220614
 20
2.4506840362
 10
12.7158822247
 20
2.2936946059
 10
12.6801727169
 20
2.1281503629
 10
12.6220095823
 20
1.9596887178
 10
12.5433734969
 20
1.7940464298
 10
12.4469423181
 20
1.6368642484
 10
12.3359998942
 20
1.4934948243
 10
12.2143242362
 20
1.3688204312
 10
12.0860588628
 20
1.2670867061
 10
11.9555716975
 20
1.191758069
 10
11.8273063241
 20
1.1453997462
 10
11.7056306662
 20
1.1295904149
 10
11.5946882422
 20
1.1448684428
 10
11.4982570634
 20
1.1907135551
 10
11.419620978
 20
1.2655645514
 10
11.3614578435
 20
1.3668724708
 10
11.3257483357
 20
1.4911873936
 10
11.313708499
 20
1.6342759243
  0
LWPOLYLINE
  5
95
330
23
100
AcDbEntity
 67
     1
  8
0
  6
Continuous
 62
     7
370
    15
100
AcDbPolyline
 90
       35
 70
   128
 43
0.0
 10
11.313708499
 20
-16.3296219371
 10
11.3257483357
 20
-16.1726325069
 10
11.3614578435
 20
-16.0070882639
 10
11.419620978
 20
-15.8386266188
 10
11.4982570634
 20
-15.6729843308
 10
11.5946882422
 20
-15.5158021494
 10
11.7056306662
 20
-15.3724327252
 10
11.8273063241
 20
-15.2477583322
 10
11.9555716975
 20
-15.1460246071
 10
12.0860588628
 20
-15.0706959699
 10
12.2143242362
 20
-15.0243376472
 10
12.3359998942
 20
-15.0085283158
 10
12.4469423181
 20
-15.0238063438
 10
12.5433734969
 20
-15.069651456
 10
12.6220095823
 20
-15.1445024523
 10
12.6801727169
 20
-15.2458103718
 10
12.7158822247
 20
-15.3701252946
 10
12.7279220614
 20
-15.5132138253
 10
12.7158822247
 20
-15.6702032556
 10
12.6801727169
 20
-15.8357474986
 10
12.6220095823
 20
-16.0042091437
 10
12.5433734969
 20
-16.1698514317
 10
12.4469423181
 20
-16.3270336131
 10
12.3359998942
 20
-16.4704030372
 10
12.2143242362
 20
-16.5950774303
 10
12.0860588628
 20
-16.6968111554
 10
11.9555716975
 20
-16.7721397925
 10
11.8273063241
 20
-16.8184981153
 10
11.7056306662
 20
-16.8343074466
 10
11.5946882422
 20
-16.8190294187
 10
11.4982570634
 20
-16.7731843064
 10
11.419620978
 20
-16.6983333101
 10
11.3614578435
 20
-16.5970253907
 10
11.3257483357
 20
-16.4727104678
 10
11.313708499
 20
-16.3296219371
  0
LWPOLYLINE
  5
96
330
23
100
AcDbEntity
 67
     1
  8
0
  6
Continuous
 62
     7
370
    15
100
AcDbPolyline
 90
       46
 70
   128
 43
0.0
 10
-5.1472090183
 20
5.6500303343
 10
-5.2226874258
 20
5.5857641885
 10
-5.4329218069
 20
5.3776385813
 10
-5.6236286061
 20
5.1427604271
 10
-5.7939560806
 20
4.8821787488
 10
-5.9431435065
 20
4.5970573675
 10
-6.0705245767
 20
4.2886697043
 10
-6.1755303762
 20
3.9583930936
 10
-6.2576919238
 20
3.6077026308
 10
-6.3166422659
 20
3.2381645847
 10
-6.3521181162
 20
2.8514294018
 10
-6.3639610307
 20
2.4492243355
 10
-6.3521181162
 20
2.033345731
 10
-6.3166422659
 20
1.6056510034
 10
-6.2576919238
 20
1.1680503409
 10
-6.1755303762
 20
0.7224981745
 10
-6.0705245767
 20
0.2709844483
 10
-5.9431435065
 20
-0.184474268
 10
-5.7939560806
 20
-0.6418437849
 10
-5.6236286061
 20
-1.0990813793
 10
-5.4329218069
 20
-1.5541449171
 10
-5.2226874258
 20
-2.005001974
 10
-4.9938644207
 20
-2.449638913
 10
-4.7474747706
 20
-2.8860698775
 10
-4.4846189115
 20
-3.312345661
 10
-4.2064708215
 20
-3.7265624123
 10
-3.9142727775
 20
-4.1268701388
 10
-3.6093298068
 20
-4.5114809691
 10
-3.2930038589
 20
-4.8786771378
 10
-2.9667077222
 20
-5.2268186577
 10
-2.6318987144
 20
-5.5543506443
 10
-2.2900721738
 20
-5.8598102601
 10
-1.9427547808
 20
-6.1418332485
 10
-1.5914977391
 20
-6.3991600262
 10
-1.237869848
 20
-6.6306413094
 10
-0.8834504955
 20
-6.8352432465
 10
-0.5298226044
 20
-7.0120520357
 10
-0.1785655628
 20
-7.1602780058
 10
0.1687518302
 20
-7.2792591438
 10
0.5105783708
 20
-7.368464051
 10
0.8453873786
 20
-7.4274943167
 10
1.1716835153
 20
-7.4560862973
 10
1.4880094633
 20
-7.4541122941
 10
1.7929524339
 20
-7.4215811234
 10
2.0851504779
 20
-7.3586380775
 10
2.3187818935
 20
-7.2828465579
  0
LWPOLYLINE
  5
97
330
23
100
AcDbEntity
 67
     1
  8
0
  6
Continuous
 62
     7
370
    15
100
AcDbPolyline
 90
       27
 70
   128
 43
0.0
 10
1.767766953
 20
-2.2451223075
 10
1.756048334
 20
-1.9413491876
 10
1.7209895813
 20
-1.6265631979
 10
1.6628812026
 20
-1.3033727544
 10
1.5822047024
 20
-0.9744559148
 10
1.4796285916
 20
-0.6425381877
 10
1.3560028479
 20
-0.3103699478
 10
1.2123518735
 20
0.0192963542
 10
1.0498660053
 20
0.3437289994
 10
0.8698916526
 20
0.6602396369
 10
0.6739201394
 20
0.9662055597
 10
0.4635753475
 20
1.259091438
 10
0.2406002601
 20
1.536470327
 10
0.0068425189
 20
1.7960437779
 10
-0.2357608858
 20
2.0356608834
 10
-0.4851996658
 20
2.2533361007
 10
-0.7394068927
 20
2.4472657043
 10
-0.9962761255
 20
2.6158427325
 10
-1.2536788648
 20
2.757670303
 10
-1.5094821904
 20
2.8715731878
 10
-1.7615664354
 20
2.9566075517
 10
-2.0078427504
 20
3.0120687733
 10
-2.2462704122
 20
3.0374972833
 10
-2.4748737342
 20
3.0326823732
 10
-2.6917584372
 20
2.9976639408
 10
-2.8951273462
 20
2.9327321599
 10
-3.0604976371
 20
2.8518893657
  0
LWPOLYLINE
  5
99
330
23
100
AcDbEntity
 67
     1
  8
0
  6
Continuous
 62
     7
370
    15
100
AcDbPolyline
 90
       70
 70
   128
 43
0.0
 10
1.0606601718
 20
-2.6533263634
 10
1.0489415528
 20
-2.3495532435
 10
1.0138828001
 20
-2.0347672539
 10
0.9557744215
 20
-1.7115768103
 10
0.8750979213
 20
-1.3826599707
 10
0.7725218104
 20
-1.0507422436
 10
0.6488960668
 20
-0.7185740037
 10
0.5052450923
 20
-0.3889077017
 10
0.3427592241
 20
-0.0644750565
 10
0.1627848714
 20
0.252035581
 10
-0.0331866418
 20
0.5580015038
 10
-0.2435314337
 20
0.8508873821
 10
-0.4665065211
 20
1.1282662711
 10
-0.7002642623
 20
1.387839722
 10
-0.942867667
 20
1.6274568275
 10
-1.192306447
 20
1.8451320448
 10
-1.4465136739
 20
2.0390616484
 10
-1.7033829067
 20
2.2076386766
 10
-1.960785646
 20
2.3494662471
 10
-2.2165889716
 20
2.4633691318
 10
-2.4686732166
 20
2.5484034958
 10
-2.7149495316
 20
2.6038647174
 10
-2.9533771934
 20
2.6292932274
 10
-3.1819805153
 20
2.6244783173
 10
-3.3988652183
 20
2.5894598849
 10
-3.6022341274
 20
2.524528104
 10
-3.7904020638
 20
2.4302210197
 10
-3.9618098086
 20
2.3073200903
 10
-4.1150370233
 20
2.1568437115
 10
-4.248814019
 20
1.980038778
 10
-4.3620322773
 20
1.7783703513
 10
-4.4537536361
 20
1.5535095193
 10
-4.5232180633
 20
1.3073195497
 10
-4.5698499548
 20
1.0418404503
 10
-4.5932629041
 20
0.7592720643
 10
-4.5932629041
 20
0.4619558425
 10
-4.5698499548
 20
0.1523554406
 10
-4.5232180633
 20
-0.1669636948
 10
-4.4537536361
 20
-0.4933555849
 10
-4.3620322773
 20
-0.8241156436
 10
-4.248814019
 20
-1.156503089
 10
-4.1150370233
 20
-1.487763654
 10
-3.9618098086
 20
-1.8151524092
 10
-3.7904020638
 20
-2.1359565083
 10
-3.6022341274
 20
-2.4475176675
 10
-3.3988652183
 20
-2.7472541929
 10
-3.1819805153
 20
-3.0326823732
 10
-2.9533771934
 20
-3.3014370608
 10
-2.7149495316
 20
-3.5512912695
 10
-2.4686732166
 20
-3.7801746287
 10
-2.2165889716
 20
-3.9861905389
 10
-1.960785646
 20
-4.1676318872
 10
-1.7033829067
 20
-4.3229951937
 10
-1.4465136739
 20
-4.4509930689
 10
-1.192306447
 20
-4.5505648821
 10
-0.942867667
 20
-4.6208855501
 10
-0.7002642623
 20
-4.6613723734
 10
-0.4665065211
 20
-4.6716898657
 10
-0.2435314337
 20
-4.6517525329
 10
-0.0331866418
 20
-4.601725582
 10
0.1627848714
 20
-4.522023552
 10
0.3427592241
 20
-4.4133068792
 10
0.5052450923
 20
-4.2764764241
 10
0.6488960668
 20
-4.1126660069
 10
0.7725218104
 20
-3.9232330124
 10
0.8750979213
 20
-3.709747142
 10
0.9557744215
 20
-3.4739774068
 10
1.0138828001
 20
-3.2178774692
 10
1.0489415528
 20
-2.9435694539
 10
1.0606601718
 20
-2.6533263634
  0
LWPOLYLINE
  5
9A
330
23
100
AcDbEntity
 67
     1
  8
0
  6
Continuous
 62
     7
370
    15
100
AcDbPolyline
 90
       39
 70
   128
 43
0.0
 10
-0.8838834765
 20
-1.5307652097
 10
-0.895938495
 20
-1.3558082451
 10
-0.9317747213
 20
-1.1717052223
 10
-0.9904146363
 20
-0.9834779918
 10
-1.0702586961
 20
-0.7962609017
 10
-1.1691289629
 20
-0.6151607463
 10
-1.2843285135
 20
-0.4451174656
 10
-1.4127150045
 20
-0.2907693972
 10
-1.5507863872
 20
-0.1563267539
 10
-1.694776434
 20
-0.0454567807
 10
-1.8407574719
 20
0.0388162787
 10
-1.9847475188
 20
0.0941936749
 10
-2.1228189014
 20
0.1191648568
 10
-2.2512053924
 20
0.1130486757
 10
-2.3664049431
 20
0.0760119651
 10
-2.4652752098
 20
0.0090649899
 10
-2.5451192697
 20
-0.085966111
 10
-2.6037591847
 20
-0.2064891368
 10
-2.6395954109
 20
-0.3492165335
 10
-2.6516504294
 20
-0.5102550699
 10
-2.6395954109
 20
-0.6852120344
 10
-2.6037591847
 20
-0.8693150573
 10
-2.5451192697
 20
-1.0575422878
 10
-2.4652752098
 20
-1.2447593779
 10
-2.3664049431
 20
-1.4258595333
 10
-2.2512053924
 20
-1.5959028139
 10
-2.1228189014
 20
-1.7502508824
 10
-1.9847475188
 20
-1.8846935256
 10
-1.8407574719
 20
-1.9955634989
 10
-1.694776434
 20
-2.0798365583
 10
-1.5507863872
 20
-2.1352139544
 10
-1.4127150045
 20
-2.1601851363
 10
-1.2843285135
 20
-2.1540689552
 10
-1.1691289629
 20
-2.1170322446
 10
-1.0702586961
 20
-2.0500852694
 10
-0.9904146363
 20
-1.9550541686
 10
-0.9317747213
 20
-1.8345311428
 10
-0.895938495
 20
-1.6918037461
 10
-0.8838834765
 20
-1.5307652097
  0
LINE
  5
9B
330
23
100
AcDbEntity
 67
     1
  8
0
  6
Continuous
 62
     7
370
    15
100
AcDbLine
 10
0.2320705123
 20
-4.4847055893
 30
0.0
 11
0.9391772935
 21
-4.0765015334
 31
0.0
  0
LINE
  5
9C
330
23
100
AcDbEntity
 67
     1
  8
0
  6
Continuous
 62
     7
370
    15
100
AcDbLine
 10
-3.0604976371
 20
2.8518893657
 30
0.0
 11
-3.7676044182
 21
2.4436853097
 31
0.0
  0
LINE
  5
9D
330
23
100
AcDbEntity
 67
     1
  8
0
  6
Continuous
 62
     7
370
    15
100
AcDbLine
 10
10.2530483272
 20
5.9212147118
 30
0.0
 11
-13.7885822331
 21
19.8001526128
 31
0.0
  0
LINE
  5
9E
330
23
100
AcDbEntity
 67
     1
  8
0
  6
Continuous
 62
     7
370
    15
100
AcDbLine
 10
10.2530483272
 20
-21.8411728923
 30
0.0
 11
10.2530483272
 21
5.9212147118
 31
0.0
  0
LINE
  5
9F
330
23
100
AcDbEntity
 67
     1
  8
0
  6
Continuous
 62
     7
370
    15
100
AcDbLine
 10
-13.7885822331
 20
-7.9622349913
 30
0.0
 11
10.2530483272
 21
-21.8411728923
 31
0.0
  0
LINE
  5
A0
330
23
100
AcDbEntity
 67
     1
  8
0
  6
Continuous
 62
     7
370
    15
100
AcDbLine
 10
-13.7885822331
 20
19.8001526128
 30
0.0
 11
-13.7885822331
 21
-7.9622349913
 31
0.0
  0
LINE
  5
A1
330
23
100
AcDbEntity
 67
     1
  8
0
  6
Continuous
 62
     7
370
    15
100
AcDbLine
 10
10.2530483272
 20
5.9212147118
 30
0.0
 11
13.7885822331
 21
7.9622349913
 31
0.0
  0
LINE
  5
A2
330
23
100
AcDbEntity
 67
     1
  8
0
  6
Continuous
 62
     7
370
    15
100
AcDbLine
 10
-13.7885822331
 20
19.8001526128
 30
0.0
 11
-10.2530483272
 21
21.8411728923
 31
0.0
  0
LINE
  5
A3
330
23
100
AcDbEntity
 67
     1
  8
0
  6
Continuous
 62
     7
370
    15
100
AcDbLine
 10
13.7885822331
 20
7.9622349913
 30
0.0
 11
-10.2530483272
 21
21.8411728923
 31
0.0
  0
LINE
  5
A4
330
23
100
AcDbEntity
 67
     1
  8
0
  6
Continuous
 62
     7
370
    15
100
AcDbLine
 10
10.2530483272
 20
-21.8411728923
 30
0.0
 11
13.7885822331
 21
-19.8001526128
 31
0.0
  0
LINE
  5
A5
330
23
100
AcDbEntity
 67
     1
  8
0
  6
Continuous
 62
     7
370
    15
100
AcDbLine
 10
13.7885822331
 20
-19.8001526128
 30
0.0
 11
13.7885822331
 21
7.9622349913
 31
0.0
  0
ARC
  5
A6
330
23
100
AcDbEntity
 67
     1
  8
0
  6
Continuous
 62
     7
370
    15
100
AcDbCircle
 10
-0.237741176
 20
-2.4408829909
 30
0.0
 40
2.015039726789016
100
AcDbArc
 50
305.7371143096
 51
5.5750660837
  0
VIEWPORT
  5
A9
330
23
100
AcDbEntity
 67
     1
  8
0
100
AcDbViewport
 10
0.0
 20
0.0
 30
0.0
 40
205.6
 41
156.0
 68
     1
 69
     1
 12
0.0
 22
0.0
 13
0.0
 23
0.0
 14
10.0
 24
10.0
 15
10.0
 25
10.0
 16
0.0
 26
0.0
 36
1.0
 17
0.0
 27
0.0
 37
0.0
 42
50.0
 43
0.0
 44
0.0
 45
34.68
 50
0.0
 51
0.0
 72
   100
 90
   557152
  1

281
     0
 71
     1
 74
     0
110
0.0
120
0.0
130
0.0
111
1.0
121
0.0
131
0.0
112
0.0
122
1.0
132
0.0
 79
     0
146
0.0
  0
ENDSEC
  0
SECTION
  2
OBJECTS
  0
DICTIONARY
  5
C
330
0
100
AcDbDictionary
281
     1
  3
ACAD_GROUP
350
D
  3
ACAD_LAYOUT
350
1A
  3
ACAD_MLINESTYLE
350
17
  3
ACAD_PLOTSETTINGS
350
19
  3
ACAD_PLOTSTYLENAME
350
E
  3
ACAD_SCALELIST
350
47
  0
DICTIONARY
  5
D
102
{ACAD_REACTORS
330
C
102
}
330
C
100
AcDbDictionary
281
     1
  0
DICTIONARY
  5
1A
102
{ACAD_REACTORS
330
C
102
}
330
C
100
AcDbDictionary
281
     1
  3
_Direita
350
1E
  3
_Isométrica
350
26
  3
Model
350
22
  0
DICTIONARY
  5
17
102
{ACAD_REACTORS
330
C
102
}
330
C
100
AcDbDictionary
281
     1
  3
Standard
350
18
  0
DICTIONARY
  5
19
102
{ACAD_REACTORS
330
C
102
}
330
C
100
AcDbDictionary
281
     1
  0
ACDBDICTIONARYWDFLT
  5
E
102
{ACAD_REACTORS
330
C
102
}
330
C
100
AcDbDictionary
281
     1
  3
Normal
350
F
100
AcDbDictionaryWithDefault
340
F
  0
DICTIONARY
  5
47
102
{ACAD_REACTORS
330
C
102
}
330
C
100
AcDbDictionary
281
     1
  3
A0
350
48
  3
A1
350
49
  3
A2
350
4A
  3
A3
350
4B
  3
A4
350
4C
  3
A5
350
4D
  3
A6
350
4E
  3
A7
350
4F
  3
A8
350
50
  3
A9
350
51
  3
B0
350
52
  3
B1
350
53
  3
B2
350
54
  3
B3
350
55
  3
B4
350
56
  3
B5
350
57
  3
B6
350
58
  3
B7
350
59
  3
B8
350
5A
  3
B9
350
5B
  3
C0
350
5C
  3
C1
350
5D
  3
C2
350
5E
  3
C3
350
5F
  3
C4
350
60
  3
C5
350
61
  3
C6
350
62
  3
C7
350
63
  3
C8
350
64
  3
C9
350
65
  3
D0
350
66
  3
D1
350
67
  3
D2
350
68
  0
LAYOUT
  5
1E
102
{ACAD_REACTORS
330
1A
102
}
330
1A
100
AcDbPlotSettings
  1

  2
none_device
  4
ISO_A4_(210.00_x_297.00_MM)
  6

 40
7.5
 41
20.0
 42
7.5
 43
20.0
 44
210.0
 45
297.0
 46
0.0
 47
0.0
 48
0.0
 49
0.0
140
0.0
141
0.0
142
1.0
143
0.1743589744
 70
   688
 72
     1
 73
     1
 74
     1
  7

 75
     0
147
5.7352941176
148
2.5
149
17.0
100
AcDbLayout
  1
_Direita
 70
     1
 71
     1
 10
-5.9871794872
 20
-18.3076923077
 11
45.7974358974
 21
18.3076923077
 12
0.0
 22
0.0
 32
0.0
 14
1.0000000000E+20
 24
1.0000000000E+20
 34
1.0000000000E+20
 15
-1.0000000000E+20
 25
-1.0000000000E+20
 35
-1.0000000000E+20
146
0.0
 13
0.0
 23
0.0
 33
0.0
 16
1.0
 26
0.0
 36
0.0
 17
0.0
 27
1.0
 37
0.0
 76
     0
330
1B
331
A7
  0
LAYOUT
  5
26
102
{ACAD_REACTORS
330
1A
102
}
330
1A
100
AcDbPlotSettings
  1

  2
none_device
  4
ANSI_A_(11.00_x_8.50_Inches)
  6

 40
6.35
 41
19.05
 42
6.35000508
 43
19.05000254
 44
279.4
 45
215.9
 46
133.34999746
 47
88.89999873
 48
0.0
 49
0.0
140
0.0
141
0.0
142
0.2475
143
1.0
 70
  1696
 72
     0
 73
     0
 74
     1
  7

 75
     0
147
0.20588235
148
431.8
149
431.8
100
AcDbLayout
  1
_Isométrica
 70
     1
 71
     2
 10
0.0
 20
0.0
 11
0.0
 21
0.0
 12
0.0
 22
0.0
 32
0.0
 14
-17.0
 24
-17.0
 34
0.0
 15
17.0
 25
17.0
 35
0.0
146
0.0
 13
0.0
 23
0.0
 33
0.0
 16
1.0
 26
0.0
 36
0.0
 17
0.0
 27
1.0
 37
0.0
 76
     0
330
23
331
A9
  0
LAYOUT
  5
22
102
{ACAD_REACTORS
330
1A
102
}
330
1A
100
AcDbPlotSettings
  1

  2
none_device
  4
Letter_(8.50_x_11.00_Inches)
  6

 40
6.35
 41
6.35
 42
6.35000508
 43
6.35000508
 44
215.9
 45
279.4
 46
0.0
 47
0.0
 48
0.0
 49
0.0
140
0.0
141
0.0
142
1.0
143
1.0
 70
  1712
 72
     1
 73
     0
 74
     0
  7

 75
     0
147
1.0
148
0.0
149
0.0
100
AcDbLayout
  1
Model
 70
     1
 71
     0
 10
0.0
 20
0.0
 11
420.0
 21
297.0
 12
0.0
 22
0.0
 32
0.0
 14
-17.0
 24
-17.0
 34
0.0
 15
17.0
 25
17.0
 35
0.0
146
0.0
 13
0.0
 23
0.0
 33
0.0
 16
1.0
 26
0.0
 36
0.0
 17
0.0
 27
1.0
 37
0.0
 76
     0
330
1F
331
29
  0
MLINESTYLE
  5
18
102
{ACAD_REACTORS
330
17
102
}
330
17
100
AcDbMlineStyle
  2
Standard
 70
     0
  3

 62
   256
 51
90.0
 52
90.0
 71
     2
 49
0.5
 62
   256
  6
BYLAYER
 49
-0.5
 62
   256
  6
BYLAYER
  0
ACDBPLACEHOLDER
  5
F
102
{ACAD_REACTORS
330
E
102
}
330
E
  0
SCALE
  5
48
102
{ACAD_REACTORS
330
47
102
}
330
47
100
AcDbScale
 70
     0
300
1:1
140
1.0
141
1.0
290
     1
  0
SCALE
  5
49
102
{ACAD_REACTORS
330
47
102
}
330
47
100
AcDbScale
 70
     0
300
1:2
140
1.0
141
2.0
290
     0
  0
SCALE
  5
4A
102
{ACAD_REACTORS
330
47
102
}
330
47
100
AcDbScale
 70
     0
300
1:4
140
1.0
141
4.0
290
     0
  0
SCALE
  5
4B
102
{ACAD_REACTORS
330
47
102
}
330
47
100
AcDbScale
 70
     0
300
1:5
140
1.0
141
5.0
290
     0
  0
SCALE
  5
4C
102
{ACAD_REACTORS
330
47
102
}
330
47
100
AcDbScale
 70
     0
300
1:8
140
1.0
141
8.0
290
     0
  0
SCALE
  5
4D
102
{ACAD_REACTORS
330
47
102
}
330
47
100
AcDbScale
 70
     0
300
1:10
140
1.0
141
10.0
290
     0
  0
SCALE
  5
4E
102
{ACAD_REACTORS
330
47
102
}
330
47
100
AcDbScale
 70
     0
300
1:16
140
1.0
141
16.0
290
     0
  0
SCALE
  5
4F
102
{ACAD_REACTORS
330
47
102
}
330
47
100
AcDbScale
 70
     0
300
1:20
140
1.0
141
20.0
290
     0
  0
SCALE
  5
50
102
{ACAD_REACTORS
330
47
102
}
330
47
100
AcDbScale
 70
     0
300
1:30
140
1.0
141
30.0
290
     0
  0
SCALE
  5
51
102
{ACAD_REACTORS
330
47
102
}
330
47
100
AcDbScale
 70
     0
300
1:40
140
1.0
141
40.0
290
     0
  0
SCALE
  5
52
102
{ACAD_REACTORS
330
47
102
}
330
47
100
AcDbScale
 70
     0
300
1:50
140
1.0
141
50.0
290
     0
  0
SCALE
  5
53
102
{ACAD_REACTORS
330
47
102
}
330
47
100
AcDbScale
 70
     0
300
1:100
140
1.0
141
100.0
290
     0
  0
SCALE
  5
54
102
{ACAD_REACTORS
330
47
102
}
330
47
100
AcDbScale
 70
     0
300
2:1
140
2.0
141
1.0
290
     0
  0
SCALE
  5
55
102
{ACAD_REACTORS
330
47
102
}
330
47
100
AcDbScale
 70
     0
300
4:1
140
4.0
141
1.0
290
     0
  0
SCALE
  5
56
102
{ACAD_REACTORS
330
47
102
}
330
47
100
AcDbScale
 70
     0
300
8:1
140
8.0
141
1.0
290
     0
  0
SCALE
  5
57
102
{ACAD_REACTORS
330
47
102
}
330
47
100
AcDbScale
 70
     0
300
10:1
140
10.0
141
1.0
290
     0
  0
SCALE
  5
58
102
{ACAD_REACTORS
330
47
102
}
330
47
100
AcDbScale
 70
     0
300
100:1
140
100.0
141
1.0
290
     0
  0
SCALE
  5
59
102
{ACAD_REACTORS
330
47
102
}
330
47
100
AcDbScale
 70
     0
300
1/128" = 1'-0"
140
0.0078125
141
12.0
290
     0
  0
SCALE
  5
5A
102
{ACAD_REACTORS
330
47
102
}
330
47
100
AcDbScale
 70
     0
300
1/64" = 1'-0"
140
0.015625
141
12.0
290
     0
  0
SCALE
  5
5B
102
{ACAD_REACTORS
330
47
102
}
330
47
100
AcDbScale
 70
     0
300
1/32" = 1'-0"
140
0.03125
141
12.0
290
     0
  0
SCALE
  5
5C
102
{ACAD_REACTORS
330
47
102
}
330
47
100
AcDbScale
 70
     0
300
1/16" = 1'-0"
140
0.0625
141
12.0
290
     0
  0
SCALE
  5
5D
102
{ACAD_REACTORS
330
47
102
}
330
47
100
AcDbScale
 70
     0
300
3/32" = 1'-0"
140
0.09375
141
12.0
290
     0
  0
SCALE
  5
5E
102
{ACAD_REACTORS
330
47
102
}
330
47
100
AcDbScale
 70
     0
300
1/8" = 1'-0"
140
0.125
141
12.0
290
     0
  0
SCALE
  5
5F
102
{ACAD_REACTORS
330
47
102
}
330
47
100
AcDbScale
 70
     0
300
3/16" = 1'-0"
140
0.1875
141
12.0
290
     0
  0
SCALE
  5
60
102
{ACAD_REACTORS
330
47
102
}
330
47
100
AcDbScale
 70
     0
300
1/4" = 1'-0"
140
0.25
141
12.0
290
     0
  0
SCALE
  5
61
102
{ACAD_REACTORS
330
47
102
}
330
47
100
AcDbScale
 70
     0
300
3/8" = 1'-0"
140
0.375
141
12.0
290
     0
  0
SCALE
  5
62
102
{ACAD_REACTORS
330
47
102
}
330
47
100
AcDbScale
 70
     0
300
1/2" = 1'-0"
140
0.5
141
12.0
290
     0
  0
SCALE
  5
63
102
{ACAD_REACTORS
330
47
102
}
330
47
100
AcDbScale
 70
     0
300
3/4" = 1'-0"
140
0.75
141
12.0
290
     0
  0
SCALE
  5
64
102
{ACAD_REACTORS
330
47
102
}
330
47
100
AcDbScale
 70
     0
300
1" = 1'-0"
140
1.0
141
12.0
290
     0
  0
SCALE
  5
65
102
{ACAD_REACTORS
330
47
102
}
330
47
100
AcDbScale
 70
     0
300
1-1/2" = 1'-0"
140
1.5
141
12.0
290
     0
  0
SCALE
  5
66
102
{ACAD_REACTORS
330
47
102
}
330
47
100
AcDbScale
 70
     0
300
3" = 1'-0"
140
3.0
141
12.0
290
     0
  0
SCALE
  5
67
102
{ACAD_REACTORS
330
47
102
}
330
47
100
AcDbScale
 70
     0
300
6" = 1'-0"
140
6.0
141
12.0
290
     0
  0
SCALE
  5
68
102
{ACAD_REACTORS
330
47
102
}
330
47
100
AcDbScale
 70
     0
300
1'-0" = 1'-0"
140
12.0
141
12.0
290
     0
  0
ENDSEC
  0
EOF
