  0
SECTION
  2
HEADER
  9
$ACADVER
  1
AC1015
  9
$ACADMAINTVER
 70
     6
  9
$DWGCODEPAGE
  3
ANSI_1252
  9
$INSBASE
 10
0.0
 20
0.0
 30
0.0
  9
$EXTMIN
 10
-24.0
 20
-2.0
 30
0.0
  9
$EXTMAX
 10
24.0
 20
72.8551635245
 30
0.0
  9
$LIMMIN
 10
0.0
 20
0.0
  9
$LIMMAX
 10
420.0
 20
297.0
  9
$ORTHOMODE
 70
     0
  9
$REGENMODE
 70
     1
  9
$FILLMODE
 70
     1
  9
$QTEXTMODE
 70
     0
  9
$MIRRTEXT
 70
     1
  9
$LTSCALE
 40
1.0
  9
$ATTMODE
 70
     1
  9
$TEXTSIZE
 40
3.5
  9
$TRACEWID
 40
1.0
  9
$TEXTSTYLE
  7
Standard
  9
$CLAYER
  8
0
  9
$CELTYPE
  6
ByLayer
  9
$CECOLOR
 62
   256
  9
$CELTSCALE
 40
1.0
  9
$DISPSILH
 70
     0
  9
$DIMSCALE
 40
1.0
  9
$DIMASZ
 40
3.302
  9
$DIMEXO
 40
1.0
  9
$DIMDLI
 40
3.75
  9
$DIMRND
 40
0.0
  9
$DIMDLE
 40
0.0
  9
$DIMEXE
 40
1.0
  9
$DIMTP
 40
0.0
  9
$DIMTM
 40
0.0
  9
$DIMTXT
 40
3.5
  9
$DIMCEN
 40
2.5
  9
$DIMTSZ
 40
0.0
  9
$DIMTOL
 70
     0
  9
$DIMLIM
 70
     0
  9
$DIMTIH
 70
     1
  9
$DIMTOH
 70
     1
  9
$DIMSE1
 70
     0
  9
$DIMSE2
 70
     0
  9
$DIMTAD
 70
     1
  9
$DIMZIN
 70
     0
  9
$DIMBLK
  1

  9
$DIMASO
 70
     1
  9
$DIMSHO
 70
     1
  9
$DIMPOST
  1

  9
$DIMAPOST
  1

  9
$DIMALT
 70
     0
  9
$DIMALTD
 70
     3
  9
$DIMALTF
 40
0.0393700787
  9
$DIMLFAC
 40
1.0
  9
$DIMTOFL
 70
     1
  9
$DIMTVP
 40
0.0
  9
$DIMTIX
 70
     0
  9
$DIMSOXD
 70
     0
  9
$DIMSAH
 70
     0
  9
$DIMBLK1
  1

  9
$DIMBLK2
  1

  9
$DIMSTYLE
  2
ISO-25
  9
$DIMCLRD
 70
     0
  9
$DIMCLRE
 70
     0
  9
$DIMCLRT
 70
     0
  9
$DIMTFAC
 40
1.0
  9
$DIMGAP
 40
1.524
  9
$DIMJUST
 70
     0
  9
$DIMSD1
 70
     0
  9
$DIMSD2
 70
     0
  9
$DIMTOLJ
 70
     0
  9
$DIMTZIN
 70
     0
  9
$DIMALTZ
 70
     0
  9
$DIMALTTZ
 70
     0
  9
$DIMUPT
 70
     0
  9
$DIMDEC
 70
     2
  9
$DIMTDEC
 70
     2
  9
$DIMALTU
 70
     2
  9
$DIMALTTD
 70
     3
  9
$DIMTXSTY
  7
Standard
  9
$DIMAUNIT
 70
     0
  9
$DIMADEC
 70
     2
  9
$DIMALTRND
 40
0.0
  9
$DIMAZIN
 70
     0
  9
$DIMDSEP
 70
    44
  9
$DIMATFIT
 70
     3
  9
$DIMFRAC
 70
     0
  9
$DIMLDRBLK
  1

  9
$DIMLUNIT
 70
     2
  9
$DIMLWD
 70
    -2
  9
$DIMLWE
 70
    -2
  9
$DIMTMOVE
 70
     0
  9
$LUNITS
 70
     2
  9
$LUPREC
 70
     2
  9
$SKETCHINC
 40
1.0
  9
$FILLETRAD
 40
10.0
  9
$AUNITS
 70
     0
  9
$AUPREC
 70
     2
  9
$MENU
  1
.
  9
$ELEVATION
 40
0.0
  9
$PELEVATION
 40
0.0
  9
$THICKNESS
 40
0.0
  9
$LIMCHECK
 70
     0
  9
$CHAMFERA
 40
0.0
  9
$CHAMFERB
 40
0.0
  9
$CHAMFERC
 40
0.0
  9
$CHAMFERD
 40
0.0
  9
$SKPOLY
 70
     0
  9
$TDCREATE
 40
2458564.635288889
  9
$TDUCREATE
 40
2458564.760288889
  9
$TDUPDATE
 40
2458564.635440764
  9
$TDUUPDATE
 40
2458564.760440764
  9
$TDINDWG
 40
0.0000000116
  9
$TDUSRTIMER
 40
0.0000000116
  9
$USRTIMER
 70
     1
  9
$ANGBASE
 50
0.0
  9
$ANGDIR
 70
     0
  9
$PDMODE
 70
     0
  9
$PDSIZE
 40
-1.0
  9
$PLINEWID
 40
0.0
  9
$SPLFRAME
 70
     0
  9
$SPLINETYPE
 70
     6
  9
$SPLINESEGS
 70
     8
  9
$HANDSEED
  5
209
  9
$SURFTAB1
 70
     6
  9
$SURFTAB2
 70
     6
  9
$SURFTYPE
 70
     6
  9
$SURFU
 70
     6
  9
$SURFV
 70
     6
  9
$UCSBASE
  2

  9
$UCSNAME
  2

  9
$UCSORG
 10
0.0
 20
0.0
 30
0.0
  9
$UCSXDIR
 10
1.0
 20
0.0
 30
0.0
  9
$UCSYDIR
 10
0.0
 20
1.0
 30
0.0
  9
$UCSORTHOREF
  2

  9
$UCSORTHOVIEW
 70
     0
  9
$UCSORGTOP
 10
0.0
 20
0.0
 30
0.0
  9
$UCSORGBOTTOM
 10
0.0
 20
0.0
 30
0.0
  9
$UCSORGLEFT
 10
0.0
 20
0.0
 30
0.0
  9
$UCSORGRIGHT
 10
0.0
 20
0.0
 30
0.0
  9
$UCSORGFRONT
 10
0.0
 20
0.0
 30
0.0
  9
$UCSORGBACK
 10
0.0
 20
0.0
 30
0.0
  9
$PUCSBASE
  2

  9
$PUCSNAME
  2

  9
$PUCSORG
 10
0.0
 20
0.0
 30
0.0
  9
$PUCSXDIR
 10
1.0
 20
0.0
 30
0.0
  9
$PUCSYDIR
 10
0.0
 20
1.0
 30
0.0
  9
$PUCSORTHOREF
  2

  9
$PUCSORTHOVIEW
 70
     0
  9
$PUCSORGTOP
 10
0.0
 20
0.0
 30
0.0
  9
$PUCSORGBOTTOM
 10
0.0
 20
0.0
 30
0.0
  9
$PUCSORGLEFT
 10
0.0
 20
0.0
 30
0.0
  9
$PUCSORGRIGHT
 10
0.0
 20
0.0
 30
0.0
  9
$PUCSORGFRONT
 10
0.0
 20
0.0
 30
0.0
  9
$PUCSORGBACK
 10
0.0
 20
0.0
 30
0.0
  9
$USERI1
 70
     0
  9
$USERI2
 70
     0
  9
$USERI3
 70
     0
  9
$USERI4
 70
     0
  9
$USERI5
 70
     0
  9
$USERR1
 40
0.0
  9
$USERR2
 40
0.0
  9
$USERR3
 40
0.0
  9
$USERR4
 40
0.0
  9
$USERR5
 40
0.0
  9
$WORLDVIEW
 70
     1
  9
$SHADEDGE
 70
     3
  9
$SHADEDIF
 70
    70
  9
$TILEMODE
 70
     0
  9
$MAXACTVP
 70
    64
  9
$PINSBASE
 10
0.0
 20
0.0
 30
0.0
  9
$PLIMCHECK
 70
     0
  9
$PEXTMIN
 10
-24.0
 20
-2.0
 30
0.0
  9
$PEXTMAX
 10
24.0
 20
72.8551635245
 30
0.0
  9
$PLIMMIN
 10
0.0
 20
0.0
  9
$PLIMMAX
 10
0.0
 20
0.0
  9
$UNITMODE
 70
     0
  9
$VISRETAIN
 70
     1
  9
$PLINEGEN
 70
     0
  9
$PSLTSCALE
 70
     1
  9
$TREEDEPTH
 70
  3020
  9
$CMLSTYLE
  2
Standard
  9
$CMLJUST
 70
     0
  9
$CMLSCALE
 40
20.0
  9
$PROXYGRAPHICS
 70
     1
  9
$MEASUREMENT
 70
     1
  9
$CELWEIGHT
370
    -1
  9
$ENDCAPS
280
     0
  9
$JOINSTYLE
280
     0
  9
$LWDISPLAY
290
     1
  9
$INSUNITS
 70
     4
  9
$HYPERLINKBASE
  1

  9
$STYLESHEET
  1

  9
$XEDIT
290
     1
  9
$CEPSNTYPE
380
     0
  9
$PSTYLEMODE
290
     1
  9
$FINGERPRINTGUID
  2
{E1A8B4CA-F55F-49E2-982E-21B65CF1CECF}
  9
$VERSIONGUID
  2
{FAEB1C32-E019-11D5-929B-00C0DF256EC4}
  9
$EXTNAMES
290
     1
  9
$PSVPSCALE
 40
0.0
  9
$OLESTARTUP
290
     0
  0
ENDSEC
  0
SECTION
  2
CLASSES
  0
CLASS
  1
ACDBDICTIONARYWDFLT
  2
AcDbDictionaryWithDefault
  3
ObjectDBX Classes
 90
        0
280
     0
281
     0
  0
CLASS
  1
VISUALSTYLE
  2
AcDbVisualStyle
  3
ObjectDBX Classes
 90
     4095
280
     0
281
     0
  0
CLASS
  1
MATERIAL
  2
AcDbMaterial
  3
ObjectDBX Classes
 90
     1153
280
     0
281
     0
  0
CLASS
  1
SCALE
  2
AcDbScale
  3
ObjectDBX Classes
 90
     1153
280
     0
281
     0
  0
CLASS
  1
TABLESTYLE
  2
AcDbTableStyle
  3
ObjectDBX Classes
 90
     4095
280
     0
281
     0
  0
CLASS
  1
MLEADERSTYLE
  2
AcDbMLeaderStyle
  3
ACDB_MLEADERSTYLE_CLASS
 90
     4095
280
     0
281
     0
  0
CLASS
  1
SUN
  2
AcDbSun
  3
SCENEOE
 90
     1153
280
     0
281
     0
  0
CLASS
  1
ACDBPLACEHOLDER
  2
AcDbPlaceHolder
  3
ObjectDBX Classes
 90
        0
280
     0
281
     0
  0
CLASS
  1
LAYOUT
  2
AcDbLayout
  3
ObjectDBX Classes
 90
        0
280
     0
281
     0
  0
ENDSEC
  0
SECTION
  2
TABLES
  0
TABLE
  2
VPORT
  5
8
330
0
100
AcDbSymbolTable
 70
     1
  0
VPORT
  5
29
330
8
100
AcDbSymbolTableRecord
100
AcDbViewportTableRecord
  2
*Active
 70
     0
 10
0.0
 20
0.0
 11
1.0
 21
1.0
 12
0.0
 22
35.4275817623
 13
0.0
 23
0.0
 14
10.0
 24
10.0
 15
10.0
 25
10.0
 16
0.0
 26
0.0
 36
1.0
 17
0.0
 27
0.0
 37
0.0
 40
76.352266795
 41
0.6412383293
 42
50.0
 43
0.0
 44
0.0
 50
0.0
 51
0.0
 71
     0
 72
   100
 73
     1
 74
     3
 75
     0
 76
     0
 77
     0
 78
     0
281
     0
 65
     1
110
0.0
120
0.0
130
0.0
111
1.0
121
0.0
131
0.0
112
0.0
122
1.0
132
0.0
 79
     0
146
0.0
  0
ENDTAB
  0
TABLE
  2
LTYPE
  5
5
330
0
100
AcDbSymbolTable
 70
     6
  0
LTYPE
  5
14
330
5
100
AcDbSymbolTableRecord
100
AcDbLinetypeTableRecord
  2
ByBlock
 70
     0
  3

 72
    65
 73
     0
 40
0.0
  0
LTYPE
  5
15
330
5
100
AcDbSymbolTableRecord
100
AcDbLinetypeTableRecord
  2
ByLayer
 70
     0
  3

 72
    65
 73
     0
 40
0.0
  0
LTYPE
  5
16
330
5
100
AcDbSymbolTableRecord
100
AcDbLinetypeTableRecord
  2
Continuous
 70
     0
  3
Solid line
 72
    65
 73
     0
 40
0.0
  0
LTYPE
  5
6E
330
5
100
AcDbSymbolTableRecord
100
AcDbLinetypeTableRecord
  2
HIDDEN
 70
     0
  3
Hidden __ __ __ __ __ __ __ __ __ __ __ __ __ __
 72
    65
 73
     2
 40
1.905
 49
1.27
 74
     0
 49
-0.635
 74
     0
  0
LTYPE
  5
6F
330
5
100
AcDbSymbolTableRecord
100
AcDbLinetypeTableRecord
  2
PHANTOM
 70
     0
  3
Phantom ______  __  __  ______  __  __  ______
 72
    65
 73
     6
 40
12.7
 49
6.35
 74
     0
 49
-1.27
 74
     0
 49
1.27
 74
     0
 49
-1.27
 74
     0
 49
1.27
 74
     0
 49
-1.27
 74
     0
  0
LTYPE
  5
70
330
5
100
AcDbSymbolTableRecord
100
AcDbLinetypeTableRecord
  2
CENTER
 70
     0
  3
Center ____ _ ____ _ ____ _ ____ _ ____ _ ____
 72
    65
 73
     4
 40
10.16
 49
6.35
 74
     0
 49
-1.27
 74
     0
 49
1.27
 74
     0
 49
-1.27
 74
     0
  0
LTYPE
  5
71
330
5
100
AcDbSymbolTableRecord
100
AcDbLinetypeTableRecord
  2
CENTERX2
 70
     0
  3
Center (2x) ________  __  ________  __  _____
 72
    65
 73
     4
 40
20.32
 49
12.7
 74
     0
 49
-2.54
 74
     0
 49
2.54
 74
     0
 49
-2.54
 74
     0
  0
LTYPE
  5
72
330
5
100
AcDbSymbolTableRecord
100
AcDbLinetypeTableRecord
  2
DOT2
 70
     0
  3
Dot (.5x) ........................................
 72
    65
 73
     2
 40
0.635
 49
0.0
 74
     0
 49
-0.635
 74
     0
  0
ENDTAB
  0
TABLE
  2
LAYER
  5
2
330
0
100
AcDbSymbolTable
 70
     1
  0
LAYER
  5
10
330
2
100
AcDbSymbolTableRecord
100
AcDbLayerTableRecord
  2
0
 70
     0
 62
     7
  6
Continuous
370
    -3
390
F
  0
ENDTAB
  0
TABLE
  2
STYLE
  5
3
330
0
100
AcDbSymbolTable
 70
     1
  0
STYLE
  5
11
330
3
100
AcDbSymbolTableRecord
100
AcDbTextStyleTableRecord
  2
Standard
 70
     0
 40
0.0
 41
1.0
 50
0.0
 71
     0
 42
3.5
  3
txt
  4

  0
ENDTAB
  0
TABLE
  2
VIEW
  5
6
330
0
100
AcDbSymbolTable
 70
     0
  0
ENDTAB
  0
TABLE
  2
UCS
  5
7
330
0
100
AcDbSymbolTable
 70
     0
  0
ENDTAB
  0
TABLE
  2
APPID
  5
9
330
0
100
AcDbSymbolTable
 70
     1
  0
APPID
  5
12
330
9
100
AcDbSymbolTableRecord
100
AcDbRegAppTableRecord
  2
ACAD
 70
     0
  0
ENDTAB
  0
TABLE
  2
DIMSTYLE
  5
A
330
0
100
AcDbSymbolTable
 70
     1
100
AcDbDimStyleTable
  0
DIMSTYLE
105
27
330
A
100
AcDbSymbolTableRecord
100
AcDbDimStyleTableRecord
  2
ISO-25
 70
     0
 41
2.5
 42
0.625
 43
3.75
 44
1.25
 73
     0
 74
     0
 77
     1
 78
     8
140
2.5
141
2.5
143
0.0393700787
147
0.625
171
     3
172
     1
178
     0
271
     2
272
     2
274
     3
278
    44
283
     0
284
     8
340
11
  0
ENDTAB
  0
TABLE
  2
BLOCK_RECORD
  5
1
330
0
100
AcDbSymbolTable
 70
     2
  0
BLOCK_RECORD
  5
1F
330
1
100
AcDbSymbolTableRecord
100
AcDbBlockTableRecord
  2
*Model_Space
340
22
  0
BLOCK_RECORD
  5
147
330
1
100
AcDbSymbolTableRecord
100
AcDbBlockTableRecord
  2
*Paper_Space
340
148
  0
BLOCK_RECORD
  5
1B
330
1
100
AcDbSymbolTableRecord
100
AcDbBlockTableRecord
  2
*Paper_Space0
340
1E
  0
BLOCK_RECORD
  5
23
330
1
100
AcDbSymbolTableRecord
100
AcDbBlockTableRecord
  2
*Paper_Space1
340
26
  0
ENDTAB
  0
ENDSEC
  0
SECTION
  2
BLOCKS
  0
BLOCK
  5
20
330
1F
100
AcDbEntity
  8
0
100
AcDbBlockBegin
  2
*Model_Space
 70
     0
 10
0.0
 20
0.0
 30
0.0
  3
*Model_Space
  1

  0
ENDBLK
  5
21
330
1F
100
AcDbEntity
  8
0
100
AcDbBlockEnd
  0
BLOCK
  5
149
330
147
100
AcDbEntity
 67
     1
  8
0
100
AcDbBlockBegin
  2
*Paper_Space
 70
     0
 10
0.0
 20
0.0
 30
0.0
  3
*Paper_Space
  1

  0
ENDBLK
  5
14A
330
147
100
AcDbEntity
 67
     1
  8
0
100
AcDbBlockEnd
  0
BLOCK
  5
1C
330
1B
100
AcDbEntity
  8
0
100
AcDbBlockBegin
  2
*Paper_Space0
 70
     0
 10
0.0
 20
0.0
 30
0.0
  3
*Paper_Space0
  1

  0
CIRCLE
  5
E8
330
1B
100
AcDbEntity
  8
0
  6
Continuous
 62
     7
370
    15
100
AcDbCircle
 10
0.0
 20
0.0
 30
0.0
 40
3.0
  0
CIRCLE
  5
E9
330
1B
100
AcDbEntity
  8
0
  6
Continuous
 62
     7
370
    15
100
AcDbCircle
 10
0.0
 20
-11.0
 30
0.0
 40
1.25
  0
CIRCLE
  5
EA
330
1B
100
AcDbEntity
  8
0
  6
Continuous
 62
     7
370
    15
100
AcDbCircle
 10
7.7781745931
 20
-7.7781745931
 30
0.0
 40
1.250000000000019
  0
CIRCLE
  5
EB
330
1B
100
AcDbEntity
  8
0
  6
Continuous
 62
     7
370
    15
100
AcDbCircle
 10
11.0
 20
0.0
 30
0.0
 40
1.250000000000037
  0
CIRCLE
  5
EC
330
1B
100
AcDbEntity
  8
0
  6
Continuous
 62
     7
370
    15
100
AcDbCircle
 10
7.7781745931
 20
7.7781745931
 30
0.0
 40
1.250000000000053
  0
CIRCLE
  5
ED
330
1B
100
AcDbEntity
  8
0
  6
Continuous
 62
     7
370
    15
100
AcDbCircle
 10
0.0
 20
11.0
 30
0.0
 40
1.250000000000071
  0
CIRCLE
  5
EE
330
1B
100
AcDbEntity
  8
0
  6
Continuous
 62
     7
370
    15
100
AcDbCircle
 10
-7.7781745931
 20
7.7781745931
 30
0.0
 40
1.250000000000091
  0
CIRCLE
  5
EF
330
1B
100
AcDbEntity
  8
0
  6
Continuous
 62
     7
370
    15
100
AcDbCircle
 10
-11.0
 20
0.0
 30
0.0
 40
1.250000000000109
  0
CIRCLE
  5
F0
330
1B
100
AcDbEntity
  8
0
  6
Continuous
 62
     7
370
    15
100
AcDbCircle
 10
-7.7781745931
 20
-7.7781745931
 30
0.0
 40
1.250000000000128
  0
CIRCLE
  5
F1
330
1B
100
AcDbEntity
  8
0
  6
Continuous
 62
     7
370
    15
100
AcDbCircle
 10
0.0
 20
30.0
 30
0.0
 40
6.500000000000007
  0
CIRCLE
  5
F2
330
1B
100
AcDbEntity
  8
0
  6
Continuous
 62
     7
370
    15
100
AcDbCircle
 10
0.0
 20
-30.0
 30
0.0
 40
6.500000000000018
  0
LINE
  5
F3
330
1B
100
AcDbEntity
  8
0
  6
Continuous
 62
     7
370
    15
100
AcDbLine
 10
10.1884738744
 20
64.0
 30
0.0
 11
10.1884738744
 21
62.0
 31
0.0
  0
LINE
  5
F4
330
1B
100
AcDbEntity
  8
0
  6
Continuous
 62
     7
370
    15
100
AcDbLine
 10
7.9333631362
 20
62.0
 30
0.0
 11
7.9333631362
 21
64.0
 31
0.0
  0
LINE
  5
F5
330
1B
100
AcDbEntity
  8
0
  6
Continuous
 62
     7
370
    15
100
AcDbLine
 10
5.0
 20
62.0
 30
0.0
 11
5.0
 21
64.0
 31
0.0
  0
LINE
  5
F6
330
1B
100
AcDbEntity
  8
0
  6
Continuous
 62
     7
370
    15
100
AcDbLine
 10
-7.9333631362
 20
-64.0
 30
0.0
 11
-7.9333631362
 21
-62.0
 31
0.0
  0
LINE
  5
F7
330
1B
100
AcDbEntity
  8
0
  6
Continuous
 62
     7
370
    15
100
AcDbLine
 10
-5.0
 20
-62.0
 30
0.0
 11
-5.0
 21
-64.0
 31
0.0
  0
LINE
  5
F8
330
1B
100
AcDbEntity
  8
0
  6
Continuous
 62
     7
370
    15
100
AcDbLine
 10
-10.1884738744
 20
-64.0
 30
0.0
 11
-10.1884738744
 21
-62.0
 31
0.0
  0
LINE
  5
F9
330
1B
100
AcDbEntity
  8
0
  6
Continuous
 62
     7
370
    15
100
AcDbLine
 10
24.0
 20
-64.0
 30
0.0
 11
-24.0
 21
-64.0
 31
0.0
  0
LINE
  5
FA
330
1B
100
AcDbEntity
  8
0
  6
Continuous
 62
     7
370
    15
100
AcDbLine
 10
5.0
 20
-64.0
 30
0.0
 11
5.0
 21
-62.0
 31
0.0
  0
LINE
  5
FB
330
1B
100
AcDbEntity
  8
0
  6
Continuous
 62
     7
370
    15
100
AcDbLine
 10
24.0
 20
-62.0
 30
0.0
 11
-24.0
 21
-62.0
 31
0.0
  0
LINE
  5
FC
330
1B
100
AcDbEntity
  8
0
  6
Continuous
 62
     7
370
    15
100
AcDbLine
 10
7.9333631362
 20
-62.0
 30
0.0
 11
7.9333631362
 21
-64.0
 31
0.0
  0
LINE
  5
FD
330
1B
100
AcDbEntity
  8
0
  6
Continuous
 62
     7
370
    15
100
AcDbLine
 10
10.1884738744
 20
-62.0
 30
0.0
 11
10.1884738744
 21
-64.0
 31
0.0
  0
LINE
  5
FE
330
1B
100
AcDbEntity
  8
0
  6
Continuous
 62
     7
370
    15
100
AcDbLine
 10
-24.0
 20
64.0
 30
0.0
 11
24.0
 21
64.0
 31
0.0
  0
LINE
  5
FF
330
1B
100
AcDbEntity
  8
0
  6
Continuous
 62
     7
370
    15
100
AcDbLine
 10
-5.0
 20
64.0
 30
0.0
 11
-5.0
 21
62.0
 31
0.0
  0
LINE
  5
100
330
1B
100
AcDbEntity
  8
0
  6
Continuous
 62
     7
370
    15
100
AcDbLine
 10
-24.0
 20
62.0
 30
0.0
 11
24.0
 21
62.0
 31
0.0
  0
LINE
  5
101
330
1B
100
AcDbEntity
  8
0
  6
Continuous
 62
     7
370
    15
100
AcDbLine
 10
-7.9333631362
 20
62.0
 30
0.0
 11
-7.9333631362
 21
64.0
 31
0.0
  0
LINE
  5
102
330
1B
100
AcDbEntity
  8
0
  6
Continuous
 62
     7
370
    15
100
AcDbLine
 10
-10.1884738744
 20
62.0
 30
0.0
 11
-10.1884738744
 21
64.0
 31
0.0
  0
LINE
  5
103
330
1B
100
AcDbEntity
  8
0
  6
Continuous
 62
     7
370
    15
100
AcDbLine
 10
11.5308004528
 20
62.0
 30
0.0
 11
11.5308004528
 21
64.0
 31
0.0
  0
LINE
  5
104
330
1B
100
AcDbEntity
  8
0
  6
Continuous
 62
     7
370
    15
100
AcDbLine
 10
-11.5308004528
 20
-62.0
 30
0.0
 11
-11.5308004528
 21
-64.0
 31
0.0
  0
LINE
  5
105
330
1B
100
AcDbEntity
  8
0
  6
Continuous
 62
     7
370
    15
100
AcDbLine
 10
-11.5308004528
 20
64.0
 30
0.0
 11
-11.5308004528
 21
62.0
 31
0.0
  0
LINE
  5
106
330
1B
100
AcDbEntity
  8
0
  6
Continuous
 62
     7
370
    15
100
AcDbLine
 10
11.5308004528
 20
-64.0
 30
0.0
 11
11.5308004528
 21
-62.0
 31
0.0
  0
LINE
  5
107
330
1B
100
AcDbEntity
  8
0
  6
Continuous
 62
     7
370
    15
100
AcDbLine
 10
-12.1473532129
 20
-64.0
 30
0.0
 11
-12.1473532129
 21
-62.0
 31
0.0
  0
LINE
  5
108
330
1B
100
AcDbEntity
  8
0
  6
Continuous
 62
     7
370
    15
100
AcDbLine
 10
12.1473532129
 20
64.0
 30
0.0
 11
12.1473532129
 21
62.0
 31
0.0
  0
LINE
  5
109
330
1B
100
AcDbEntity
  8
0
  6
Continuous
 62
     7
370
    15
100
AcDbLine
 10
-12.1473532129
 20
62.0
 30
0.0
 11
-12.1473532129
 21
64.0
 31
0.0
  0
LINE
  5
10A
330
1B
100
AcDbEntity
  8
0
  6
Continuous
 62
     7
370
    15
100
AcDbLine
 10
12.1473532129
 20
-62.0
 30
0.0
 11
12.1473532129
 21
-64.0
 31
0.0
  0
LINE
  5
10B
330
1B
100
AcDbEntity
  8
0
  6
Continuous
 62
     7
370
    15
100
AcDbLine
 10
24.0
 20
-64.0
 30
0.0
 11
24.0
 21
64.0
 31
0.0
  0
LINE
  5
10C
330
1B
100
AcDbEntity
  8
0
  6
Continuous
 62
     7
370
    15
100
AcDbLine
 10
-24.0
 20
64.0
 30
0.0
 11
-24.0
 21
-64.0
 31
0.0
  0
LINE
  5
10D
330
1B
100
AcDbEntity
  8
0
  6
Continuous
 62
     7
370
    15
100
AcDbLine
 10
24.0
 20
-61.0
 30
0.0
 11
-24.0
 21
-61.0
 31
0.0
  0
LINE
  5
10E
330
1B
100
AcDbEntity
  8
0
  6
Continuous
 62
     7
370
    15
100
AcDbLine
 10
-24.0
 20
61.0
 30
0.0
 11
24.0
 21
61.0
 31
0.0
  0
VIEWPORT
  5
203
330
1B
100
AcDbEntity
  8
0
100
AcDbViewport
 10
0.0
 20
0.0
 30
0.0
 40
205.6
 41
156.0
 68
     1
 69
     1
 12
0.0
 22
35.4275817623
 13
0.0
 23
0.0
 14
10.0
 24
10.0
 15
10.0
 25
10.0
 16
0.0
 26
0.0
 36
1.0
 17
0.0
 27
0.0
 37
0.0
 42
50.0
 43
0.0
 44
0.0
 45
76.352266795
 50
0.0
 51
0.0
 72
   100
 90
   557152
  1

281
     0
 71
     1
 74
     0
110
0.0
120
0.0
130
0.0
111
1.0
121
0.0
131
0.0
112
0.0
122
1.0
132
0.0
 79
     0
146
0.0
  0
ENDBLK
  5
1D
330
1B
100
AcDbEntity
  8
0
100
AcDbBlockEnd
  0
BLOCK
  5
24
330
23
100
AcDbEntity
  8
0
100
AcDbBlockBegin
  2
*Paper_Space1
 70
     0
 10
0.0
 20
0.0
 30
0.0
  3
*Paper_Space1
  1

  0
LINE
  5
131
330
23
100
AcDbEntity
  8
0
  6
Continuous
 62
     7
370
    15
100
AcDbLine
 10
61.0
 20
0.0
 30
0.0
 11
61.0
 21
-2.0
 31
0.0
  0
LINE
  5
132
330
23
100
AcDbEntity
  8
0
  6
Continuous
 62
     7
370
    15
100
AcDbLine
 10
62.0
 20
1.0
 30
0.0
 11
64.0
 21
1.0
 31
0.0
  0
LINE
  5
133
330
23
100
AcDbEntity
  8
0
  6
Continuous
 62
     7
370
    15
100
AcDbLine
 10
-61.0
 20
0.0
 30
0.0
 11
-61.0
 21
-2.0
 31
0.0
  0
LINE
  5
134
330
23
100
AcDbEntity
  8
0
  6
Continuous
 62
     7
370
    15
100
AcDbLine
 10
-61.0
 20
0.0
 30
0.0
 11
61.0
 21
0.0
 31
0.0
  0
LINE
  5
135
330
23
100
AcDbEntity
  8
0
  6
Continuous
 62
     7
370
    15
100
AcDbLine
 10
-61.0
 20
-2.0
 30
0.0
 11
61.0
 21
-2.0
 31
0.0
  0
LINE
  5
136
330
23
100
AcDbEntity
  8
0
  6
Continuous
 62
     7
370
    15
100
AcDbLine
 10
-62.0
 20
1.0
 30
0.0
 11
-64.0
 21
1.0
 31
0.0
  0
LINE
  5
137
330
23
100
AcDbEntity
  8
0
  6
Continuous
 62
     7
370
    15
100
AcDbLine
 10
-62.0
 20
67.6989668022
 30
0.0
 11
-64.0
 21
67.6989668022
 31
0.0
  0
LINE
  5
138
330
23
100
AcDbEntity
  8
0
  6
Continuous
 62
     7
370
    15
100
AcDbLine
 10
-62.0
 20
1.0
 30
0.0
 11
-62.0
 21
72.8551635245
 31
0.0
  0
LINE
  5
139
330
23
100
AcDbEntity
  8
0
  6
Continuous
 62
     7
370
    15
100
AcDbLine
 10
-64.0
 20
1.0
 30
0.0
 11
-64.0
 21
72.8551635245
 31
0.0
  0
LINE
  5
13A
330
23
100
AcDbEntity
  8
0
  6
Continuous
 62
     7
370
    15
100
AcDbLine
 10
64.0
 20
67.6989668022
 30
0.0
 11
62.0
 21
67.6989668022
 31
0.0
  0
LINE
  5
13B
330
23
100
AcDbEntity
  8
0
  6
Continuous
 62
     7
370
    15
100
AcDbLine
 10
62.0
 20
72.8551635245
 30
0.0
 11
62.0
 21
1.0
 31
0.0
  0
LINE
  5
13C
330
23
100
AcDbEntity
  8
0
  6
Continuous
 62
     7
370
    15
100
AcDbLine
 10
64.0
 20
72.8551635245
 30
0.0
 11
64.0
 21
1.0
 31
0.0
  0
LINE
  5
13D
330
23
100
AcDbEntity
  8
0
  6
Continuous
 62
     7
370
    15
100
AcDbLine
 10
62.0
 20
69.2275674117
 30
0.0
 11
64.0
 21
69.2275674117
 31
0.0
  0
LINE
  5
13E
330
23
100
AcDbEntity
  8
0
  6
Continuous
 62
     7
370
    15
100
AcDbLine
 10
-64.0
 20
69.2275674117
 30
0.0
 11
-62.0
 21
69.2275674117
 31
0.0
  0
LINE
  5
13F
330
23
100
AcDbEntity
  8
0
  6
Continuous
 62
     7
370
    15
100
AcDbLine
 10
64.0
 20
71.2284507777
 30
0.0
 11
62.0
 21
71.2284507777
 31
0.0
  0
LINE
  5
140
330
23
100
AcDbEntity
  8
0
  6
Continuous
 62
     7
370
    15
100
AcDbLine
 10
-62.0
 20
71.2284507777
 30
0.0
 11
-64.0
 21
71.2284507777
 31
0.0
  0
LINE
  5
141
330
23
100
AcDbEntity
  8
0
  6
Continuous
 62
     7
370
    15
100
AcDbLine
 10
62.0
 20
72.8551635245
 30
0.0
 11
64.0
 21
72.8551635245
 31
0.0
  0
LINE
  5
142
330
23
100
AcDbEntity
  8
0
  6
Continuous
 62
     7
370
    15
100
AcDbLine
 10
-62.0
 20
72.8551635245
 30
0.0
 11
-64.0
 21
72.8551635245
 31
0.0
  0
ARC
  5
143
330
23
100
AcDbEntity
  8
0
  6
Continuous
 62
     7
370
    15
100
AcDbCircle
 10
61.0
 20
1.0
 30
0.0
 40
3.000000000000028
100
AcDbArc
 50
270.0
 51
0.0
  0
ARC
  5
144
330
23
100
AcDbEntity
  8
0
  6
Continuous
 62
     7
370
    15
100
AcDbCircle
 10
61.0
 20
1.0
 30
0.0
 40
1.000000000000244
100
AcDbArc
 50
270.0
 51
360.0
  0
ARC
  5
145
330
23
100
AcDbEntity
  8
0
  6
Continuous
 62
     7
370
    15
100
AcDbCircle
 10
-61.0
 20
1.0
 30
0.0
 40
3.000000000000005
100
AcDbArc
 50
180.0
 51
270.0
  0
ARC
  5
146
330
23
100
AcDbEntity
  8
0
  6
Continuous
 62
     7
370
    15
100
AcDbCircle
 10
-61.0
 20
1.0
 30
0.0
 40
0.9999999999999929
100
AcDbArc
 50
180.0
 51
270.0
  0
VIEWPORT
  5
205
330
23
100
AcDbEntity
  8
0
100
AcDbViewport
 10
0.0
 20
0.0
 30
0.0
 40
205.6
 41
156.0
 68
     1
 69
     1
 12
0.0
 22
35.4275817623
 13
0.0
 23
0.0
 14
10.0
 24
10.0
 15
10.0
 25
10.0
 16
0.0
 26
0.0
 36
1.0
 17
0.0
 27
0.0
 37
0.0
 42
50.0
 43
0.0
 44
0.0
 45
76.352266795
 50
0.0
 51
0.0
 72
   100
 90
   557152
  1

281
     0
 71
     1
 74
     0
110
0.0
120
0.0
130
0.0
111
1.0
121
0.0
131
0.0
112
0.0
122
1.0
132
0.0
 79
     0
146
0.0
  0
ENDBLK
  5
25
330
23
100
AcDbEntity
  8
0
100
AcDbBlockEnd
  0
ENDSEC
  0
SECTION
  2
ENTITIES
  0
CIRCLE
  5
77
330
1F
100
AcDbEntity
  8
0
  6
Continuous
 62
     7
370
    15
100
AcDbCircle
 10
-11.0
 20
62.0
 30
0.0
 40
1.250000000000002
  0
CIRCLE
  5
78
330
1F
100
AcDbEntity
  8
0
  6
Continuous
 62
     7
370
    15
100
AcDbCircle
 10
7.7781745931
 20
69.7781745931
 30
0.0
 40
1.25000000000001
  0
CIRCLE
  5
79
330
1F
100
AcDbEntity
  8
0
  6
Continuous
 62
     7
370
    15
100
AcDbCircle
 10
-7.7781745931
 20
69.7781745931
 30
0.0
 40
1.249999999999981
  0
CIRCLE
  5
7A
330
1F
100
AcDbEntity
  8
0
  6
Continuous
 62
     7
370
    15
100
AcDbCircle
 10
-7.7781745931
 20
54.2218254069
 30
0.0
 40
1.249999999999997
  0
CIRCLE
  5
84
330
1F
100
AcDbEntity
  8
0
  6
Continuous
 62
     7
370
    15
100
AcDbCircle
 10
11.0
 20
62.0
 30
0.0
 40
1.249999999999996
  0
CIRCLE
  5
85
330
1F
100
AcDbEntity
  8
0
  6
Continuous
 62
     7
370
    15
100
AcDbCircle
 10
7.7781745931
 20
54.2218254069
 30
0.0
 40
1.249999999999995
  0
CIRCLE
  5
86
330
1F
100
AcDbEntity
  8
0
  6
Continuous
 62
     7
370
    15
100
AcDbCircle
 10
0.0
 20
51.0
 30
0.0
 40
1.250000000000003
  0
LINE
  5
8B
330
1F
100
AcDbEntity
  8
0
  6
Continuous
 62
     7
370
    15
100
AcDbLine
 10
24.0
 20
1.0
 30
0.0
 11
-24.0
 21
1.0
 31
0.0
  0
LINE
  5
8C
330
1F
100
AcDbEntity
  8
0
  6
Continuous
 62
     7
370
    15
100
AcDbLine
 10
24.0
 20
-2.0
 30
0.0
 11
-24.0
 21
-2.0
 31
0.0
  0
LINE
  5
8D
330
1F
100
AcDbEntity
  8
0
  6
Continuous
 62
     7
370
    15
100
AcDbLine
 10
24.0
 20
1.0
 30
0.0
 11
24.0
 21
-2.0
 31
0.0
  0
LINE
  5
8E
330
1F
100
AcDbEntity
  8
0
  6
Continuous
 62
     7
370
    15
100
AcDbLine
 10
-24.0
 20
-2.0
 30
0.0
 11
-24.0
 21
1.0
 31
0.0
  0
LINE
  5
8F
330
1F
100
AcDbEntity
  8
0
  6
Continuous
 62
     7
370
    15
100
AcDbLine
 10
-12.1473532129
 20
67.6989668022
 30
0.0
 11
-24.0
 21
1.0
 31
0.0
  0
LINE
  5
90
330
1F
100
AcDbEntity
  8
0
  6
Continuous
 62
     7
370
    15
100
AcDbLine
 10
11.5308004528
 20
69.2275674117
 30
0.0
 11
10.1884738744
 21
71.2284507777
 31
0.0
  0
LINE
  5
91
330
1F
100
AcDbEntity
  8
0
  6
Continuous
 62
     7
370
    15
100
AcDbLine
 10
24.0
 20
1.0
 30
0.0
 11
12.1473532129
 21
67.6989668022
 31
0.0
  0
LINE
  5
92
330
1F
100
AcDbEntity
  8
0
  6
Continuous
 62
     7
370
    15
100
AcDbLine
 10
-10.1884738744
 20
71.2284507777
 30
0.0
 11
-11.5308004528
 21
69.2275674117
 31
0.0
  0
LINE
  5
93
330
1F
100
AcDbEntity
  8
0
  6
Continuous
 62
     7
370
    15
100
AcDbLine
 10
-5.0
 20
62.0
 30
0.0
 11
-5.0
 21
69.0
 31
0.0
  0
LINE
  5
94
330
1F
100
AcDbEntity
  8
0
  6
Continuous
 62
     7
370
    15
100
AcDbLine
 10
5.0
 20
69.0
 30
0.0
 11
5.0
 21
62.0
 31
0.0
  0
ARC
  5
95
330
1F
100
AcDbEntity
  8
0
  6
Continuous
 62
     7
370
    15
100
AcDbCircle
 10
-8.2090528508
 20
66.999116634
 30
0.0
 40
4.000000000000151
100
AcDbArc
 50
146.1436444345
 51
169.9235217058
  0
ARC
  5
96
330
1F
100
AcDbEntity
  8
0
  6
Continuous
 62
     7
370
    15
100
AcDbCircle
 10
-6.8667262724
 20
69.0
 30
0.0
 40
4.000000000000071
100
AcDbArc
 50
105.4655670203
 51
146.1436444345
  0
ARC
  5
97
330
1F
100
AcDbEntity
  8
0
  6
Continuous
 62
     7
370
    15
100
AcDbCircle
 10
-9.0
 20
69.0
 30
0.0
 40
4.000000000000007
100
AcDbArc
 50
0.0
 51
74.5344329797
  0
ARC
  5
98
330
1F
100
AcDbEntity
  8
0
  6
Continuous
 62
     7
370
    15
100
AcDbCircle
 10
9.0
 20
69.0
 30
0.0
 40
4.000000000000024
100
AcDbArc
 50
105.4655670203
 51
180.0
  0
ARC
  5
99
330
1F
100
AcDbEntity
  8
0
  6
Continuous
 62
     7
370
    15
100
AcDbCircle
 10
6.8667262724
 20
69.0
 30
0.0
 40
4.000000000000005
100
AcDbArc
 50
33.8563555655
 51
74.5344329797
  0
ARC
  5
9A
330
1F
100
AcDbEntity
  8
0
  6
Continuous
 62
     7
370
    15
100
AcDbCircle
 10
8.2090528508
 20
66.999116634
 30
0.0
 40
4.000000000000044
100
AcDbArc
 50
10.0764782942
 51
33.8563555655
  0
ARC
  5
9B
330
1F
100
AcDbEntity
  8
0
  6
Continuous
 62
     7
370
    15
100
AcDbCircle
 10
0.0
 20
62.0
 30
0.0
 40
5.0
100
AcDbArc
 50
180.0
 51
0.0
  0
LWPOLYLINE
  5
150
330
147
100
AcDbEntity
 67
     1
  8
0
  6
Continuous
 62
     7
370
    15
100
AcDbPolyline
 90
       22
 70
   128
 43
0.0
 10
-53.9168920655
 20
29.5009704435
 10
-53.8776236026
 20
29.7791507792
 10
-53.7633073892
 20
29.9872751691
 10
-53.5841009226
 20
30.1068508479
 10
-53.3559274837
 20
30.1272529916
 10
-53.0990612839
 20
30.0466687804
 10
-52.8363260123
 20
29.8722584751
 10
-52.5910668507
 20
29.6195191966
 10
-52.3850761521
 20
29.3109079389
 10
-52.2366570938
 20
28.9738461667
 10
-52.1589973607
 20
28.6382832976
 10
-52.1589973607
 20
28.334035565
 10
-52.2366570938
 20
28.0881367152
 10
-52.3850761521
 20
27.9224359401
 10
-52.5910668507
 20
27.8516564808
 10
-52.8363260123
 20
27.8820874027
 10
-53.0990612839
 20
28.011024785
 10
-53.3559274837
 20
28.2270119754
 10
-53.5841009226
 20
28.5108575642
 10
-53.7633073892
 20
28.8373406252
 10
-53.8776236026
 20
29.1774517056
 10
-53.9168920655
 20
29.5009704435
  0
LWPOLYLINE
  5
151
330
147
100
AcDbEntity
 67
     1
  8
0
  6
Continuous
 62
     7
370
    15
100
AcDbPolyline
 90
       22
 70
   128
 43
0.0
 10
-40.6387174724
 20
28.1868404092
 10
-40.5994490096
 20
28.4650207449
 10
-40.4851327962
 20
28.6731451348
 10
-40.3059263296
 20
28.7927208136
 10
-40.0777528907
 20
28.8131229573
 10
-39.8208866909
 20
28.7325387462
 10
-39.5581514192
 20
28.5581284408
 10
-39.3128922577
 20
28.3053891623
 10
-39.106901559
 20
27.9967779046
 10
-38.9584825008
 20
27.6597161324
 10
-38.8808227676
 20
27.3241532633
 10
-38.8808227676
 20
27.0199055307
 10
-38.9584825008
 20
26.7740066809
 10
-39.106901559
 20
26.6083059058
 10
-39.3128922577
 20
26.5375264465
 10
-39.5581514192
 20
26.5679573684
 10
-39.8208866909
 20
26.6968947507
 10
-40.0777528907
 20
26.9128819411
 10
-40.3059263296
 20
27.1967275299
 10
-40.4851327962
 20
27.5232105909
 10
-40.5994490096
 20
27.8633216713
 10
-40.6387174724
 20
28.1868404092
  0
LWPOLYLINE
  5
152
330
147
100
AcDbEntity
 67
     1
  8
0
  6
Continuous
 62
     7
370
    15
100
AcDbPolyline
 90
       22
 70
   128
 43
0.0
 10
-51.6387174724
 20
34.5370052421
 10
-51.5994490096
 20
34.8151855778
 10
-51.4851327962
 20
35.0233099677
 10
-51.3059263296
 20
35.1428856465
 10
-51.0777528907
 20
35.1632877903
 10
-50.8208866909
 20
35.0827035791
 10
-50.5581514192
 20
34.9082932737
 10
-50.3128922577
 20
34.6555539952
 10
-50.106901559
 20
34.3469427376
 10
-49.9584825008
 20
34.0098809654
 10
-49.8808227676
 20
33.6743180962
 10
-49.8808227676
 20
33.3700703636
 10
-49.9584825008
 20
33.1241715138
 10
-50.106901559
 20
32.9584707388
 10
-50.3128922577
 20
32.8876912794
 10
-50.5581514192
 20
32.9181222014
 10
-50.8208866909
 20
33.0470595837
 10
-51.0777528907
 20
33.2630467741
 10
-51.3059263296
 20
33.5468923629
 10
-51.4851327962
 20
33.8733754238
 10
-51.5994490096
 20
34.2134865043
 10
-51.6387174724
 20
34.5370052421
  0
LWPOLYLINE
  5
153
330
147
100
AcDbEntity
 67
     1
  8
0
  6
Continuous
 62
     7
370
    15
100
AcDbPolyline
 90
       22
 70
   128
 43
0.0
 10
-46.1387174724
 20
16.0287768977
 10
-46.0994490096
 20
16.3069572334
 10
-45.9851327962
 20
16.5150816233
 10
-45.8059263296
 20
16.6346573021
 10
-45.5777528907
 20
16.6550594459
 10
-45.3208866909
 20
16.5744752347
 10
-45.0581514192
 20
16.4000649293
 10
-44.8128922577
 20
16.1473256508
 10
-44.606901559
 20
15.8387143932
 10
-44.4584825008
 20
15.5016526209
 10
-44.3808227676
 20
15.1660897518
 10
-44.3808227676
 20
14.8618420192
 10
-44.4584825008
 20
14.6159431694
 10
-44.606901559
 20
14.4502423944
 10
-44.8128922577
 20
14.379462935
 10
-45.0581514192
 20
14.409893857
 10
-45.3208866909
 20
14.5388312393
 10
-45.5777528907
 20
14.7548184297
 10
-45.8059263296
 20
15.0386640185
 10
-45.9851327962
 20
15.3651470794
 10
-46.0994490096
 20
15.7052581599
 10
-46.1387174724
 20
16.0287768977
  0
LWPOLYLINE
  5
154
330
147
100
AcDbEntity
 67
     1
  8
0
  6
Continuous
 62
     7
370
    15
100
AcDbPolyline
 90
       22
 70
   128
 43
0.0
 10
-51.6387174724
 20
21.8346112477
 10
-51.5994490096
 20
22.1127915834
 10
-51.4851327962
 20
22.3209159733
 10
-51.3059263296
 20
22.4404916521
 10
-51.0777528907
 20
22.4608937959
 10
-50.8208866909
 20
22.3803095847
 10
-50.5581514192
 20
22.2058992793
 10
-50.3128922577
 20
21.9531600008
 10
-50.106901559
 20
21.6445487432
 10
-49.9584825008
 20
21.307486971
 10
-49.8808227676
 20
20.9719241018
 10
-49.8808227676
 20
20.6676763692
 10
-49.9584825008
 20
20.4217775194
 10
-50.106901559
 20
20.2560767444
 10
-50.3128922577
 20
20.185297285
 10
-50.5581514192
 20
20.215728207
 10
-50.8208866909
 20
20.3446655893
 10
-51.0777528907
 20
20.5606527797
 10
-51.3059263296
 20
20.8444983685
 10
-51.4851327962
 20
21.1709814294
 10
-51.5994490096
 20
21.5110925099
 10
-51.6387174724
 20
21.8346112477
  0
LWPOLYLINE
  5
15C
330
147
100
AcDbEntity
 67
     1
  8
0
  6
Continuous
 62
     7
370
    15
100
AcDbPolyline
 90
       22
 70
   128
 43
0.0
 10
-41.71930009
 20
22.459450479
 10
-41.7587890826
 20
21.8737515241
 10
-41.8763739415
 20
21.3467291363
 10
-42.0694280153
 20
20.8901561249
 10
-42.3336387949
 20
20.5142315766
 10
-42.6631042483
 20
20.2273530246
 10
-43.0504646615
 20
20.0359288616
 10
-43.487067043
 20
19.9442351872
 10
-43.9631584171
 20
19.9543202865
 10
-44.4681036892
 20
20.065958875
 10
-44.9906232163
 20
20.2766571313
 10
-45.5190447756
 20
20.5817084043
 10
-46.0415643027
 20
20.9742983527
 10
-46.5465095748
 20
21.4456571659
 10
-47.0226009489
 20
21.9852554668
 10
-47.4592033304
 20
22.581039521
 10
-47.8465637436
 20
23.2197004974
 10
-48.1760291969
 20
23.8869717649
 10
-48.4402399766
 20
24.5679475862
 10
-48.6332940504
 20
25.2474160867
 10
-48.7508789093
 20
25.9101990628
 10
-48.7903679019
 20
26.5414910381
  0
LWPOLYLINE
  5
15E
330
147
100
AcDbEntity
 67
     1
  8
0
  6
Continuous
 62
     7
370
    15
100
AcDbPolyline
 90
        9
 70
   128
 43
0.0
 10
-39.6450991247
 20
30.1257237868
 10
-40.0764725588
 20
30.1922228358
 10
-40.4765657914
 20
30.1624275117
 10
-40.834822985
 20
30.0371239178
 10
-41.1417920806
 20
29.8196179944
 10
-41.3893741761
 20
29.5156482972
 10
-41.5710372029
 20
29.1332345939
 10
-41.6819882646
 20
28.6824662752
 10
-41.71930009
 20
28.1752361622
  0
LWPOLYLINE
  5
163
330
147
100
AcDbEntity
 67
     1
  8
0
  6
Continuous
 62
     7
370
    15
100
AcDbPolyline
 90
       22
 70
   128
 43
0.0
 10
-38.3605428794
 20
20.5204812135
 10
-38.3212744165
 20
20.7986615491
 10
-38.2069582031
 20
21.0067859391
 10
-38.0277517365
 20
21.1263616178
 10
-37.7995782976
 20
21.1467637616
 10
-37.5427120978
 20
21.0661795504
 10
-37.2799768262
 20
20.891769245
 10
-37.0347176646
 20
20.6390299665
 10
-36.828726966
 20
20.3304187089
 10
-36.6803079077
 20
19.9933569367
 10
-36.6026481745
 20
19.6577940675
 10
-36.6026481745
 20
19.3535463349
 10
-36.6803079077
 20
19.1076474852
 10
-36.828726966
 20
18.9419467101
 10
-37.0347176646
 20
18.8711672507
 10
-37.2799768262
 20
18.9015981727
 10
-37.5427120978
 20
19.030535555
 10
-37.7995782976
 20
19.2465227454
 10
-38.0277517365
 20
19.5303683342
 10
-38.2069582031
 20
19.8568513951
 10
-38.3212744165
 20
20.1969624756
 10
-38.3605428794
 20
20.5204812135
  0
LWPOLYLINE
  5
164
330
147
100
AcDbEntity
 67
     1
  8
0
  6
Continuous
 62
     7
370
    15
100
AcDbPolyline
 90
       22
 70
   128
 43
0.0
 10
-40.6387174724
 20
15.4844464148
 10
-40.5994490096
 20
15.7626267505
 10
-40.4851327962
 20
15.9707511404
 10
-40.3059263296
 20
16.0903268192
 10
-40.0777528907
 20
16.1107289629
 10
-39.8208866909
 20
16.0301447518
 10
-39.5581514192
 20
15.8557344464
 10
-39.3128922577
 20
15.6029951679
 10
-39.106901559
 20
15.2943839102
 10
-38.9584825008
 20
14.957322138
 10
-38.8808227676
 20
14.6217592689
 10
-38.8808227676
 20
14.3175115363
 10
-38.9584825008
 20
14.0716126865
 10
-39.106901559
 20
13.9059119114
 10
-39.3128922577
 20
13.8351324521
 10
-39.5581514192
 20
13.865563374
 10
-39.8208866909
 20
13.9945007563
 10
-40.0777528907
 20
14.2104879467
 10
-40.3059263296
 20
14.4943335355
 10
-40.4851327962
 20
14.8208165965
 10
-40.5994490096
 20
15.1609276769
 10
-40.6387174724
 20
15.4844464148
  0
LWPOLYLINE
  5
173
330
147
100
AcDbEntity
 67
     1
  8
0
  6
Continuous
 62
     7
370
    15
100
AcDbPolyline
 90
       15
 70
   128
 43
0.0
 10
-42.1499893849
 20
20.7552210345
 10
-42.5489448547
 20
20.7707283983
 10
-43.0538901268
 20
20.8823669869
 10
-43.5764096539
 20
21.0930652431
 10
-44.1048312132
 20
21.3981165161
 10
-44.6273507403
 20
21.7907064645
 10
-45.1322960124
 20
22.2620652777
 10
-45.6083873865
 20
22.8016635786
 10
-46.044989768
 20
23.3974476328
 10
-46.4323501812
 20
24.0361086092
 10
-46.7618156346
 20
24.7033798767
 10
-47.0260264142
 20
25.384355698
 10
-47.219080488
 20
26.0638241985
 10
-47.3366653469
 20
26.7266071746
 10
-47.3761543395
 20
27.35789915
  0
LWPOLYLINE
  5
17E
330
147
100
AcDbEntity
 67
     1
  8
0
  6
Continuous
 62
     7
370
    15
100
AcDbPolyline
 90
       50
 70
   128
 43
0.0
 10
-25.8093975133
 20
-14.8994480408
 10
-25.1839145703
 20
-15.2169641124
 10
-24.4932326601
 20
-15.4856990333
 10
-23.7486927609
 20
-15.7012401837
 10
-22.9625201969
 20
-15.8600483837
 10
-22.1476239002
 20
-15.959516007
 10
-21.3173844452
 20
-15.9980097982
 10
-20.4854343409
 20
-15.9748976901
 10
-19.6654341851
 20
-15.890559183
 10
-18.8708483575
 20
-15.7463791128
 10
-18.1147239356
 20
-15.5447249123
 10
-17.4094764614
 20
-15.2889077379
 10
-16.766686079
 20
-14.9831281004
 10
-16.1969073886
 20
-14.6324068932
 10
-15.7094961406
 20
-14.2425029487
 10
-15.3124556143
 20
-13.8198184789
 10
-15.012305204
 20
-13.3712939511
 10
-14.8139733713
 20
-12.9042941258
 10
-14.7207167193
 20
-12.426487127
 10
-14.7340665197
 20
-11.9457185325
 10
-14.8538035692
 20
-11.4698825493
 10
-15.0779617886
 20
-11.0067923912
 10
-15.4028605062
 20
-10.5640519857
 10
-15.8231648942
 20
-10.148931118
 10
-16.3319735659
 20
-9.7682460613
 10
-16.9209318972
 20
-9.4282476537
 10
-17.5803692085
 20
-9.1345186597
 10
-18.2994575573
 20
-8.8918821012
 10
-19.0663895329
 20
-8.7043220638
 10
-19.8685721334
 20
-8.5749182782
 10
-20.6928335428
 20
-8.5057955509
 10
-21.5256394114
 20
-8.4980888752
 10
-22.3533150899
 20
-8.5519247944
 10
-23.1622701665
 20
-8.6664193244
 10
-23.9392216214
 20
-8.839692468
 10
-24.6714119329
 20
-9.068899085
 10
-25.3468185566
 20
-9.3502756092
 10
-25.9543513343
 20
-9.6792018458
 10
-26.4840345945
 20
-10.050276835
 10
-26.9271709528
 20
-10.4574075358
 10
-27.2764841225
 20
-10.8939088734
 10
-27.5262383909
 20
-11.3526135079
 10
-27.6723327999
 20
-11.8259895218
 10
-27.7123684833
 20
-12.306264094
 10
-27.6456880563
 20
-12.7855511295
 10
-27.4733864096
 20
-13.2559807482
 10
-27.1982927316
 20
-13.7098285089
 10
-26.8249240528
 20
-14.139642244
 10
-26.3594110767
 20
-14.5383644236
 10
-25.8093975133
 20
-14.8994480408
  0
LWPOLYLINE
  5
17F
330
147
100
AcDbEntity
 67
     1
  8
0
  6
Continuous
 62
     7
370
    15
100
AcDbPolyline
 90
       50
 70
   128
 43
0.0
 10
16.6170093579
 20
9.5927953139
 10
17.2424923009
 20
9.2752792423
 10
17.933174211
 20
9.0065443213
 10
18.6777141103
 20
8.791003171
 10
19.4638866743
 20
8.632194971
 10
20.278782971
 20
8.5327273476
 10
21.109022426
 20
8.4942335565
 10
21.9409725303
 20
8.5173456646
 10
22.7609726861
 20
8.6016841717
 10
23.5555585137
 20
8.7458642419
 10
24.3116829356
 20
8.9475184424
 10
25.0169304098
 20
9.2033356168
 10
25.6597207922
 20
9.5091152543
 10
26.2294994826
 20
9.8598364615
 10
26.7169107306
 20
10.249740406
 10
27.1139512569
 20
10.6724248758
 10
27.4141016672
 20
11.1209494035
 10
27.6124334999
 20
11.5879492289
 10
27.7056901519
 20
12.0657562277
 10
27.6923403515
 20
12.5465248222
 10
27.572603302
 20
13.0223608054
 10
27.3484450826
 20
13.4854509635
 10
27.0235463649
 20
13.928191369
 10
26.603241977
 20
14.3433122367
 10
26.0944333053
 20
14.7239972934
 10
25.505474974
 20
15.063995701
 10
24.8460376627
 20
15.357724695
 10
24.1269493139
 20
15.6003612535
 10
23.3600173383
 20
15.7879212908
 10
22.5578347378
 20
15.9173250765
 10
21.7335733284
 20
15.9864478038
 10
20.9007674598
 20
15.9941544795
 10
20.0730917813
 20
15.9403185603
 10
19.2641367047
 20
15.8258240303
 10
18.4871852498
 20
15.6525508867
 10
17.7549949382
 20
15.4233442697
 10
17.0795883146
 20
15.1419677455
 10
16.4720555369
 20
14.8130415089
 10
15.9423722767
 20
14.4419665197
 10
15.4992359184
 20
14.0348358188
 10
15.1499227487
 20
13.5983344813
 10
14.9001684803
 20
13.1396298468
 10
14.7540740713
 20
12.6662538329
 10
14.7140383879
 20
12.1859792607
 10
14.7807188149
 20
11.7066922252
 10
14.9530204616
 20
11.2362626065
 10
15.2281141396
 20
10.7824148457
 10
15.6014828183
 20
10.3526011107
 10
16.0669957945
 20
9.9538789311
 10
16.6170093579
 20
9.5927953139
  0
LWPOLYLINE
  5
180
330
147
100
AcDbEntity
 67
     1
  8
0
  6
Continuous
 62
     7
370
    15
100
AcDbPolyline
 90
       34
 70
   128
 43
0.0
 10
-2.1213203436
 20
-1.2246121677
 10
-2.4844478361
 20
-0.9707224539
 10
-2.7577809107
 20
-0.6817483014
 10
-2.9314405979
 20
-0.368133989
 10
-2.9991503841
 20
-0.0412143551
 10
-2.9584630612
 20
0.287194873
 10
-2.810849175
 20
0.6052241301
 10
-2.5616438761
 20
0.9013790102
 10
-2.2198540931
 20
1.1649557044
 10
-1.7978329995
 20
1.3864278642
 10
-1.3108335371
 20
1.5577909087
 10
-0.7764571353
 20
1.6728513309
 10
-0.2140175496
 20
1.7274505475
 10
0.356157188
 20
1.7196152004
 10
0.9134594768
 20
1.6496284796
 10
1.4377469602
 20
1.5200198875
 10
1.9100705224
 20
1.3354738163
 10
2.3133591592
 20
1.1026602418
 10
2.6330369687
 20
0.8299936532
 10
2.8575499618
 20
0.5273289315
 10
2.978783654
 20
0.2056051682
 10
2.9923563438
 20
-0.1235497016
 10
2.8977774789
 20
-0.4482391632
 10
2.6984653857
 20
-0.7567280936
 10
2.4016237228
 20
-1.037866899
 10
2.0179811211
 20
-1.2814944906
 10
1.5614034239
 20
-1.4788055324
 10
1.0483925388
 20
-1.6226686893
 10
0.4974900158
 20
-1.7078843719
 10
-0.0713930926
 20
-1.7313726634
 10
-0.6376958687
 20
-1.6922846359
 10
-1.1809506545
 20
-1.5920330324
 10
-1.6815228067
 20
-1.4342412071
 10
-2.1213203436
 20
-1.2246121677
  0
LWPOLYLINE
  5
181
330
147
100
AcDbEntity
 67
     1
  8
0
  6
Continuous
 62
     7
370
    15
100
AcDbPolyline
 90
       22
 70
   128
 43
0.0
 10
-8.6620580695
 20
-5.0004996849
 10
-8.8833188349
 20
-4.8274301617
 10
-9.0063826846
 20
-4.624400223
 10
-9.0203148554
 20
-4.4094499697
 10
-8.9238774129
 20
-4.2016786753
 10
-8.725639247
 20
-4.0195477309
 10
-8.4432146887
 20
-3.8792402703
 10
-8.1016983994
 20
-3.7932232271
 10
-7.7314356002
 20
-3.7691395931
 10
-7.3653257656
 20
-3.8091293047
 10
-7.0358993611
 20
-3.9096391007
 10
-6.7724273683
 20
-4.0617382446
 10
-6.5983204302
 20
-4.25191206
 10
-6.5290487121
 20
-4.4632627688
 10
-6.5707673102
 20
-4.677010933
 10
-6.719769344
 20
-4.8741640903
 10
-6.962815329
 20
-5.0372043174
 10
-7.2783095627
 20
-5.1516447746
 10
-7.6382189979
 20
-5.2073169252
 10
-8.010564102
 20
-5.1992740542
 10
-8.3622603784
 20
-5.1282308059
 10
-8.6620580695
 20
-5.0004996849
  0
LWPOLYLINE
  5
182
330
147
100
AcDbEntity
 67
     1
  8
0
  6
Continuous
 62
     7
370
    15
100
AcDbPolyline
 90
       22
 70
   128
 43
0.0
 10
-0.8838834765
 20
-6.8604199028
 10
-1.1051442419
 20
-6.6873503796
 10
-1.2282080915
 20
-6.4843204409
 10
-1.2421402624
 20
-6.2693701876
 10
-1.1457028198
 20
-6.0615988932
 10
-0.9474646539
 20
-5.8794679488
 10
-0.6650400956
 20
-5.7391604883
 10
-0.3235238064
 20
-5.6531434451
 10
0.0467389928
 20
-5.629059811
 10
0.4128488274
 20
-5.6690495227
 10
0.742275232
 20
-5.7695593187
 10
1.0057472247
 20
-5.9216584625
 10
1.1798541629
 20
-6.1118322779
 10
1.249125881
 20
-6.3231829867
 10
1.2074072829
 20
-6.5369311509
 10
1.058405249
 20
-6.7340843082
 10
0.8153592641
 20
-6.8971245353
 10
0.4998650304
 20
-7.0115649925
 10
0.1399555951
 20
-7.0672371431
 10
-0.232389509
 20
-7.0591942721
 10
-0.5840857853
 20
-6.9881510239
 10
-0.8838834765
 20
-6.8604199028
  0
LWPOLYLINE
  5
183
330
147
100
AcDbEntity
 67
     1
  8
0
  6
Continuous
 62
     7
370
    15
100
AcDbPolyline
 90
       22
 70
   128
 43
0.0
 10
6.8942911166
 20
-5.0004996849
 10
6.6730303512
 20
-4.8274301617
 10
6.5499665015
 20
-4.624400223
 10
6.5360343307
 20
-4.4094499697
 10
6.6324717732
 20
-4.2016786753
 10
6.8307099391
 20
-4.0195477309
 10
7.1131344974
 20
-3.8792402703
 10
7.4546507867
 20
-3.7932232271
 10
7.8249135859
 20
-3.7691395931
 10
8.1910234205
 20
-3.8091293047
 10
8.520449825
 20
-3.9096391007
 10
8.7839218178
 20
-4.0617382446
 10
8.9580287559
 20
-4.25191206
 10
9.027300474
 20
-4.4632627688
 10
8.9855818759
 20
-4.677010933
 10
8.8365798421
 20
-4.8741640903
 10
8.5935338571
 20
-5.0372043174
 10
8.2780396235
 20
-5.1516447746
 10
7.9181301882
 20
-5.2073169252
 10
7.5457850841
 20
-5.1992740542
 10
7.1940888077
 20
-5.1282308059
 10
6.8942911166
 20
-5.0004996849
  0
LWPOLYLINE
  5
184
330
147
100
AcDbEntity
 67
     1
  8
0
  6
Continuous
 62
     7
370
    15
100
AcDbPolyline
 90
       22
 70
   128
 43
0.0
 10
10.1161165235
 20
-0.5102550699
 10
9.8948557581
 20
-0.3371855467
 10
9.7717919085
 20
-0.1341556079
 10
9.7578597376
 20
0.0807946453
 10
9.8542971802
 20
0.2885659398
 10
10.0525353461
 20
0.4706968841
 10
10.3349599044
 20
0.6110043447
 10
10.6764761936
 20
0.6970213879
 10
11.0467389928
 20
0.7211050219
 10
11.4128488274
 20
0.6811153103
 10
11.742275232
 20
0.5806055143
 10
12.0057472247
 20
0.4285063704
 10
12.1798541629
 20
0.238332555
 10
12.249125881
 20
0.0269818462
 10
12.2074072829
 20
-0.186766318
 10
12.058405249
 20
-0.3839194753
 10
11.8153592641
 20
-0.5469597024
 10
11.4998650304
 20
-0.6614001596
 10
11.1399555951
 20
-0.7170723102
 10
10.767610491
 20
-0.7090294391
 10
10.4159142147
 20
-0.6379861909
 10
10.1161165235
 20
-0.5102550699
  0
LWPOLYLINE
  5
185
330
147
100
AcDbEntity
 67
     1
  8
0
  6
Continuous
 62
     7
370
    15
100
AcDbPolyline
 90
       22
 70
   128
 43
0.0
 10
6.8942911166
 20
3.9799895451
 10
6.6730303512
 20
4.1530590683
 10
6.5499665015
 20
4.3560890071
 10
6.5360343307
 20
4.5710392603
 10
6.6324717732
 20
4.7788105548
 10
6.8307099391
 20
4.9609414991
 10
7.1131344974
 20
5.1012489597
 10
7.4546507867
 20
5.1872660029
 10
7.8249135859
 20
5.211349637
 10
8.1910234205
 20
5.1713599253
 10
8.520449825
 20
5.0708501293
 10
8.7839218178
 20
4.9187509854
 10
8.9580287559
 20
4.7285771701
 10
9.027300474
 20
4.5172264613
 10
8.9855818759
 20
4.303478297
 10
8.8365798421
 20
4.1063251398
 10
8.5935338571
 20
3.9432849127
 10
8.2780396235
 20
3.8288444554
 10
7.9181301882
 20
3.7731723049
 10
7.5457850841
 20
3.7812151759
 10
7.1940888077
 20
3.8522584241
 10
6.8942911166
 20
3.9799895451
  0
LWPOLYLINE
  5
186
330
147
100
AcDbEntity
 67
     1
  8
0
  6
Continuous
 62
     7
370
    15
100
AcDbPolyline
 90
       22
 70
   128
 43
0.0
 10
-0.8838834765
 20
5.8399097631
 10
-1.1051442419
 20
6.0129792863
 10
-1.2282080915
 20
6.216009225
 10
-1.2421402624
 20
6.4309594782
 10
-1.1457028198
 20
6.6387307727
 10
-0.9474646539
 20
6.820861717
 10
-0.6650400956
 20
6.9611691776
 10
-0.3235238064
 20
7.0471862208
 10
0.0467389928
 20
7.0712698549
 10
0.4128488274
 20
7.0312801432
 10
0.742275232
 20
6.9307703472
 10
1.0057472247
 20
6.7786712033
 10
1.1798541629
 20
6.588497388
 10
1.249125881
 20
6.3771466792
 10
1.2074072829
 20
6.163398515
 10
1.058405249
 20
5.9662453577
 10
0.8153592641
 20
5.8032051306
 10
0.4998650304
 20
5.6887646733
 10
0.1399555951
 20
5.6330925228
 10
-0.232389509
 20
5.6411353938
 10
-0.5840857853
 20
5.712178642
 10
-0.8838834765
 20
5.8399097631
  0
LWPOLYLINE
  5
187
330
147
100
AcDbEntity
 67
     1
  8
0
  6
Continuous
 62
     7
370
    15
100
AcDbPolyline
 90
       22
 70
   128
 43
0.0
 10
-8.6620580695
 20
3.9799895451
 10
-8.8833188349
 20
4.1530590683
 10
-9.0063826846
 20
4.3560890071
 10
-9.0203148554
 20
4.5710392603
 10
-8.9238774129
 20
4.7788105548
 10
-8.725639247
 20
4.9609414991
 10
-8.4432146887
 20
5.1012489597
 10
-8.1016983994
 20
5.1872660029
 10
-7.7314356002
 20
5.211349637
 10
-7.3653257656
 20
5.1713599253
 10
-7.0358993611
 20
5.0708501293
 10
-6.7724273683
 20
4.9187509854
 10
-6.5983204302
 20
4.7285771701
 10
-6.5290487121
 20
4.5172264613
 10
-6.5707673102
 20
4.303478297
 10
-6.719769344
 20
4.1063251398
 10
-6.962815329
 20
3.9432849127
 10
-7.2783095627
 20
3.8288444554
 10
-7.6382189979
 20
3.7731723049
 10
-8.010564102
 20
3.7812151759
 10
-8.3622603784
 20
3.8522584241
 10
-8.6620580695
 20
3.9799895451
  0
LWPOLYLINE
  5
188
330
147
100
AcDbEntity
 67
     1
  8
0
  6
Continuous
 62
     7
370
    15
100
AcDbPolyline
 90
       22
 70
   128
 43
0.0
 10
-11.8838834765
 20
-0.5102550699
 10
-12.1051442419
 20
-0.3371855467
 10
-12.2282080915
 20
-0.1341556079
 10
-12.2421402624
 20
0.0807946453
 10
-12.1457028198
 20
0.2885659398
 10
-11.9474646539
 20
0.4706968841
 10
-11.6650400956
 20
0.6110043447
 10
-11.3235238064
 20
0.6970213879
 10
-10.9532610072
 20
0.7211050219
 10
-10.5871511726
 20
0.6811153103
 10
-10.257724768
 20
0.5806055143
 10
-9.9942527753
 20
0.4285063704
 10
-9.8201458371
 20
0.238332555
 10
-9.750874119
 20
0.0269818462
 10
-9.7925927171
 20
-0.186766318
 10
-9.941594751
 20
-0.3839194753
 10
-10.1846407359
 20
-0.5469597024
 10
-10.5001349696
 20
-0.6614001596
 10
-10.8600444049
 20
-0.7170723102
 10
-11.232389509
 20
-0.7090294391
 10
-11.5840857853
 20
-0.6379861909
 10
-11.8838834765
 20
-0.5102550699
  0
LWPOLYLINE
  5
18B
330
147
100
AcDbEntity
 67
     1
  8
0
  6
Continuous
 62
     7
370
    15
100
AcDbPolyline
 90
       23
 70
   128
 43
0.0
 10
-27.5574409612
 20
-13.0626624892
 10
-27.5262383909
 20
-12.9856951316
 10
-27.2764841225
 20
-12.5269904972
 10
-26.9271709528
 20
-12.0904891596
 10
-26.4840345945
 20
-11.6833584588
 10
-25.9543513343
 20
-11.3122834695
 10
-25.3468185566
 20
-10.983357233
 10
-24.6714119329
 20
-10.7019807088
 10
-23.9392216214
 20
-10.4727740917
 10
-23.1622701665
 20
-10.2995009481
 10
-22.3533150899
 20
-10.1850064182
 10
-21.5256394114
 20
-10.1311704989
 10
-20.6928335428
 20
-10.1388771747
 10
-19.8685721334
 20
-10.207999902
 10
-19.0663895329
 20
-10.3374036876
 10
-18.2994575573
 20
-10.524963725
 10
-17.5803692085
 20
-10.7676002835
 10
-16.9209318972
 20
-11.0613292775
 10
-16.3319735659
 20
-11.4013276851
 10
-15.8231648942
 20
-11.7820127417
 10
-15.4028605062
 20
-12.1971336094
 10
-15.0779617886
 20
-12.6398740149
 10
-14.8689659099
 20
-13.0626624892
  0
LWPOLYLINE
  5
18F
330
147
100
AcDbEntity
 67
     1
  8
0
  6
Continuous
 62
     7
370
    15
100
AcDbPolyline
 90
       22
 70
   128
 43
0.0
 10
40.3050865276
 20
77.975202083
 10
40.3445755202
 20
77.3439101077
 10
40.4621603791
 20
76.6811271315
 10
40.6552144529
 20
76.001658631
 10
40.9194252326
 20
75.3206828097
 10
41.2488906859
 20
74.6534115422
 10
41.6362510991
 20
74.0147505658
 10
42.0728534806
 20
73.4189665116
 10
42.5489448547
 20
72.8793682107
 10
43.0538901268
 20
72.4080093975
 10
43.5764096539
 20
72.0154194491
 10
44.1048312132
 20
71.7103681761
 10
44.6273507403
 20
71.4996699199
 10
45.1322960124
 20
71.3880313313
 10
45.6083873865
 20
71.377946232
 10
46.044989768
 20
71.4696399065
 10
46.4323501812
 20
71.6610640694
 10
46.7618156346
 20
71.9479426215
 10
47.0260264142
 20
72.3238671698
 10
47.219080488
 20
72.7804401811
 10
47.3366653469
 20
73.3074625689
 10
47.3761543395
 20
73.8931615239
  0
LWPOLYLINE
  5
191
330
147
100
AcDbEntity
 67
     1
  8
0
  6
Continuous
 62
     7
370
    15
100
AcDbPolyline
 90
        9
 70
   128
 43
0.0
 10
49.4503553048
 20
81.5594348317
 10
49.0189818707
 20
81.6259338807
 10
48.6188886381
 20
81.5961385565
 10
48.2606314445
 20
81.4708349626
 10
47.9536623489
 20
81.2533290393
 10
47.7060802534
 20
80.9493593421
 10
47.5244172266
 20
80.5669456387
 10
47.4134661649
 20
80.11617732
 10
47.3761543395
 20
79.6089472071
  0
LWPOLYLINE
  5
19A
330
147
100
AcDbEntity
 67
     1
  8
0
  6
Continuous
 62
     7
370
    15
100
AcDbPolyline
 90
       22
 70
   128
 43
0.0
 10
38.3406204336
 20
71.7373912078
 10
38.6011496618
 20
71.6323366573
 10
38.8385297249
 20
71.6273082076
 10
39.0316683623
 20
71.7227526587
 10
39.1634043587
 20
71.9101893522
 10
39.2220323926
 20
72.1729637154
 10
39.2023431059
 20
72.4877270928
 10
39.1060859782
 20
72.8265113772
 10
38.9418138776
 20
73.1592140981
 10
38.7241231013
 20
73.4562731587
 10
38.4723564299
 20
73.6912935578
 10
38.2088844372
 20
73.8433927017
 10
37.9571177658
 20
73.8990559139
 10
37.7394269895
 20
73.8533372738
 10
37.5751548889
 20
73.7102990831
 10
37.4788977612
 20
73.4826509128
 10
37.4592084746
 20
73.1906203018
 10
37.5178365084
 20
72.8601554515
 10
37.6495725048
 20
72.5206196142
 10
37.8427111423
 20
72.2021820388
 10
38.0800912053
 20
71.9331373015
 10
38.3406204336
 20
71.7373912078
  0
LWPOLYLINE
  5
19B
330
147
100
AcDbEntity
 67
     1
  8
0
  6
Continuous
 62
     7
370
    15
100
AcDbPolyline
 90
       22
 70
   128
 43
0.0
 10
43.8406204336
 20
65.9315568578
 10
44.1011496618
 20
65.8265023072
 10
44.3385297249
 20
65.8214738576
 10
44.5316683623
 20
65.9169183087
 10
44.6634043587
 20
66.1043550022
 10
44.7220323926
 20
66.3671293653
 10
44.7023431059
 20
66.6818927428
 10
44.6060859782
 20
67.0206770272
 10
44.4418138776
 20
67.3533797481
 10
44.2241231013
 20
67.6504388087
 10
43.9723564299
 20
67.8854592078
 10
43.7088844372
 20
68.0375583517
 10
43.4571177658
 20
68.0932215639
 10
43.2394269895
 20
68.0475029237
 10
43.0751548889
 20
67.904464733
 10
42.9788977612
 20
67.6768165627
 10
42.9592084746
 20
67.3847859518
 10
43.0178365084
 20
67.0543211015
 10
43.1495725048
 20
66.7147852641
 10
43.3427111423
 20
66.3963476888
 10
43.5800912053
 20
66.1273029515
 10
43.8406204336
 20
65.9315568578
  0
LWPOLYLINE
  5
19C
330
147
100
AcDbEntity
 67
     1
  8
0
  6
Continuous
 62
     7
370
    15
100
AcDbPolyline
 90
       22
 70
   128
 43
0.0
 10
38.3406204336
 20
84.4397852022
 10
38.6011496618
 20
84.3347306517
 10
38.8385297249
 20
84.329702202
 10
39.0316683623
 20
84.4251466531
 10
39.1634043587
 20
84.6125833466
 10
39.2220323926
 20
84.8753577098
 10
39.2023431059
 20
85.1901210872
 10
39.1060859782
 20
85.5289053716
 10
38.9418138776
 20
85.8616080925
 10
38.7241231013
 20
86.1586671531
 10
38.4723564299
 20
86.3936875522
 10
38.2088844372
 20
86.5457866961
 10
37.9571177658
 20
86.6014499083
 10
37.7394269895
 20
86.5557312682
 10
37.5751548889
 20
86.4126930775
 10
37.4788977612
 20
86.1850449072
 10
37.4592084746
 20
85.8930142962
 10
37.5178365084
 20
85.5625494459
 10
37.6495725048
 20
85.2230136086
 10
37.8427111423
 20
84.9045760332
 10
38.0800912053
 20
84.6355312959
 10
38.3406204336
 20
84.4397852022
  0
LWPOLYLINE
  5
19D
330
147
100
AcDbEntity
 67
     1
  8
0
  6
Continuous
 62
     7
370
    15
100
AcDbPolyline
 90
       22
 70
   128
 43
0.0
 10
49.3406204336
 20
78.0896203693
 10
49.6011496618
 20
77.9845658187
 10
49.8385297249
 20
77.9795373691
 10
50.0316683623
 20
78.0749818202
 10
50.1634043587
 20
78.2624185137
 10
50.2220323926
 20
78.5251928768
 10
50.2023431059
 20
78.8399562543
 10
50.1060859782
 20
79.1787405386
 10
49.9418138776
 20
79.5114432595
 10
49.7241231013
 20
79.8085023201
 10
49.4723564299
 20
80.0435227193
 10
49.2088844372
 20
80.1956218632
 10
48.9571177658
 20
80.2512850754
 10
48.7394269895
 20
80.2055664352
 10
48.5751548889
 20
80.0625282445
 10
48.4788977612
 20
79.8348800742
 10
48.4592084746
 20
79.5428494633
 10
48.5178365084
 20
79.212384613
 10
48.6495725048
 20
78.8728487756
 10
48.8427111423
 20
78.5544112003
 10
49.0800912053
 20
78.285366463
 10
49.3406204336
 20
78.0896203693
  0
LWPOLYLINE
  5
19E
330
147
100
AcDbEntity
 67
     1
  8
0
  6
Continuous
 62
     7
370
    15
100
AcDbPolyline
 90
       22
 70
   128
 43
0.0
 10
36.0624458405
 20
79.4037504036
 10
36.3229750688
 20
79.298695853
 10
36.5603551318
 20
79.2936674034
 10
36.7534937693
 20
79.3891118545
 10
36.8852297656
 20
79.576548548
 10
36.9438577995
 20
79.8393229111
 10
36.9241685129
 20
80.1540862886
 10
36.8279113851
 20
80.4928705729
 10
36.6636392846
 20
80.8255732938
 10
36.4459485082
 20
81.1226323544
 10
36.1941818369
 20
81.3576527536
 10
35.9307098441
 20
81.5097518975
 10
35.6789431728
 20
81.5654151097
 10
35.4612523964
 20
81.5196964695
 10
35.2969802959
 20
81.3766582788
 10
35.2007231682
 20
81.1490101085
 10
35.1810338815
 20
80.8569794976
 10
35.2396619154
 20
80.5265146473
 10
35.3713979118
 20
80.1869788099
 10
35.5645365492
 20
79.8685412346
 10
35.8019166122
 20
79.5994964972
 10
36.0624458405
 20
79.4037504036
  0
LWPOLYLINE
  5
19F
330
147
100
AcDbEntity
 67
     1
  8
0
  6
Continuous
 62
     7
370
    15
100
AcDbPolyline
 90
       22
 70
   128
 43
0.0
 10
51.6187950266
 20
70.4232611735
 10
51.8793242549
 20
70.318206623
 10
52.1167043179
 20
70.3131781733
 10
52.3098429554
 20
70.4086226244
 10
52.4415789517
 20
70.5960593179
 10
52.5002069856
 20
70.8588336811
 10
52.480517699
 20
71.1735970585
 10
52.3842605712
 20
71.5123813429
 10
52.2199884707
 20
71.8450840638
 10
52.0022976943
 20
72.1421431244
 10
51.750531023
 20
72.3771635235
 10
51.4870590302
 20
72.5292626674
 10
51.2352923589
 20
72.5849258796
 10
51.0176015825
 20
72.5392072395
 10
50.853329482
 20
72.3961690488
 10
50.7570723543
 20
72.1685208785
 10
50.7373830676
 20
71.8764902675
 10
50.7960111015
 20
71.5460254173
 10
50.9277470979
 20
71.2064895799
 10
51.1208857353
 20
70.8880520045
 10
51.3582657983
 20
70.6190072672
 10
51.6187950266
 20
70.4232611735
  0
LWPOLYLINE
  5
1A0
330
147
100
AcDbEntity
 67
     1
  8
0
  6
Continuous
 62
     7
370
    15
100
AcDbPolyline
 90
       22
 70
   128
 43
0.0
 10
49.3406204336
 20
65.3872263749
 10
49.6011496618
 20
65.2821718243
 10
49.8385297249
 20
65.2771433747
 10
50.0316683623
 20
65.3725878258
 10
50.1634043587
 20
65.5600245193
 10
50.2220323926
 20
65.8227988824
 10
50.2023431059
 20
66.1375622599
 10
50.1060859782
 20
66.4763465442
 10
49.9418138776
 20
66.8090492651
 10
49.7241231013
 20
67.1061083257
 10
49.4723564299
 20
67.3411287249
 10
49.2088844372
 20
67.4932278688
 10
48.9571177658
 20
67.548891081
 10
48.7394269895
 20
67.5031724408
 10
48.5751548889
 20
67.3601342501
 10
48.4788977612
 20
67.1324860798
 10
48.4592084746
 20
66.8404554689
 10
48.5178365084
 20
66.5099906186
 10
48.6495725048
 20
66.1704547812
 10
48.8427111423
 20
65.8520172059
 10
49.0800912053
 20
65.5829724686
 10
49.3406204336
 20
65.3872263749
  0
LWPOLYLINE
  5
1AB
330
147
100
AcDbEntity
 67
     1
  8
0
  6
Continuous
 62
     7
370
    15
100
AcDbPolyline
 90
        3
 70
   128
 43
0.0
 10
2.1213203436
 20
-0.408469456
 10
2.4844478361
 20
-0.6623591699
 10
2.6456284285
 20
-0.8165408119
  0
LWPOLYLINE
  5
1B1
330
147
100
AcDbEntity
 67
     1
  8
0
  6
Continuous
 62
     7
370
    15
100
AcDbPolyline
 90
       15
 70
   128
 43
0.0
 10
41.71930009
 20
78.7916101948
 10
41.7587890826
 20
78.1603182195
 10
41.8763739415
 20
77.4975352433
 10
42.0694280153
 20
76.8180667429
 10
42.3336387949
 20
76.1370909216
 10
42.6631042483
 20
75.469819654
 10
43.0504646615
 20
74.8311586777
 10
43.487067043
 20
74.2353746234
 10
43.9631584171
 20
73.6957763225
 10
44.4681036892
 20
73.2244175094
 10
44.9906232163
 20
72.8318275609
 10
45.5190447756
 20
72.5267762879
 10
46.0415643027
 20
72.3160780317
 10
46.5465095748
 20
72.2044394432
 10
46.9454650447
 20
72.1889320793
  0
LWPOLYLINE
  5
1B4
330
147
100
AcDbEntity
 67
     1
  8
0
  6
Continuous
 62
     7
370
    15
100
AcDbPolyline
 90
       23
 70
   128
 43
0.0
 10
14.8689659099
 20
11.4295808655
 10
14.9001684803
 20
11.506548223
 10
15.1499227487
 20
11.9652528575
 10
15.4992359184
 20
12.4017541951
 10
15.9423722767
 20
12.8088848959
 10
16.4720555369
 20
13.1799598851
 10
17.0795883146
 20
13.5088861217
 10
17.7549949382
 20
13.7902626459
 10
18.4871852498
 20
14.0194692629
 10
19.2641367047
 20
14.1927424066
 10
20.0730917813
 20
14.3072369365
 10
20.9007674598
 20
14.3610728558
 10
21.7335733284
 20
14.35336618
 10
22.5578347378
 20
14.2842434527
 10
23.3600173383
 20
14.1548396671
 10
24.1269493139
 20
13.9672796297
 10
24.8460376627
 20
13.7246430712
 10
25.505474974
 20
13.4309140772
 10
26.0944333053
 20
13.0909156696
 10
26.603241977
 20
12.7102306129
 10
27.0235463649
 20
12.2951097453
 10
27.3484450826
 20
11.8523693397
 10
27.5574409612
 20
11.4295808655
  0
LINE
  5
1B8
330
147
100
AcDbEntity
 67
     1
  8
0
  6
Continuous
 62
     7
370
    15
100
AcDbLine
 10
-39.4764968682
 20
30.8230234999
 30
0.0
 11
-40.8907104305
 21
30.0066153881
 31
0.0
  0
LINE
  5
1B9
330
147
100
AcDbEntity
 67
     1
  8
0
  6
Continuous
 62
     7
370
    15
100
AcDbLine
 10
-50.6959666106
 20
37.2998855184
 30
0.0
 11
-52.110180173
 21
36.4834774065
 31
0.0
  0
LINE
  5
1BA
330
147
100
AcDbEntity
 67
     1
  8
0
  6
Continuous
 62
     7
370
    15
100
AcDbLine
 10
-61.6039544998
 20
-16.885155844
 30
0.0
 11
-27.6628290029
 21
-36.4789505277
 31
0.0
  0
LINE
  5
1BB
330
147
100
AcDbEntity
 67
     1
  8
0
  6
Continuous
 62
     7
370
    15
100
AcDbLine
 10
49.6189575613
 20
82.2567345448
 30
0.0
 11
48.204743999
 21
81.4403264329
 31
0.0
  0
LINE
  5
1BC
330
147
100
AcDbEntity
 67
     1
  8
0
  6
Continuous
 62
     7
370
    15
100
AcDbLine
 10
38.3994878189
 20
88.7335965632
 30
0.0
 11
36.9852742565
 21
87.9171884514
 31
0.0
  0
LINE
  5
1BD
330
147
100
AcDbEntity
 67
     1
  8
0
  6
Continuous
 62
     7
370
    15
100
AcDbLine
 10
-28.2842712475
 20
-35.1054161083
 30
0.0
 11
-62.2253967444
 21
-15.5116214246
 31
0.0
  0
LINE
  5
1BE
330
147
100
AcDbEntity
 67
     1
  8
0
  6
Continuous
 62
     7
370
    15
100
AcDbLine
 10
-53.8443098263
 20
34.1125085882
 30
0.0
 11
-62.2253967444
 21
-15.5116214246
 31
0.0
  0
LINE
  5
1BF
330
147
100
AcDbEntity
 67
     1
  8
0
  6
Continuous
 62
     7
370
    15
100
AcDbLine
 10
-52.4591729624
 20
36.1948538081
 30
0.0
 11
-53.4083411886
 21
35.1089940337
 31
0.0
  0
LINE
  5
1C0
330
147
100
AcDbEntity
 67
     1
  8
0
  6
Continuous
 62
     7
370
    15
100
AcDbLine
 10
-48.7903679019
 20
26.5414910381
 30
0.0
 11
-48.7903679019
 21
32.2572767213
 31
0.0
  0
LINE
  5
1C1
330
147
100
AcDbEntity
 67
     1
  8
0
  6
Continuous
 62
     7
370
    15
100
AcDbLine
 10
-41.71930009
 20
28.1752361622
 30
0.0
 11
-41.71930009
 21
22.459450479
 31
0.0
  0
LINE
  5
1C2
330
147
100
AcDbEntity
 67
     1
  8
0
  6
Continuous
 62
     7
370
    15
100
AcDbLine
 10
-37.1013268032
 20
25.6951550082
 30
0.0
 11
-38.0504950294
 21
27.87690109
 31
0.0
  0
LINE
  5
1C3
330
147
100
AcDbEntity
 67
     1
  8
0
  6
Continuous
 62
     7
370
    15
100
AcDbLine
 10
-28.2842712475
 20
-35.1054161083
 30
0.0
 11
-36.6653581656
 21
24.195310888
 31
0.0
  0
LINE
  5
1C4
330
147
100
AcDbEntity
 67
     1
  8
0
  6
Continuous
 62
     7
370
    15
100
AcDbLine
 10
-26.8700576851
 20
-34.2890079965
 30
0.0
 11
-28.2842712475
 21
-35.1054161083
 31
0.0
  0
LINE
  5
1C5
330
147
100
AcDbEntity
 67
     1
  8
0
  6
Continuous
 62
     7
370
    15
100
AcDbLine
 10
-35.2511446032
 20
25.0117189998
 30
0.0
 11
-36.6653581656
 21
24.195310888
 31
0.0
  0
LINE
  5
1C6
330
147
100
AcDbEntity
 67
     1
  8
0
  6
Continuous
 62
     7
370
    15
100
AcDbLine
 10
-26.8700576851
 20
-34.2890079965
 30
0.0
 11
-35.2511446032
 21
25.0117189998
 31
0.0
  0
LINE
  5
1C7
330
147
100
AcDbEntity
 67
     1
  8
0
  6
Continuous
 62
     7
370
    15
100
AcDbLine
 10
-36.6362814671
 20
28.6933092018
 30
0.0
 11
-38.0504950294
 21
27.87690109
 31
0.0
  0
LINE
  5
1C8
330
147
100
AcDbEntity
 67
     1
  8
0
  6
Continuous
 62
     7
370
    15
100
AcDbLine
 10
-38.2308855624
 20
30.9421318987
 30
0.0
 11
-39.6450991247
 21
30.1257237868
 31
0.0
  0
LINE
  5
1C9
330
147
100
AcDbEntity
 67
     1
  8
0
  6
Continuous
 62
     7
370
    15
100
AcDbLine
 10
-37.1013268032
 20
25.6951550082
 30
0.0
 11
-35.6871132409
 21
26.51156312
 31
0.0
  0
LINE
  5
1CA
330
147
100
AcDbEntity
 67
     1
  8
0
  6
Continuous
 62
     7
370
    15
100
AcDbLine
 10
-35.6871132409
 20
26.51156312
 30
0.0
 11
-36.6362814671
 21
28.6933092018
 31
0.0
  0
LINE
  5
1CB
330
147
100
AcDbEntity
 67
     1
  8
0
  6
Continuous
 62
     7
370
    15
100
AcDbLine
 10
-50.8645688672
 20
36.6025858053
 30
0.0
 11
-49.4503553048
 21
37.4189939171
 31
0.0
  0
LINE
  5
1CC
330
147
100
AcDbEntity
 67
     1
  8
0
  6
Continuous
 62
     7
370
    15
100
AcDbLine
 10
-47.3761543395
 20
33.0736848332
 30
0.0
 11
-48.7903679019
 21
32.2572767213
 31
0.0
  0
LINE
  5
1CD
330
147
100
AcDbEntity
 67
     1
  8
0
  6
Continuous
 62
     7
370
    15
100
AcDbLine
 10
-47.3761543395
 20
27.35789915
 30
0.0
 11
-48.7903679019
 21
26.5414910381
 31
0.0
  0
LINE
  5
1CE
330
147
100
AcDbEntity
 67
     1
  8
0
  6
Continuous
 62
     7
370
    15
100
AcDbLine
 10
-47.3761543395
 20
27.35789915
 30
0.0
 11
-47.3761543395
 21
33.0736848332
 31
0.0
  0
LINE
  5
1CF
330
147
100
AcDbEntity
 67
     1
  8
0
  6
Continuous
 62
     7
370
    15
100
AcDbLine
 10
-26.1629509039
 20
-34.6973447525
 30
0.0
 11
-26.1629509039
 21
-36.3304263762
 31
0.0
  0
LINE
  5
1D0
330
147
100
AcDbEntity
 67
     1
  8
0
  6
Continuous
 62
     7
370
    15
100
AcDbLine
 10
-26.1629509039
 20
-34.6973447525
 30
0.0
 11
-26.8700576757
 21
-34.2891407019
 31
0.0
  0
LINE
  5
1D1
330
147
100
AcDbEntity
 67
     1
  8
0
  6
Continuous
 62
     7
370
    15
100
AcDbLine
 10
26.1629509039
 20
34.6973447525
 30
0.0
 11
-31.8840268035
 21
1.1875377983
 31
0.0
  0
LINE
  5
1D2
330
147
100
AcDbEntity
 67
     1
  8
0
  6
Continuous
 62
     7
370
    15
100
AcDbLine
 10
26.1629509039
 20
34.6973447525
 30
0.0
 11
60.1040764009
 21
15.1035500687
 31
0.0
  0
LINE
  5
1D3
330
147
100
AcDbEntity
 67
     1
  8
0
  6
Continuous
 62
     7
370
    15
100
AcDbLine
 10
-26.1629509039
 20
-34.6973447525
 30
0.0
 11
60.1040764009
 21
15.1035500687
 31
0.0
  0
LINE
  5
1D4
330
147
100
AcDbEntity
 67
     1
  8
0
  6
Continuous
 62
     7
370
    15
100
AcDbLine
 10
-26.1629509039
 20
-36.3304263762
 30
0.0
 11
60.1040764009
 21
13.4704684449
 31
0.0
  0
LINE
  5
1D5
330
147
100
AcDbEntity
 67
     1
  8
0
  6
Continuous
 62
     7
370
    15
100
AcDbLine
 10
60.1040764009
 20
15.1035500687
 30
0.0
 11
60.1040764009
 21
13.4704684449
 31
0.0
  0
LINE
  5
1D6
330
147
100
AcDbEntity
 67
     1
  8
0
  6
Continuous
 62
     7
370
    15
100
AcDbLine
 10
40.3050865276
 20
83.6909877662
 30
0.0
 11
40.3050865276
 21
77.975202083
 31
0.0
  0
LINE
  5
1D7
330
147
100
AcDbEntity
 67
     1
  8
0
  6
Continuous
 62
     7
370
    15
100
AcDbLine
 10
47.3761543395
 20
73.8931615239
 30
0.0
 11
47.3761543395
 21
79.6089472071
 31
0.0
  0
LINE
  5
1D8
330
147
100
AcDbEntity
 67
     1
  8
0
  6
Continuous
 62
     7
370
    15
100
AcDbLine
 10
51.0449594001
 20
79.3106121348
 30
0.0
 11
51.9941276263
 21
77.128866053
 31
0.0
  0
LINE
  5
1D9
330
147
100
AcDbEntity
 67
     1
  8
0
  6
Continuous
 62
     7
370
    15
100
AcDbLine
 10
52.4300962639
 20
75.6290219328
 30
0.0
 11
60.811183182
 21
16.3282949365
 31
0.0
  0
LINE
  5
1DA
330
147
100
AcDbEntity
 67
     1
  8
0
  6
Continuous
 62
     7
370
    15
100
AcDbLine
 10
60.811183182
 20
16.3282949365
 30
0.0
 11
26.8700576851
 21
35.9220896203
 31
0.0
  0
LINE
  5
1DB
330
147
100
AcDbEntity
 67
     1
  8
0
  6
Continuous
 62
     7
370
    15
100
AcDbLine
 10
26.8700576851
 20
35.9220896203
 30
0.0
 11
35.2511446032
 21
85.5462196331
 31
0.0
  0
LINE
  5
1DC
330
147
100
AcDbEntity
 67
     1
  8
0
  6
Continuous
 62
     7
370
    15
100
AcDbLine
 10
35.6871132409
 20
86.5427050785
 30
0.0
 11
36.6362814671
 21
87.628564853
 31
0.0
  0
LINE
  5
1DD
330
147
100
AcDbEntity
 67
     1
  8
0
  6
Continuous
 62
     7
370
    15
100
AcDbLine
 10
60.811183182
 20
16.3282949365
 30
0.0
 11
62.2253967444
 21
17.1447030483
 31
0.0
  0
LINE
  5
1DE
330
147
100
AcDbEntity
 67
     1
  8
0
  6
Continuous
 62
     7
370
    15
100
AcDbLine
 10
53.8443098263
 20
76.4454300447
 30
0.0
 11
52.4300962639
 21
75.6290219328
 31
0.0
  0
LINE
  5
1DF
330
147
100
AcDbEntity
 67
     1
  8
0
  6
Continuous
 62
     7
370
    15
100
AcDbLine
 10
53.8443098263
 20
76.4454300447
 30
0.0
 11
62.2253967444
 21
17.1447030483
 31
0.0
  0
LINE
  5
1E0
330
147
100
AcDbEntity
 67
     1
  8
0
  6
Continuous
 62
     7
370
    15
100
AcDbLine
 10
52.4591729624
 20
80.1270202467
 30
0.0
 11
51.0449594001
 21
79.3106121348
 31
0.0
  0
LINE
  5
1E1
330
147
100
AcDbEntity
 67
     1
  8
0
  6
Continuous
 62
     7
370
    15
100
AcDbLine
 10
49.4503553048
 20
81.5594348317
 30
0.0
 11
50.8645688672
 21
82.3758429435
 31
0.0
  0
LINE
  5
1E2
330
147
100
AcDbEntity
 67
     1
  8
0
  6
Continuous
 62
     7
370
    15
100
AcDbLine
 10
51.9941276263
 20
77.128866053
 30
0.0
 11
53.4083411886
 21
77.9452741648
 31
0.0
  0
LINE
  5
1E3
330
147
100
AcDbEntity
 67
     1
  8
0
  6
Continuous
 62
     7
370
    15
100
AcDbLine
 10
52.4591729624
 20
80.1270202467
 30
0.0
 11
53.4083411886
 21
77.9452741648
 31
0.0
  0
LINE
  5
1E4
330
147
100
AcDbEntity
 67
     1
  8
0
  6
Continuous
 62
     7
370
    15
100
AcDbLine
 10
41.71930009
 20
84.507395878
 30
0.0
 11
40.3050865276
 21
83.6909877662
 31
0.0
  0
LINE
  5
1E5
330
147
100
AcDbEntity
 67
     1
  8
0
  6
Continuous
 62
     7
370
    15
100
AcDbLine
 10
38.2308855624
 20
88.0362968501
 30
0.0
 11
39.6450991247
 21
88.8527049619
 31
0.0
  0
LINE
  5
1E6
330
147
100
AcDbEntity
 67
     1
  8
0
  6
Continuous
 62
     7
370
    15
100
AcDbLine
 10
40.3050865276
 20
77.975202083
 30
0.0
 11
41.71930009
 21
78.7916101948
 31
0.0
  0
LINE
  5
1E7
330
147
100
AcDbEntity
 67
     1
  8
0
  6
Continuous
 62
     7
370
    15
100
AcDbLine
 10
41.71930009
 20
84.507395878
 30
0.0
 11
41.71930009
 21
78.7916101948
 31
0.0
  0
ARC
  5
1E8
330
147
100
AcDbEntity
 67
     1
  8
0
  6
Continuous
 62
     7
370
    15
100
AcDbCircle
 10
-51.8588843673
 20
33.8374847173
 30
0.0
 40
2.004383292389202
100
AcDbArc
 50
140.6271441356
 51
172.1134966394
  0
ARC
  5
1E9
330
147
100
AcDbEntity
 67
     1
  8
0
  6
Continuous
 62
     7
370
    15
100
AcDbCircle
 10
-51.3447981555
 20
35.1586760424
 30
0.0
 40
1.521675251997171
100
AcDbArc
 50
71.6034141678
 51
137.0824356903
  0
ARC
  5
1EA
330
147
100
AcDbEntity
 67
     1
  8
0
  6
Continuous
 62
     7
370
    15
100
AcDbCircle
 10
-55.0511496409
 20
31.9364458759
 30
0.0
 40
6.268996763063053
100
AcDbArc
 50
2.9335295235
 51
48.1007288243
  0
ARC
  5
1EB
330
147
100
AcDbEntity
 67
     1
  8
0
  6
Continuous
 62
     7
370
    15
100
AcDbCircle
 10
-44.1037862502
 20
25.2743748404
 30
0.0
 40
6.58904222805613
100
AcDbArc
 50
23.2645975224
 51
47.4150861718
  0
ARC
  5
1EC
330
147
100
AcDbEntity
 67
     1
  8
0
  6
Continuous
 62
     7
370
    15
100
AcDbCircle
 10
-42.4488484692
 20
23.3274741228
 30
0.0
 40
5.848239114771911
100
AcDbArc
 50
8.5338003042
 51
23.881955713
  0
ARC
  5
1ED
330
147
100
AcDbEntity
 67
     1
  8
0
  6
Continuous
 62
     7
370
    15
100
AcDbCircle
 10
-42.6895726878
 20
26.0907829522
 30
0.0
 40
6.58904222805628
100
AcDbArc
 50
23.2645975224
 51
47.4150861718
  0
ARC
  5
1EE
330
147
100
AcDbEntity
 67
     1
  8
0
  6
Continuous
 62
     7
370
    15
100
AcDbCircle
 10
-41.0346349069
 20
24.1438822346
 30
0.0
 40
5.848239114771178
100
AcDbArc
 50
8.5338003042
 51
23.881955713
  0
ARC
  5
1EF
330
147
100
AcDbEntity
 67
     1
  8
0
  6
Continuous
 62
     7
370
    15
100
AcDbCircle
 10
-38.7133036902
 20
29.4144336369
 30
0.0
 40
1.602057810746263
100
AcDbArc
 50
72.4748716385
 51
118.4494381959
  0
ARC
  5
1F0
330
147
100
AcDbEntity
 67
     1
  8
0
  6
Continuous
 62
     7
370
    15
100
AcDbCircle
 10
-53.6369360785
 20
32.7528539878
 30
0.0
 40
6.268996763063068
100
AcDbArc
 50
2.9335295235
 51
48.1007288243
  0
ARC
  5
1F1
330
147
100
AcDbEntity
 67
     1
  8
0
  6
Continuous
 62
     7
370
    15
100
AcDbCircle
 10
-49.9289525696
 20
35.8513378497
 30
0.0
 40
1.63908538138377
100
AcDbArc
 50
73.0228414853
 51
117.9014683491
  0
ARC
  5
1F2
330
147
100
AcDbEntity
 67
     1
  8
0
  6
Continuous
 62
     7
370
    15
100
AcDbCircle
 10
-60.7553910372
 20
-15.6738816366
 30
0.0
 40
1.478933790134909
100
AcDbArc
 50
173.7011524845
 51
234.9866671221
  0
ARC
  5
1F3
330
147
100
AcDbEntity
 67
     1
  8
0
  6
Continuous
 62
     7
370
    15
100
AcDbCircle
 10
-26.9910481452
 20
-35.315197699
 30
0.0
 40
1.310127592285442
100
AcDbArc
 50
170.7859630095
 51
309.2032852357
  0
ARC
  5
1F4
330
147
100
AcDbEntity
 67
     1
  8
0
  6
Continuous
 62
     7
370
    15
100
AcDbCircle
 10
-26.4389833177
 20
-34.3589351934
 30
0.0
 40
0.4367091974284892
100
AcDbArc
 50
170.7859630095
 51
309.2032852357
  0
ARC
  5
1F5
330
147
100
AcDbEntity
 67
     1
  8
0
  6
Continuous
 62
     7
370
    15
100
AcDbCircle
 10
37.750656274
 20
86.5923870873
 30
0.0
 40
1.521675251997198
100
AcDbArc
 50
71.6034141678
 51
137.0824356903
  0
ARC
  5
1F6
330
147
100
AcDbEntity
 67
     1
  8
0
  6
Continuous
 62
     7
370
    15
100
AcDbCircle
 10
34.0443047886
 20
83.3701569208
 30
0.0
 40
6.268996763063015
100
AcDbArc
 50
2.9335295235
 51
48.1007288243
  0
ARC
  5
1F7
330
147
100
AcDbEntity
 67
     1
  8
0
  6
Continuous
 62
     7
370
    15
100
AcDbCircle
 10
44.9916681793
 20
76.7080858852
 30
0.0
 40
6.589042228055781
100
AcDbArc
 50
23.2645975224
 51
47.4150861718
  0
ARC
  5
1F8
330
147
100
AcDbEntity
 67
     1
  8
0
  6
Continuous
 62
     7
370
    15
100
AcDbCircle
 10
46.6466059603
 20
74.7611851676
 30
0.0
 40
5.848239114771827
100
AcDbArc
 50
8.5338003042
 51
23.881955713
  0
ARC
  5
1F9
330
147
100
AcDbEntity
 67
     1
  8
0
  6
Continuous
 62
     7
370
    15
100
AcDbCircle
 10
37.2365700622
 20
85.2711957621
 30
0.0
 40
2.00438329238922
100
AcDbArc
 50
140.6271441356
 51
172.1134966394
  0
ARC
  5
1FA
330
147
100
AcDbEntity
 67
     1
  8
0
  6
Continuous
 62
     7
370
    15
100
AcDbCircle
 10
46.4058817417
 20
77.524493997
 30
0.0
 40
6.589042228055954
100
AcDbArc
 50
23.2645975224
 51
47.4150861718
  0
ARC
  5
1FB
330
147
100
AcDbEntity
 67
     1
  8
0
  6
Continuous
 62
     7
370
    15
100
AcDbCircle
 10
48.0608195226
 20
75.5775932794
 30
0.0
 40
5.848239114771756
100
AcDbArc
 50
8.5338003042
 51
23.881955713
  0
ARC
  5
1FC
330
147
100
AcDbEntity
 67
     1
  8
0
  6
Continuous
 62
     7
370
    15
100
AcDbCircle
 10
50.3821507393
 20
80.8481446818
 30
0.0
 40
1.602057810746638
100
AcDbArc
 50
72.4748716385
 51
118.4494381959
  0
ARC
  5
1FD
330
147
100
AcDbEntity
 67
     1
  8
0
  6
Continuous
 62
     7
370
    15
100
AcDbCircle
 10
0.0373734715
 20
-4.1114821994
 30
0.0
 40
4.249133787402785
100
AcDbArc
 50
60.6304681378
 51
129.1552061676
  0
ARC
  5
1FE
330
147
100
AcDbEntity
 67
     1
  8
0
  6
Continuous
 62
     7
370
    15
100
AcDbCircle
 10
35.458518351
 20
84.1865650326
 30
0.0
 40
6.268996763062993
100
AcDbArc
 50
2.9335295235
 51
48.1007288243
  0
ARC
  5
1FF
330
147
100
AcDbEntity
 67
     1
  8
0
  6
Continuous
 62
     7
370
    15
100
AcDbCircle
 10
39.1665018599
 20
87.2850488945
 30
0.0
 40
1.639085381384049
100
AcDbArc
 50
73.0228414853
 51
117.9014683491
  0
ARC
  5
200
330
147
100
AcDbEntity
 67
     1
  8
0
  6
Continuous
 62
     7
370
    15
100
AcDbCircle
 10
57.6197484403
 20
17.3542856051
 30
0.0
 40
4.610414422716241
100
AcDbArc
 50
302.60547834
 51
357.3945215143
  0
ARC
  5
201
330
147
100
AcDbEntity
 67
     1
  8
0
  6
Continuous
 62
     7
370
    15
100
AcDbCircle
 10
59.2759670807
 20
16.3981557888
 30
0.0
 40
1.536804807572479
100
AcDbArc
 50
302.60547834
 51
357.3945215143
  0
ARC
  5
202
330
147
100
AcDbEntity
 67
     1
  8
0
  6
Continuous
 62
     7
370
    15
100
AcDbCircle
 10
25.3348415837
 20
35.9919504725
 30
0.0
 40
1.5368048075718
100
AcDbArc
 50
302.60547834
 51
357.3945215144
  0
VIEWPORT
  5
207
330
147
100
AcDbEntity
 67
     1
  8
0
100
AcDbViewport
 10
0.0
 20
0.0
 30
0.0
 40
205.6
 41
156.0
 68
     1
 69
     1
 12
0.0
 22
35.4275817623
 13
0.0
 23
0.0
 14
10.0
 24
10.0
 15
10.0
 25
10.0
 16
0.0
 26
0.0
 36
1.0
 17
0.0
 27
0.0
 37
0.0
 42
50.0
 43
0.0
 44
0.0
 45
76.352266795
 50
0.0
 51
0.0
 72
   100
 90
   557152
  1

281
     0
 71
     1
 74
     0
110
0.0
120
0.0
130
0.0
111
1.0
121
0.0
131
0.0
112
0.0
122
1.0
132
0.0
 79
     0
146
0.0
  0
ENDSEC
  0
SECTION
  2
OBJECTS
  0
DICTIONARY
  5
C
330
0
100
AcDbDictionary
281
     1
  3
ACAD_GROUP
350
D
  3
ACAD_LAYOUT
350
1A
  3
ACAD_MLINESTYLE
350
17
  3
ACAD_PLOTSETTINGS
350
19
  3
ACAD_PLOTSTYLENAME
350
E
  3
ACAD_SCALELIST
350
47
  0
DICTIONARY
  5
D
102
{ACAD_REACTORS
330
C
102
}
330
C
100
AcDbDictionary
281
     1
  0
DICTIONARY
  5
1A
102
{ACAD_REACTORS
330
C
102
}
330
C
100
AcDbDictionary
281
     1
  3
_Direita
350
26
  3
_Isomtrica
350
148
  3
_Superior
350
1E
  3
Model
350
22
  0
DICTIONARY
  5
17
102
{ACAD_REACTORS
330
C
102
}
330
C
100
AcDbDictionary
281
     1
  3
Standard
350
18
  0
DICTIONARY
  5
19
102
{ACAD_REACTORS
330
C
102
}
330
C
100
AcDbDictionary
281
     1
  0
ACDBDICTIONARYWDFLT
  5
E
102
{ACAD_REACTORS
330
C
102
}
330
C
100
AcDbDictionary
281
     1
  3
Normal
350
F
100
AcDbDictionaryWithDefault
340
F
  0
DICTIONARY
  5
47
102
{ACAD_REACTORS
330
C
102
}
330
C
100
AcDbDictionary
281
     1
  3
A0
350
48
  3
A1
350
49
  3
A2
350
4A
  3
A3
350
4B
  3
A4
350
4C
  3
A5
350
4D
  3
A6
350
4E
  3
A7
350
4F
  3
A8
350
50
  3
A9
350
51
  3
B0
350
52
  3
B1
350
53
  3
B2
350
54
  3
B3
350
55
  3
B4
350
56
  3
B5
350
57
  3
B6
350
58
  3
B7
350
59
  3
B8
350
5A
  3
B9
350
5B
  3
C0
350
5C
  3
C1
350
5D
  3
C2
350
5E
  3
C3
350
5F
  3
C4
350
60
  3
C5
350
61
  3
C6
350
62
  3
C7
350
63
  3
C8
350
64
  3
C9
350
65
  3
D0
350
66
  3
D1
350
67
  3
D2
350
68
  0
LAYOUT
  5
26
102
{ACAD_REACTORS
330
1A
102
}
330
1A
100
AcDbPlotSettings
  1

  2
none_device
  4
ISO_A4_(210.00_x_297.00_MM)
  6

 40
7.5
 41
20.0
 42
7.5
 43
20.0
 44
210.0
 45
297.0
 46
0.0
 47
0.0
 48
0.0
 49
0.0
140
0.0
141
0.0
142
1.0
143
0.6564102564
 70
   688
 72
     1
 73
     1
 74
     1
  7

 75
     0
147
1.5234375
148
24.0
149
64.0
100
AcDbLayout
  1
_Direita
 70
     1
 71
     2
 10
0.0
 20
0.0
 11
0.0
 21
0.0
 12
0.0
 22
0.0
 32
0.0
 14
0.0
 24
0.0
 34
0.0
 15
0.0
 25
0.0
 35
0.0
146
0.0
 13
0.0
 23
0.0
 33
0.0
 16
1.0
 26
0.0
 36
0.0
 17
0.0
 27
1.0
 37
0.0
 76
     0
330
23
331
205
  0
LAYOUT
  5
148
102
{ACAD_REACTORS
330
1A
102
}
330
1A
100
AcDbPlotSettings
  1

  2
none_device
  4
ANSI_A_(11.00_x_8.50_Inches)
  6

 40
6.35
 41
19.05
 42
6.35000508
 43
19.05000254
 44
279.4
 45
215.9
 46
133.34999746
 47
-12.2597128638
 48
0.0
 49
0.0
140
0.0
141
0.0
142
0.1124170946
143
1.0
 70
  1696
 72
     0
 73
     0
 74
     1
  7

 75
     0
147
0.0935139217
148
609.6
149
50.8
100
AcDbLayout
  1
_Isomtrica
 70
     1
 71
     3
 10
0.0
 20
0.0
 11
0.0
 21
0.0
 12
0.0
 22
0.0
 32
0.0
 14
-24.0
 24
-2.0
 34
0.0
 15
24.0
 25
72.8551635245
 35
0.0
146
0.0
 13
0.0
 23
0.0
 33
0.0
 16
1.0
 26
0.0
 36
0.0
 17
0.0
 27
1.0
 37
0.0
 76
     0
330
147
331
207
  0
LAYOUT
  5
1E
102
{ACAD_REACTORS
330
1A
102
}
330
1A
100
AcDbPlotSettings
  1

  2
none_device
  4
ISO_A4_(210.00_x_297.00_MM)
  6

 40
7.5
 41
20.0
 42
7.5
 43
20.0
 44
210.0
 45
297.0
 46
0.0
 47
0.0
 48
0.0
 49
0.0
140
0.0
141
0.0
142
1.0
143
0.6564102564
 70
   688
 72
     1
 73
     1
 74
     1
  7

 75
     0
147
1.5234375
148
24.0
149
64.0
100
AcDbLayout
  1
_Superior
 70
     1
 71
     1
 10
-37.1282051282
 20
-68.9230769231
 11
157.8256410256
 21
68.9230769231
 12
0.0
 22
0.0
 32
0.0
 14
1.0000000000E+20
 24
1.0000000000E+20
 34
1.0000000000E+20
 15
-1.0000000000E+20
 25
-1.0000000000E+20
 35
-1.0000000000E+20
146
0.0
 13
0.0
 23
0.0
 33
0.0
 16
1.0
 26
0.0
 36
0.0
 17
0.0
 27
1.0
 37
0.0
 76
     0
330
1B
331
203
  0
LAYOUT
  5
22
102
{ACAD_REACTORS
330
1A
102
}
330
1A
100
AcDbPlotSettings
  1

  2
none_device
  4
Letter_(8.50_x_11.00_Inches)
  6

 40
6.35
 41
6.35
 42
6.35000508
 43
6.35000508
 44
215.9
 45
279.4
 46
0.0
 47
0.0
 48
0.0
 49
0.0
140
0.0
141
0.0
142
1.0
143
1.0
 70
  1712
 72
     1
 73
     0
 74
     0
  7

 75
     0
147
1.0
148
0.0
149
0.0
100
AcDbLayout
  1
Model
 70
     1
 71
     0
 10
0.0
 20
0.0
 11
420.0
 21
297.0
 12
0.0
 22
0.0
 32
0.0
 14
-24.0
 24
-2.0
 34
0.0
 15
24.0
 25
72.8551635245
 35
0.0
146
0.0
 13
0.0
 23
0.0
 33
0.0
 16
1.0
 26
0.0
 36
0.0
 17
0.0
 27
1.0
 37
0.0
 76
     0
330
1F
331
29
  0
MLINESTYLE
  5
18
102
{ACAD_REACTORS
330
17
102
}
330
17
100
AcDbMlineStyle
  2
Standard
 70
     0
  3

 62
   256
 51
90.0
 52
90.0
 71
     2
 49
0.5
 62
   256
  6
BYLAYER
 49
-0.5
 62
   256
  6
BYLAYER
  0
ACDBPLACEHOLDER
  5
F
102
{ACAD_REACTORS
330
E
102
}
330
E
  0
SCALE
  5
48
102
{ACAD_REACTORS
330
47
102
}
330
47
100
AcDbScale
 70
     0
300
1:1
140
1.0
141
1.0
290
     1
  0
SCALE
  5
49
102
{ACAD_REACTORS
330
47
102
}
330
47
100
AcDbScale
 70
     0
300
1:2
140
1.0
141
2.0
290
     0
  0
SCALE
  5
4A
102
{ACAD_REACTORS
330
47
102
}
330
47
100
AcDbScale
 70
     0
300
1:4
140
1.0
141
4.0
290
     0
  0
SCALE
  5
4B
102
{ACAD_REACTORS
330
47
102
}
330
47
100
AcDbScale
 70
     0
300
1:5
140
1.0
141
5.0
290
     0
  0
SCALE
  5
4C
102
{ACAD_REACTORS
330
47
102
}
330
47
100
AcDbScale
 70
     0
300
1:8
140
1.0
141
8.0
290
     0
  0
SCALE
  5
4D
102
{ACAD_REACTORS
330
47
102
}
330
47
100
AcDbScale
 70
     0
300
1:10
140
1.0
141
10.0
290
     0
  0
SCALE
  5
4E
102
{ACAD_REACTORS
330
47
102
}
330
47
100
AcDbScale
 70
     0
300
1:16
140
1.0
141
16.0
290
     0
  0
SCALE
  5
4F
102
{ACAD_REACTORS
330
47
102
}
330
47
100
AcDbScale
 70
     0
300
1:20
140
1.0
141
20.0
290
     0
  0
SCALE
  5
50
102
{ACAD_REACTORS
330
47
102
}
330
47
100
AcDbScale
 70
     0
300
1:30
140
1.0
141
30.0
290
     0
  0
SCALE
  5
51
102
{ACAD_REACTORS
330
47
102
}
330
47
100
AcDbScale
 70
     0
300
1:40
140
1.0
141
40.0
290
     0
  0
SCALE
  5
52
102
{ACAD_REACTORS
330
47
102
}
330
47
100
AcDbScale
 70
     0
300
1:50
140
1.0
141
50.0
290
     0
  0
SCALE
  5
53
102
{ACAD_REACTORS
330
47
102
}
330
47
100
AcDbScale
 70
     0
300
1:100
140
1.0
141
100.0
290
     0
  0
SCALE
  5
54
102
{ACAD_REACTORS
330
47
102
}
330
47
100
AcDbScale
 70
     0
300
2:1
140
2.0
141
1.0
290
     0
  0
SCALE
  5
55
102
{ACAD_REACTORS
330
47
102
}
330
47
100
AcDbScale
 70
     0
300
4:1
140
4.0
141
1.0
290
     0
  0
SCALE
  5
56
102
{ACAD_REACTORS
330
47
102
}
330
47
100
AcDbScale
 70
     0
300
8:1
140
8.0
141
1.0
290
     0
  0
SCALE
  5
57
102
{ACAD_REACTORS
330
47
102
}
330
47
100
AcDbScale
 70
     0
300
10:1
140
10.0
141
1.0
290
     0
  0
SCALE
  5
58
102
{ACAD_REACTORS
330
47
102
}
330
47
100
AcDbScale
 70
     0
300
100:1
140
100.0
141
1.0
290
     0
  0
SCALE
  5
59
102
{ACAD_REACTORS
330
47
102
}
330
47
100
AcDbScale
 70
     0
300
1/128" = 1'-0"
140
0.0078125
141
12.0
290
     0
  0
SCALE
  5
5A
102
{ACAD_REACTORS
330
47
102
}
330
47
100
AcDbScale
 70
     0
300
1/64" = 1'-0"
140
0.015625
141
12.0
290
     0
  0
SCALE
  5
5B
102
{ACAD_REACTORS
330
47
102
}
330
47
100
AcDbScale
 70
     0
300
1/32" = 1'-0"
140
0.03125
141
12.0
290
     0
  0
SCALE
  5
5C
102
{ACAD_REACTORS
330
47
102
}
330
47
100
AcDbScale
 70
     0
300
1/16" = 1'-0"
140
0.0625
141
12.0
290
     0
  0
SCALE
  5
5D
102
{ACAD_REACTORS
330
47
102
}
330
47
100
AcDbScale
 70
     0
300
3/32" = 1'-0"
140
0.09375
141
12.0
290
     0
  0
SCALE
  5
5E
102
{ACAD_REACTORS
330
47
102
}
330
47
100
AcDbScale
 70
     0
300
1/8" = 1'-0"
140
0.125
141
12.0
290
     0
  0
SCALE
  5
5F
102
{ACAD_REACTORS
330
47
102
}
330
47
100
AcDbScale
 70
     0
300
3/16" = 1'-0"
140
0.1875
141
12.0
290
     0
  0
SCALE
  5
60
102
{ACAD_REACTORS
330
47
102
}
330
47
100
AcDbScale
 70
     0
300
1/4" = 1'-0"
140
0.25
141
12.0
290
     0
  0
SCALE
  5
61
102
{ACAD_REACTORS
330
47
102
}
330
47
100
AcDbScale
 70
     0
300
3/8" = 1'-0"
140
0.375
141
12.0
290
     0
  0
SCALE
  5
62
102
{ACAD_REACTORS
330
47
102
}
330
47
100
AcDbScale
 70
     0
300
1/2" = 1'-0"
140
0.5
141
12.0
290
     0
  0
SCALE
  5
63
102
{ACAD_REACTORS
330
47
102
}
330
47
100
AcDbScale
 70
     0
300
3/4" = 1'-0"
140
0.75
141
12.0
290
     0
  0
SCALE
  5
64
102
{ACAD_REACTORS
330
47
102
}
330
47
100
AcDbScale
 70
     0
300
1" = 1'-0"
140
1.0
141
12.0
290
     0
  0
SCALE
  5
65
102
{ACAD_REACTORS
330
47
102
}
330
47
100
AcDbScale
 70
     0
300
1-1/2" = 1'-0"
140
1.5
141
12.0
290
     0
  0
SCALE
  5
66
102
{ACAD_REACTORS
330
47
102
}
330
47
100
AcDbScale
 70
     0
300
3" = 1'-0"
140
3.0
141
12.0
290
     0
  0
SCALE
  5
67
102
{ACAD_REACTORS
330
47
102
}
330
47
100
AcDbScale
 70
     0
300
6" = 1'-0"
140
6.0
141
12.0
290
     0
  0
SCALE
  5
68
102
{ACAD_REACTORS
330
47
102
}
330
47
100
AcDbScale
 70
     0
300
1'-0" = 1'-0"
140
12.0
141
12.0
290
     0
  0
ENDSEC
  0
EOF
